<?xml version="1.0" encoding="utf-8"?>
<!-- Generator: Adobe Illustrator 24.1.2, SVG Export Plug-In . SVG Version: 6.00 Build 0)  -->
<svg version="1.1" id="Layer_1" xmlns="http://www.w3.org/2000/svg" xmlns:xlink="http://www.w3.org/1999/xlink" x="0px" y="0px"
	 viewBox="0 0 250 175" style="enable-background:new 0 0 250 175;" xml:space="preserve">
<style type="text/css">
	.st0{fill:#467EAF;}
	.st1{fill:#5396D1;}
	.st2{opacity:0.15;fill:url(#SVGID_1_);enable-background:new    ;}
	.st3{fill:#FFFFFF;}
	.st4{fill-rule:evenodd;clip-rule:evenodd;fill:#FFFFFF;}
</style>
<g>
	<g>
		<polygon class="st0" points="66.2,164 25.9,169.3 47.3,118.6 85.9,109.3 		"/>
		<polygon class="st0" points="66.2,163.9 25.9,169.3 47.3,118.6 85.9,109.3 		"/>
		<polygon class="st0" points="66.1,163.9 25.9,169.2 47.3,118.6 85.8,109.3 		"/>
		<polygon class="st0" points="66.1,163.9 25.9,169.2 47.3,118.6 85.8,109.3 		"/>
		<polygon class="st0" points="66.1,163.9 25.9,169.2 47.2,118.6 85.8,109.3 		"/>
		<polygon class="st0" points="66.1,163.9 25.8,169.2 47.2,118.6 85.8,109.2 		"/>
		<polygon class="st0" points="66.1,163.9 25.8,169.2 47.2,118.5 85.8,109.2 		"/>
		<polygon class="st0" points="66.1,163.9 25.8,169.2 47.2,118.5 85.8,109.2 		"/>
		<polygon class="st0" points="66,163.8 25.8,169.2 47.2,118.5 85.8,109.2 		"/>
		<polygon class="st0" points="66,163.8 25.8,169.1 47.2,118.5 85.7,109.2 		"/>
		<polygon class="st0" points="66,163.8 25.8,169.1 47.2,118.5 85.7,109.2 		"/>
		<polygon class="st0" points="66,163.8 25.8,169.1 47.1,118.5 85.7,109.2 		"/>
		<polygon class="st0" points="66,163.8 25.8,169.1 47.1,118.5 85.7,109.2 		"/>
		<polygon class="st0" points="66,163.8 25.7,169.1 47.1,118.5 85.7,109.2 		"/>
		<polygon class="st0" points="66,163.8 25.7,169.1 47.1,118.4 85.7,109.1 		"/>
		<polygon class="st0" points="65.9,163.7 25.7,169.1 47.1,118.4 85.6,109.1 		"/>
		<polygon class="st0" points="65.9,163.7 25.7,169 47.1,118.4 85.6,109.1 		"/>
		<polygon class="st0" points="65.9,163.7 25.7,169 47.1,118.4 85.6,109.1 		"/>
		<polygon class="st0" points="65.9,163.7 25.7,169 47,118.4 85.6,109.1 		"/>
		<polygon class="st0" points="65.9,163.7 25.7,169 47,118.4 85.6,109.1 		"/>
		<polygon class="st0" points="65.9,163.7 25.6,169 47,118.4 85.6,109.1 		"/>
		<polygon class="st0" points="65.8,163.7 25.6,169 47,118.4 85.6,109.1 		"/>
		<polygon class="st0" points="65.8,163.6 25.6,169 47,118.4 85.5,109 		"/>
		<polygon class="st0" points="65.8,163.6 25.6,169 47,118.3 85.5,109 		"/>
		<polygon class="st0" points="65.8,163.6 25.6,168.9 47,118.3 85.5,109 		"/>
		<polygon class="st0" points="65.8,163.6 25.6,168.9 46.9,118.3 85.5,109 		"/>
		<polygon class="st0" points="65.8,163.6 25.6,168.9 46.9,118.3 85.5,109 		"/>
		<polygon class="st0" points="65.8,163.6 25.5,168.9 46.9,118.3 85.5,109 		"/>
		<polygon class="st0" points="65.7,163.6 25.5,168.9 46.9,118.3 85.4,109 		"/>
		<polygon class="st0" points="65.7,163.5 25.5,168.9 46.9,118.3 85.4,109 		"/>
		<polygon class="st0" points="65.7,163.5 25.5,168.9 46.9,118.3 85.4,108.9 		"/>
		<polygon class="st0" points="65.7,163.5 25.5,168.8 46.9,118.3 85.4,108.9 		"/>
		<polygon class="st0" points="65.7,163.5 25.5,168.8 46.8,118.2 85.4,108.9 		"/>
		<polygon class="st0" points="65.7,163.5 25.5,168.8 46.8,118.2 85.4,108.9 		"/>
		<polygon class="st0" points="65.6,163.5 25.5,168.8 46.8,118.2 85.4,108.9 		"/>
		<polygon class="st0" points="65.6,163.5 25.4,168.8 46.8,118.2 85.3,108.9 		"/>
		<polygon class="st0" points="65.6,163.4 25.4,168.8 46.8,118.2 85.3,108.9 		"/>
		<polygon class="st0" points="65.6,163.4 25.4,168.8 46.8,118.2 85.3,108.9 		"/>
		<polygon class="st0" points="65.6,163.4 25.4,168.7 46.8,118.2 85.3,108.9 		"/>
		<polygon class="st0" points="65.6,163.4 25.4,168.7 46.7,118.2 85.3,108.8 		"/>
		<polygon class="st0" points="65.6,163.4 25.4,168.7 46.7,118.1 85.3,108.8 		"/>
		<polygon class="st0" points="65.5,163.4 25.4,168.7 46.7,118.1 85.2,108.8 		"/>
		<polygon class="st0" points="65.5,163.4 25.3,168.7 46.7,118.1 85.2,108.8 		"/>
		<polygon class="st0" points="65.5,163.3 25.3,168.7 46.7,118.1 85.2,108.8 		"/>
		<polygon class="st0" points="65.5,163.3 25.3,168.7 46.7,118.1 85.2,108.8 		"/>
		<polygon class="st0" points="65.5,163.3 25.3,168.6 46.7,118.1 85.2,108.8 		"/>
		<polygon class="st0" points="65.5,163.3 25.3,168.6 46.6,118.1 85.2,108.8 		"/>
		<polygon class="st0" points="65.4,163.3 25.3,168.6 46.6,118.1 85.1,108.7 		"/>
		<polygon class="st0" points="65.4,163.3 25.3,168.6 46.6,118.1 85.1,108.7 		"/>
		<polygon class="st0" points="65.4,163.3 25.2,168.6 46.6,118 85.1,108.7 		"/>
		<polygon class="st0" points="65.4,163.2 25.2,168.6 46.6,118 85.1,108.7 		"/>
		<polygon class="st0" points="65.4,163.2 25.2,168.6 46.6,118 85.1,108.7 		"/>
		<polygon class="st0" points="65.4,163.2 25.2,168.6 46.6,118 85.1,108.7 		"/>
		<polygon class="st0" points="65.4,163.2 25.2,168.5 46.5,118 85.1,108.7 		"/>
		<polygon class="st0" points="65.3,163.2 25.2,168.5 46.5,118 85,108.7 		"/>
		<polygon class="st0" points="65.3,163.2 25.2,168.5 46.5,118 85,108.6 		"/>
		<polygon class="st0" points="65.3,163.2 25.1,168.5 46.5,118 85,108.6 		"/>
		<polygon class="st0" points="65.3,163.1 25.1,168.5 46.5,117.9 85,108.6 		"/>
		<polygon class="st0" points="65.3,163.1 25.1,168.5 46.5,117.9 85,108.6 		"/>
		<polygon class="st0" points="65.3,163.1 25.1,168.5 46.5,117.9 85,108.6 		"/>
		<polygon class="st0" points="65.2,163.1 25.1,168.4 46.4,117.9 84.9,108.6 		"/>
		<polygon class="st0" points="65.2,163.1 25.1,168.4 46.4,117.9 84.9,108.6 		"/>
		<polygon class="st0" points="65.2,163.1 25.1,168.4 46.4,117.9 84.9,108.6 		"/>
		<polygon class="st0" points="65.2,163 25.1,168.4 46.4,117.9 84.9,108.6 		"/>
		<polygon class="st0" points="65.2,163 25,168.4 46.4,117.9 84.9,108.5 		"/>
		<polygon class="st0" points="65.2,163 25,168.4 46.4,117.9 84.9,108.5 		"/>
		<polygon class="st0" points="65.2,163 25,168.4 46.4,117.8 84.9,108.5 		"/>
		<polygon class="st0" points="65.1,163 25,168.3 46.3,117.8 84.8,108.5 		"/>
		<polygon class="st0" points="65.1,163 25,168.3 46.3,117.8 84.8,108.5 		"/>
		<polygon class="st0" points="65.1,163 25,168.3 46.3,117.8 84.8,108.5 		"/>
		<polygon class="st0" points="65.1,162.9 25,168.3 46.3,117.8 84.8,108.5 		"/>
		<polygon class="st0" points="65.1,162.9 24.9,168.3 46.3,117.8 84.8,108.5 		"/>
		<polygon class="st0" points="65.1,162.9 24.9,168.3 46.3,117.8 84.8,108.4 		"/>
		<polygon class="st0" points="65,162.9 24.9,168.3 46.3,117.8 84.7,108.4 		"/>
		<polygon class="st0" points="65,162.9 24.9,168.3 46.2,117.7 84.7,108.4 		"/>
		<polygon class="st0" points="65,162.9 24.9,168.2 46.2,117.7 84.7,108.4 		"/>
		<polygon class="st0" points="65,162.9 24.9,168.2 46.2,117.7 84.7,108.4 		"/>
		<polygon class="st0" points="65,162.8 24.9,168.2 46.2,117.7 84.7,108.4 		"/>
		<polygon class="st0" points="65,162.8 24.8,168.2 46.2,117.7 84.7,108.4 		"/>
		<polygon class="st0" points="65,162.8 24.8,168.2 46.2,117.7 84.7,108.4 		"/>
		<polygon class="st0" points="64.9,162.8 24.8,168.2 46.2,117.7 84.6,108.3 		"/>
		<polygon class="st0" points="64.9,162.8 24.8,168.2 46.1,117.7 84.6,108.3 		"/>
		<polygon class="st0" points="64.9,162.8 24.8,168.1 46.1,117.7 84.6,108.3 		"/>
		<polygon class="st0" points="64.9,162.8 24.8,168.1 46.1,117.6 84.6,108.3 		"/>
		<polygon class="st0" points="64.9,162.7 24.8,168.1 46.1,117.6 84.6,108.3 		"/>
		<polygon class="st0" points="64.9,162.7 24.7,168.1 46.1,117.6 84.6,108.3 		"/>
		<polygon class="st0" points="64.9,162.7 24.7,168.1 46.1,117.6 84.5,108.3 		"/>
		<polygon class="st0" points="64.8,162.7 24.7,168.1 46.1,117.6 84.5,108.3 		"/>
		<polygon class="st0" points="64.8,162.7 24.7,168.1 46,117.6 84.5,108.3 		"/>
		<polygon class="st0" points="64.8,162.7 24.7,168 46,117.6 84.5,108.2 		"/>
		<polygon class="st0" points="64.8,162.7 24.7,168 46,117.6 84.5,108.2 		"/>
		<polygon class="st0" points="64.8,162.6 24.7,168 46,117.5 84.5,108.2 		"/>
		<polygon class="st0" points="64.8,162.6 24.7,168 46,117.5 84.4,108.2 		"/>
		<polygon class="st0" points="64.7,162.6 24.6,168 46,117.5 84.4,108.2 		"/>
		<polygon class="st0" points="64.7,162.6 24.6,168 46,117.5 84.4,108.2 		"/>
		<polygon class="st0" points="64.7,162.6 24.6,168 45.9,117.5 84.4,108.2 		"/>
		<polygon class="st0" points="64.7,162.6 24.6,167.9 45.9,117.5 84.4,108.2 		"/>
		<polygon class="st0" points="64.7,162.6 24.6,167.9 45.9,117.5 84.4,108.1 		"/>
		<polygon class="st0" points="64.7,162.5 24.6,167.9 45.9,117.5 84.4,108.1 		"/>
		<polygon class="st0" points="64.7,162.5 24.6,167.9 45.9,117.5 84.3,108.1 		"/>
		<polygon class="st0" points="64.6,162.5 24.5,167.9 45.9,117.4 84.3,108.1 		"/>
		<polygon class="st0" points="64.6,162.5 24.5,167.9 45.9,117.4 84.3,108.1 		"/>
	</g>
	<polygon class="st1" points="64.6,162.5 24.5,167.9 45.9,117.4 84.3,108.1 	"/>
	
		<radialGradient id="SVGID_1_" cx="62.3362" cy="-84.18" r="33.8886" gradientTransform="matrix(0.7071 -0.7071 0.7071 0.7071 71.2457 243.0016)" gradientUnits="userSpaceOnUse">
		<stop  offset="0" style="stop-color:#FFFFFF"/>
		<stop  offset="1" style="stop-color:#000000"/>
	</radialGradient>
	<polygon class="st2" points="64.6,162.5 24.5,167.9 45.9,117.4 84.3,108.1 	"/>
	<g>
		<g>
			<path class="st3" d="M37.8,160c0,0.2,0,0.4-0.1,0.7c-0.1,0.4-0.4,0.7-0.6,1c-0.3,0.3-0.6,0.4-0.9,0.5l-1.5,0.2l1.8-4.7l1.3-0.2
				c0.3,0,0.5,0,0.6,0.3c0.1,0.2,0.1,0.5,0,0.9c-0.2,0.5-0.4,0.8-0.8,1.1C37.7,159.7,37.8,159.8,37.8,160z M37.1,159.4
				c0.1,0,0.2-0.1,0.4-0.2c0.1-0.1,0.2-0.3,0.3-0.4c0.1-0.2,0.1-0.3,0-0.4c0-0.1-0.1-0.1-0.3-0.1l-0.7,0.1l-0.4,1.2L37.1,159.4z
				 M36.5,161.3c0.1,0,0.3-0.1,0.4-0.2c0.1-0.1,0.2-0.3,0.3-0.5s0.1-0.3,0-0.4c0-0.1-0.1-0.2-0.2-0.2l-0.9,0.1l-0.5,1.3L36.5,161.3z
				"/>
			<path class="st3" d="M41.1,158.5l-3.5,5.2l-0.6,0.1l1.4-2.1l0.1-2.9l0.6-0.1l-0.1,2l1.4-2.2H41.1L41.1,158.5z"/>
			<path class="st3" d="M41.7,158.4l0.5-1.3l0.6-0.1l-0.5,1.4l0.8-0.1l-0.2,0.6l-0.8,0.1l-0.6,1.5c0,0.1-0.1,0.2,0,0.3
				c0,0.1,0.1,0.1,0.2,0.1c0.1,0,0.3-0.1,0.4-0.3l0.3,0.2c-0.3,0.5-0.7,0.7-1.1,0.8c-0.3,0-0.4,0-0.5-0.2s-0.1-0.4,0.1-0.7l0.6-1.6
				h-0.3l0.2-0.6L41.7,158.4L41.7,158.4z"/>
			<path class="st3" d="M43.6,159.8c-0.1,0.2-0.1,0.4,0,0.6c0.1,0.1,0.2,0.2,0.4,0.1c0.3,0,0.6-0.2,0.8-0.6l0.4,0.2
				c-0.4,0.6-0.9,0.9-1.5,1c-0.4,0-0.7-0.1-0.8-0.3c-0.1-0.3-0.1-0.7,0.1-1.2c0.2-0.5,0.4-0.9,0.8-1.2c0.3-0.3,0.7-0.5,1.1-0.6
				c0.2,0,0.3,0,0.4,0c0.1,0.1,0.2,0.1,0.3,0.2c0.1,0.1,0.1,0.3,0.1,0.5s-0.1,0.5-0.2,0.9L43.6,159.8L43.6,159.8z M45.1,159.1
				c0.1-0.4-0.1-0.6-0.4-0.6c-0.2,0-0.3,0.1-0.5,0.2c-0.2,0.1-0.3,0.3-0.4,0.5L45.1,159.1z"/>
			<path class="st3" d="M46.4,159.9c0,0.1,0,0.2,0,0.3c0.1,0,0.2,0,0.3,0s0.2-0.1,0.3-0.1c0.1-0.1,0.2-0.2,0.2-0.3s0-0.2,0-0.3
				c-0.1-0.1-0.2-0.1-0.3-0.1s-0.2,0-0.3-0.1c-0.1,0-0.2-0.1-0.2-0.3c0-0.1,0-0.3,0.1-0.5c0.1-0.3,0.3-0.6,0.5-0.7
				c0.2-0.2,0.5-0.3,0.7-0.3c0.6-0.1,0.8,0.2,0.6,0.8l-0.5,0.1c0.1-0.2,0-0.3-0.3-0.3c-0.2,0-0.3,0.1-0.4,0.3c0,0.1,0,0.2,0.1,0.2
				c0.1,0.1,0.2,0.1,0.4,0.1c0.1,0,0.3,0.1,0.3,0.2c0.1,0.1,0.1,0.3,0,0.6s-0.3,0.6-0.5,0.8s-0.5,0.3-0.8,0.4c-0.1,0-0.2,0-0.2,0
				c-0.1,0-0.2,0-0.2,0c-0.1,0-0.1-0.1-0.2-0.1c0-0.1-0.1-0.2-0.1-0.3s0-0.3,0.1-0.4L46.4,159.9z"/>
		</g>
		<g>
			<path class="st4" d="M33.1,157.6c-1,0.1-2.3,1.3-2.9,2.7l0,0l-0.1,0.3l0,0l0,0l-0.1,0.3l0,0c-0.4,1.4,0,2.4,1,2.2
				c1.1-0.1,2.5-1.5,3.1-3.1C34.6,158.6,34.2,157.5,33.1,157.6z M30.4,162.1l0.4-0.1h0.1l0.2-0.6H31l-0.7,0.1c0-0.2,0-0.4,0.1-0.7
				l0.8-0.1h0.2l0.2-0.6h-0.2l-0.8,0.1c0.1-0.3,0.3-0.5,0.4-0.7l0.7-0.1h0.1l0.2-0.6h-0.1l-0.4,0.1c0.4-0.4,0.9-0.7,1.3-0.8
				c0.4-0.1,0.7,0.1,0.9,0.5l-0.4,0.1h-0.1l-0.2,0.6h0.1l0.7-0.1c0,0.2,0,0.4-0.1,0.7l-0.8,0.1h-0.1l-0.2,0.6h0.1l0.8-0.1
				c-0.1,0.3-0.3,0.5-0.4,0.7l-0.7,0.1h-0.1l-0.2,0.6h0.1h0.4c-0.4,0.4-0.9,0.7-1.4,0.8C30.8,162.6,30.5,162.4,30.4,162.1z"/>
			<path class="st4" d="M32.2,160c-0.2,0-0.4,0.2-0.5,0.5c-0.1,0.2,0,0.4,0.1,0.4c0.2,0,0.4-0.2,0.5-0.5
				C32.4,160.1,32.4,159.9,32.2,160z"/>
		</g>
	</g>
</g>
</svg>
