<?xml version="1.0" encoding="utf-8"?>
<!-- Generator: Adobe Illustrator 24.1.2, SVG Export Plug-In . SVG Version: 6.00 Build 0)  -->
<svg version="1.1" id="Layer_1" xmlns="http://www.w3.org/2000/svg" xmlns:xlink="http://www.w3.org/1999/xlink" x="0px" y="0px"
	 viewBox="0 0 250 175" style="enable-background:new 0 0 250 175;" xml:space="preserve">
<style type="text/css">
	.st0{fill:#F5A623;}
	.st1{fill:#C98A1A;}
	.st2{opacity:0.15;}
	.st3{fill:url(#SVGID_1_);}
	.st4{fill:#FFFFFF;}
	.st5{fill-rule:evenodd;clip-rule:evenodd;fill:#FFFFFF;}
</style>
<g>
	<g>
		<polygon class="st0" points="121.7,92.8 99.8,98.4 97.9,98.9 98.6,96.8 114.1,51.7 114.7,49.9 116.5,49.3 137.1,42.3 142.7,23.9 
			103.2,38.7 70.4,126.3 114.4,117 		"/>
	</g>
	<g>
		<g>
			<polygon class="st1" points="122.5,93.6 100.6,99 98.7,99.5 99.5,97.4 115.3,50.7 137.7,43 143.3,24.5 103.9,38.9 71.1,127 
				115.2,117.9 			"/>
		</g>
	</g>
	<g>
		<g>
			<polygon class="st1" points="122.5,93.6 100.6,99 98.7,99.5 99.5,97.4 115.3,50.7 137.7,43 143.3,24.5 103.9,38.9 71.1,127 
				115.2,117.9 			"/>
		</g>
		<g>
			<polygon class="st1" points="103.9,38.9 71.1,127 115.2,117.9 122.5,93.6 100.6,99 98.7,99.5 99.5,97.4 114.7,52.2 115.3,50.7 
				117,50.1 137.7,43 143.3,24.5 			"/>
		</g>
		<g>
			<polygon class="st1" points="103.9,38.9 71.1,127 115.2,117.9 122.5,93.6 100.6,99 98.7,99.5 99.5,97.4 114.7,52.2 115.3,50.7 
				117,50.1 137.7,43 143.3,24.5 			"/>
		</g>
		<g>
			<polygon class="st1" points="103.9,38.9 71.1,127 115.2,117.9 122.5,93.6 100.6,99 98.7,99.5 99.4,97.3 114.7,52.2 115.2,50.7 
				117,50.1 137.7,42.9 143.3,24.5 			"/>
		</g>
		<g>
			<polygon class="st1" points="103.9,38.9 71.1,126.9 115.2,117.9 122.5,93.6 100.6,99 98.7,99.5 99.4,97.3 114.7,52.2 115.2,50.7 
				117,50 137.7,42.9 143.3,24.5 			"/>
		</g>
		<g>
			<polygon class="st1" points="103.9,38.9 71.1,126.9 115.1,117.9 122.5,93.6 100.6,99 98.7,99.5 99.4,97.3 114.7,52.2 115.2,50.6 
				117,50 137.7,42.9 143.2,24.5 			"/>
		</g>
		<g>
			<polygon class="st1" points="103.9,38.9 71,126.9 115.1,117.8 122.5,93.6 100.6,99 98.7,99.5 99.4,97.3 114.7,52.2 115.2,50.6 
				117,50 137.7,42.9 143.2,24.5 			"/>
		</g>
		<g>
			<polygon class="st1" points="103.9,38.9 71,126.9 115.1,117.8 122.5,93.5 100.6,99 98.7,99.5 99.4,97.3 114.7,52.2 115.2,50.6 
				117,50 137.7,42.9 143.2,24.5 			"/>
		</g>
		<g>
			<polygon class="st1" points="103.9,38.9 71,126.9 115.1,117.8 122.5,93.5 100.6,99 98.7,99.4 99.4,97.3 114.7,52.2 115.2,50.6 
				117,50 137.6,42.9 143.2,24.4 			"/>
		</g>
		<g>
			<polygon class="st1" points="103.9,38.9 71,126.9 115.1,117.8 122.5,93.5 100.6,99 98.7,99.4 99.4,97.3 114.7,52.2 115.2,50.6 
				117,50 137.6,42.9 143.2,24.4 			"/>
		</g>
		<g>
			<polygon class="st1" points="103.9,38.9 71,126.9 115.1,117.8 122.4,93.5 100.5,99 98.7,99.4 99.4,97.3 114.7,52.2 115.2,50.6 
				117,50 137.6,42.9 143.2,24.4 			"/>
		</g>
		<g>
			<polygon class="st1" points="103.8,38.9 71,126.9 115.1,117.8 122.4,93.5 100.5,99 98.7,99.4 99.4,97.3 114.7,52.2 115.2,50.6 
				117,50 137.6,42.9 143.2,24.4 			"/>
		</g>
		<g>
			<polygon class="st1" points="103.8,38.9 71,126.9 115.1,117.8 122.4,93.5 100.5,98.9 98.6,99.4 99.4,97.3 114.7,52.2 115.2,50.6 
				117,50 137.6,42.9 143.2,24.4 			"/>
		</g>
		<g>
			<polygon class="st1" points="103.8,38.9 71,126.9 115.1,117.8 122.4,93.5 100.5,98.9 98.6,99.4 99.4,97.3 114.7,52.2 115.2,50.6 
				117,50 137.6,42.9 143.2,24.4 			"/>
		</g>
		<g>
			<polygon class="st1" points="103.8,38.9 71,126.9 115.1,117.8 122.4,93.5 100.5,98.9 98.6,99.4 99.4,97.3 114.7,52.2 115.2,50.6 
				117,50 137.6,42.9 143.2,24.4 			"/>
		</g>
		<g>
			<polygon class="st1" points="103.8,38.9 71,126.9 115.1,117.8 122.4,93.5 100.5,98.9 98.6,99.4 99.3,97.3 114.6,52.2 115.2,50.6 
				117,50 137.6,42.9 143.2,24.4 			"/>
		</g>
		<g>
			<polygon class="st1" points="103.8,38.9 71,126.9 115.1,117.8 122.4,93.5 100.5,98.9 98.6,99.4 99.3,97.3 114.6,52.2 115.2,50.6 
				116.9,50 137.6,42.9 143.2,24.4 			"/>
		</g>
		<g>
			<polygon class="st1" points="103.8,38.9 71,126.9 115,117.7 122.4,93.5 100.5,98.9 98.6,99.4 99.3,97.3 114.6,52.2 115.2,50.6 
				116.9,50 137.6,42.9 143.2,24.4 			"/>
		</g>
		<g>
			<polygon class="st1" points="103.8,38.9 71,126.8 115,117.7 122.4,93.5 100.5,98.9 98.6,99.4 99.3,97.3 114.6,52.2 115.2,50.6 
				116.9,49.9 137.6,42.8 143.2,24.4 			"/>
		</g>
		<g>
			<polygon class="st1" points="103.8,38.9 71,126.8 115,117.7 122.4,93.4 100.5,98.9 98.6,99.4 99.3,97.3 114.6,52.1 115.2,50.5 
				116.9,49.9 137.6,42.8 143.2,24.4 			"/>
		</g>
		<g>
			<polygon class="st1" points="103.8,38.9 70.9,126.8 115,117.7 122.4,93.4 100.5,98.9 98.6,99.4 99.3,97.2 114.6,52.1 115.2,50.5 
				116.9,49.9 137.6,42.8 143.2,24.4 			"/>
		</g>
		<g>
			<polygon class="st1" points="103.8,38.9 70.9,126.8 115,117.7 122.4,93.4 100.5,98.9 98.6,99.4 99.3,97.2 114.6,52.1 115.2,50.5 
				116.9,49.9 137.6,42.8 143.1,24.4 			"/>
		</g>
		<g>
			<polygon class="st1" points="103.8,38.9 70.9,126.8 115,117.7 122.4,93.4 100.4,98.9 98.6,99.4 99.3,97.2 114.6,52.1 115.1,50.5 
				116.9,49.9 137.6,42.8 143.1,24.4 			"/>
		</g>
		<g>
			<polygon class="st1" points="103.8,38.9 70.9,126.8 115,117.7 122.3,93.4 100.4,98.9 98.6,99.4 99.3,97.2 114.6,52.1 115.1,50.5 
				116.9,49.9 137.6,42.8 143.1,24.4 			"/>
		</g>
		<g>
			<polygon class="st1" points="103.8,38.9 70.9,126.8 115,117.7 122.3,93.4 100.4,98.9 98.5,99.3 99.3,97.2 114.6,52.1 115.1,50.5 
				116.9,49.9 137.5,42.8 143.1,24.4 			"/>
		</g>
		<g>
			<polygon class="st1" points="103.7,38.9 70.9,126.8 115,117.7 122.3,93.4 100.4,98.9 98.5,99.3 99.3,97.2 114.6,52.1 115.1,50.5 
				116.9,49.9 137.5,42.8 143.1,24.3 			"/>
		</g>
		<g>
			<polygon class="st1" points="103.7,38.9 70.9,126.8 115,117.7 122.3,93.4 100.4,98.9 98.5,99.3 99.3,97.2 114.6,52.1 115.1,50.5 
				116.9,49.9 137.5,42.8 143.1,24.3 			"/>
		</g>
		<g>
			<polygon class="st1" points="103.7,38.9 70.9,126.8 115,117.7 122.3,93.4 100.4,98.9 98.5,99.3 99.2,97.2 114.6,52.1 115.1,50.5 
				116.9,49.9 137.5,42.8 143.1,24.3 			"/>
		</g>
		<g>
			<polygon class="st1" points="103.7,38.9 70.9,126.8 115,117.6 122.3,93.4 100.4,98.8 98.5,99.3 99.2,97.2 114.6,52.1 115.1,50.5 
				116.9,49.9 137.5,42.8 143.1,24.3 			"/>
		</g>
		<g>
			<polygon class="st1" points="103.7,38.9 70.9,126.8 115,117.6 122.3,93.4 100.4,98.8 98.5,99.3 99.2,97.2 114.6,52.1 115.1,50.5 
				116.9,49.9 137.5,42.8 143.1,24.3 			"/>
		</g>
		<g>
			<polygon class="st1" points="103.7,38.9 70.9,126.8 114.9,117.6 122.3,93.4 100.4,98.8 98.5,99.3 99.2,97.2 114.6,52.1 
				115.1,50.5 116.9,49.9 137.5,42.8 143.1,24.3 			"/>
		</g>
		<g>
			<polygon class="st1" points="103.7,38.9 70.9,126.8 114.9,117.6 122.3,93.4 100.4,98.8 98.5,99.3 99.2,97.2 114.5,52.1 
				115.1,50.5 116.9,49.8 137.5,42.8 143.1,24.3 			"/>
		</g>
		<g>
			<polygon class="st1" points="103.7,38.8 70.9,126.7 114.9,117.6 122.3,93.3 100.4,98.8 98.5,99.3 99.2,97.2 114.5,52.1 
				115.1,50.4 116.9,49.8 137.5,42.7 143.1,24.3 			"/>
		</g>
		<g>
			<polygon class="st1" points="103.7,38.8 70.9,126.7 114.9,117.6 122.3,93.3 100.4,98.8 98.5,99.3 99.2,97.2 114.5,52.1 
				115.1,50.4 116.9,49.8 137.5,42.7 143.1,24.3 			"/>
		</g>
		<g>
			<polygon class="st1" points="103.7,38.8 70.8,126.7 114.9,117.6 122.3,93.3 100.4,98.8 98.5,99.3 99.2,97.2 114.5,52.1 
				115.1,50.4 116.9,49.8 137.5,42.7 143.1,24.3 			"/>
		</g>
		<g>
			<polygon class="st1" points="103.7,38.8 70.8,126.7 114.9,117.6 122.2,93.3 100.3,98.8 98.5,99.3 99.2,97.2 114.5,52.1 
				115.1,50.4 116.8,49.8 137.5,42.7 143.1,24.3 			"/>
		</g>
		<g>
			<polygon class="st1" points="103.7,38.8 70.8,126.7 114.9,117.6 122.2,93.3 100.3,98.8 98.4,99.3 99.2,97.2 114.5,52.1 
				115.1,50.4 116.8,49.8 137.5,42.7 143.1,24.3 			"/>
		</g>
		<g>
			<polygon class="st1" points="103.7,38.8 70.8,126.7 114.9,117.6 122.2,93.3 100.3,98.8 98.4,99.3 99.2,97.1 114.5,52.1 
				115.1,50.4 116.8,49.8 137.5,42.7 143.1,24.3 			"/>
		</g>
		<g>
			<polygon class="st1" points="103.6,38.8 70.8,126.7 114.9,117.6 122.2,93.3 100.3,98.8 98.4,99.3 99.2,97.1 114.5,52 115.1,50.4 
				116.8,49.8 137.5,42.7 143,24.3 			"/>
		</g>
		<g>
			<polygon class="st1" points="103.6,38.8 70.8,126.7 114.9,117.5 122.2,93.3 100.3,98.8 98.4,99.3 99.2,97.1 114.5,52 115.1,50.4 
				116.8,49.8 137.5,42.7 143,24.3 			"/>
		</g>
		<g>
			<polygon class="st1" points="103.6,38.8 70.8,126.7 114.9,117.5 122.2,93.3 100.3,98.8 98.4,99.3 99.1,97.1 114.5,52 115,50.4 
				116.8,49.8 137.5,42.7 143,24.3 			"/>
		</g>
		<g>
			<polygon class="st1" points="103.6,38.8 70.8,126.7 114.9,117.5 122.2,93.3 100.3,98.8 98.4,99.2 99.1,97.1 114.5,52 115,50.4 
				116.8,49.8 137.4,42.7 143,24.3 			"/>
		</g>
		<g>
			<polygon class="st1" points="103.6,38.8 70.8,126.7 114.9,117.5 122.2,93.3 100.3,98.8 98.4,99.2 99.1,97.1 114.5,52 115,50.4 
				116.8,49.8 137.4,42.7 143,24.2 			"/>
		</g>
		<g>
			<polygon class="st1" points="103.6,38.8 70.8,126.7 114.8,117.5 122.2,93.3 100.3,98.8 98.4,99.2 99.1,97.1 114.5,52 115,50.4 
				116.8,49.8 137.4,42.7 143,24.2 			"/>
		</g>
		<g>
			<polygon class="st1" points="103.6,38.8 70.8,126.7 114.8,117.5 122.2,93.3 100.3,98.7 98.4,99.2 99.1,97.1 114.5,52 115,50.4 
				116.8,49.8 137.4,42.7 143,24.2 			"/>
		</g>
		<g>
			<polygon class="st1" points="103.6,38.8 70.8,126.7 114.8,117.5 122.2,93.2 100.3,98.7 98.4,99.2 99.1,97.1 114.5,52 115,50.4 
				116.8,49.7 137.4,42.7 143,24.2 			"/>
		</g>
		<g>
			<polygon class="st1" points="103.6,38.8 70.8,126.6 114.8,117.5 122.2,93.2 100.3,98.7 98.4,99.2 99.1,97.1 114.5,52 115,50.3 
				116.8,49.7 137.4,42.7 143,24.2 			"/>
		</g>
		<g>
			<polygon class="st1" points="103.6,38.8 70.8,126.6 114.8,117.5 122.2,93.2 100.2,98.7 98.4,99.2 99.1,97.1 114.4,52 115,50.3 
				116.8,49.7 137.4,42.6 143,24.2 			"/>
		</g>
		<g>
			<polygon class="st1" points="103.6,38.8 70.7,126.6 114.8,117.5 122.1,93.2 100.2,98.7 98.3,99.2 99.1,97.1 114.4,52 115,50.3 
				116.8,49.7 137.4,42.6 143,24.2 			"/>
		</g>
		<g>
			<polygon class="st1" points="103.6,38.8 70.7,126.6 114.8,117.5 122.1,93.2 100.2,98.7 98.3,99.2 99.1,97.1 114.4,52 115,50.3 
				116.8,49.7 137.4,42.6 143,24.2 			"/>
		</g>
		<g>
			<polygon class="st1" points="103.6,38.8 70.7,126.6 114.8,117.4 122.1,93.2 100.2,98.7 98.3,99.2 99.1,97.1 114.4,52 115,50.3 
				116.8,49.7 137.4,42.6 143,24.2 			"/>
		</g>
		<g>
			<polygon class="st1" points="103.5,38.8 70.7,126.6 114.8,117.4 122.1,93.2 100.2,98.7 98.3,99.2 99.1,97.1 114.4,52 115,50.3 
				116.8,49.7 137.4,42.6 143,24.2 			"/>
		</g>
		<g>
			<polygon class="st1" points="103.5,38.8 70.7,126.6 114.8,117.4 122.1,93.2 100.2,98.7 98.3,99.2 99,97.1 114.4,52 115,50.3 
				116.8,49.7 137.4,42.6 143,24.2 			"/>
		</g>
		<g>
			<polygon class="st1" points="103.5,38.8 70.7,126.6 114.8,117.4 122.1,93.2 100.2,98.7 98.3,99.2 99,97.1 114.4,52 115,50.3 
				116.7,49.7 137.4,42.6 143,24.2 			"/>
		</g>
		<g>
			<polygon class="st1" points="103.5,38.8 70.7,126.6 114.8,117.4 122.1,93.2 100.2,98.7 98.3,99.2 99,97 114.4,52 115,50.3 
				116.7,49.7 137.4,42.6 143,24.2 			"/>
		</g>
		<g>
			<polygon class="st1" points="103.5,38.8 70.7,126.6 114.7,117.4 122.1,93.2 100.2,98.7 98.3,99.2 99,97 114.4,52 115,50.3 
				116.7,49.7 137.4,42.6 142.9,24.2 			"/>
		</g>
		<g>
			<polygon class="st1" points="103.5,38.8 70.7,126.6 114.7,117.4 122.1,93.2 100.2,98.7 98.3,99.2 99,97 114.4,52 115,50.3 
				116.7,49.7 137.4,42.6 142.9,24.2 			"/>
		</g>
		<g>
			<polygon class="st1" points="103.5,38.8 70.7,126.6 114.7,117.4 122.1,93.2 100.2,98.7 98.3,99.1 99,97 114.4,51.9 115,50.3 
				116.7,49.7 137.3,42.6 142.9,24.2 			"/>
		</g>
		<g>
			<polygon class="st1" points="103.5,38.8 70.7,126.6 114.7,117.4 122.1,93.1 100.2,98.7 98.3,99.1 99,97 114.4,51.9 115,50.3 
				116.7,49.7 137.3,42.6 142.9,24.1 			"/>
		</g>
		<g>
			<polygon class="st1" points="103.5,38.8 70.7,126.6 114.7,117.4 122.1,93.1 100.1,98.7 98.3,99.1 99,97 114.4,51.9 114.9,50.3 
				116.7,49.6 137.3,42.6 142.9,24.1 			"/>
		</g>
		<g>
			<polygon class="st1" points="103.5,38.8 70.7,126.5 114.7,117.4 122,93.1 100.1,98.7 98.3,99.1 99,97 114.4,51.9 114.9,50.2 
				116.7,49.6 137.3,42.6 142.9,24.1 			"/>
		</g>
		<g>
			<polygon class="st1" points="103.5,38.8 70.7,126.5 114.7,117.3 122,93.1 100.1,98.6 98.2,99.1 99,97 114.4,51.9 114.9,50.2 
				116.7,49.6 137.3,42.5 142.9,24.1 			"/>
		</g>
		<g>
			<polygon class="st1" points="103.5,38.8 70.6,126.5 114.7,117.3 122,93.1 100.1,98.6 98.2,99.1 99,97 114.4,51.9 114.9,50.2 
				116.7,49.6 137.3,42.5 142.9,24.1 			"/>
		</g>
		<g>
			<polygon class="st1" points="103.5,38.8 70.6,126.5 114.7,117.3 122,93.1 100.1,98.6 98.2,99.1 99,97 114.3,51.9 114.9,50.2 
				116.7,49.6 137.3,42.5 142.9,24.1 			"/>
		</g>
		<g>
			<polygon class="st1" points="103.5,38.8 70.6,126.5 114.7,117.3 122,93.1 100.1,98.6 98.2,99.1 98.9,97 114.3,51.9 114.9,50.2 
				116.7,49.6 137.3,42.5 142.9,24.1 			"/>
		</g>
		<g>
			<polygon class="st1" points="103.4,38.8 70.6,126.5 114.7,117.3 122,93.1 100.1,98.6 98.2,99.1 98.9,97 114.3,51.9 114.9,50.2 
				116.7,49.6 137.3,42.5 142.9,24.1 			"/>
		</g>
		<g>
			<polygon class="st1" points="103.4,38.8 70.6,126.5 114.7,117.3 122,93.1 100.1,98.6 98.2,99.1 98.9,97 114.3,51.9 114.9,50.2 
				116.7,49.6 137.3,42.5 142.9,24.1 			"/>
		</g>
		<g>
			<polygon class="st1" points="103.4,38.8 70.6,126.5 114.7,117.3 122,93.1 100.1,98.6 98.2,99.1 98.9,97 114.3,51.9 114.9,50.2 
				116.7,49.6 137.3,42.5 142.9,24.1 			"/>
		</g>
		<g>
			<polygon class="st1" points="103.4,38.7 70.6,126.5 114.6,117.3 122,93.1 100.1,98.6 98.2,99.1 98.9,97 114.3,51.9 114.9,50.2 
				116.7,49.6 137.3,42.5 142.9,24.1 			"/>
		</g>
		<g>
			<polygon class="st1" points="103.4,38.7 70.6,126.5 114.6,117.3 122,93.1 100.1,98.6 98.2,99.1 98.9,97 114.3,51.9 114.9,50.2 
				116.7,49.6 137.3,42.5 142.9,24.1 			"/>
		</g>
		<g>
			<polygon class="st1" points="103.4,38.7 70.6,126.5 114.6,117.3 122,93.1 100.1,98.6 98.2,99.1 98.9,96.9 114.3,51.9 114.9,50.2 
				116.7,49.6 137.3,42.5 142.9,24.1 			"/>
		</g>
		<g>
			<polygon class="st1" points="103.4,38.7 70.6,126.5 114.6,117.3 122,93 100,98.6 98.2,99.1 98.9,96.9 114.3,51.9 114.9,50.2 
				116.7,49.6 137.3,42.5 142.8,24.1 			"/>
		</g>
		<g>
			<polygon class="st1" points="103.4,38.7 70.6,126.5 114.6,117.2 122,93 100,98.6 98.2,99.1 98.9,96.9 114.3,51.9 114.9,50.2 
				116.6,49.5 137.3,42.5 142.8,24.1 			"/>
		</g>
		<g>
			<polygon class="st1" points="103.4,38.7 70.6,126.5 114.6,117.2 121.9,93 100,98.6 98.1,99.1 98.9,96.9 114.3,51.9 114.9,50.1 
				116.6,49.5 137.3,42.5 142.8,24.1 			"/>
		</g>
		<g>
			<polygon class="st1" points="103.4,38.7 70.6,126.4 114.6,117.2 121.9,93 100,98.6 98.1,99 98.9,96.9 114.3,51.9 114.9,50.1 
				116.6,49.5 137.2,42.5 142.8,24.1 			"/>
		</g>
		<g>
			<polygon class="st1" points="103.4,38.7 70.6,126.4 114.6,117.2 121.9,93 100,98.6 98.1,99 98.9,96.9 114.3,51.9 114.9,50.1 
				116.6,49.5 137.2,42.5 142.8,24 			"/>
		</g>
		<g>
			<polygon class="st1" points="103.4,38.7 70.5,126.4 114.6,117.2 121.9,93 100,98.6 98.1,99 98.8,96.9 114.3,51.8 114.9,50.1 
				116.6,49.5 137.2,42.4 142.8,24 			"/>
		</g>
		<g>
			<polygon class="st1" points="103.4,38.7 70.5,126.4 114.6,117.2 121.9,93 100,98.5 98.1,99 98.8,96.9 114.3,51.8 114.8,50.1 
				116.6,49.5 137.2,42.4 142.8,24 			"/>
		</g>
		<g>
			<polygon class="st1" points="103.3,38.7 70.5,126.4 114.6,117.2 121.9,93 100,98.5 98.1,99 98.8,96.9 114.3,51.8 114.8,50.1 
				116.6,49.5 137.2,42.4 142.8,24 			"/>
		</g>
		<g>
			<polygon class="st1" points="103.3,38.7 70.5,126.4 114.6,117.2 121.9,93 100,98.5 98.1,99 98.8,96.9 114.2,51.8 114.8,50.1 
				116.6,49.5 137.2,42.4 142.8,24 			"/>
		</g>
		<g>
			<polygon class="st1" points="103.3,38.7 70.5,126.4 114.5,117.2 121.9,93 100,98.5 98.1,99 98.8,96.9 114.2,51.8 114.8,50.1 
				116.6,49.5 137.2,42.4 142.8,24 			"/>
		</g>
		<g>
			<polygon class="st1" points="103.3,38.7 70.5,126.4 114.5,117.2 121.9,93 100,98.5 98.1,99 98.8,96.9 114.2,51.8 114.8,50.1 
				116.6,49.5 137.2,42.4 142.8,24 			"/>
		</g>
		<g>
			<polygon class="st1" points="103.3,38.7 70.5,126.4 114.5,117.1 121.9,93 100,98.5 98.1,99 98.8,96.9 114.2,51.8 114.8,50.1 
				116.6,49.5 137.2,42.4 142.8,24 			"/>
		</g>
		<g>
			<polygon class="st1" points="103.3,38.7 70.5,126.4 114.5,117.1 121.9,93 99.9,98.5 98.1,99 98.8,96.9 114.2,51.8 114.8,50.1 
				116.6,49.5 137.2,42.4 142.8,24 			"/>
		</g>
		<g>
			<polygon class="st1" points="103.3,38.7 70.5,126.4 114.5,117.1 121.9,92.9 99.9,98.5 98.1,99 98.8,96.9 114.2,51.8 114.8,50.1 
				116.6,49.5 137.2,42.4 142.8,24 			"/>
		</g>
		<g>
			<polygon class="st1" points="103.3,38.7 70.5,126.4 114.5,117.1 121.9,92.9 99.9,98.5 98,99 98.8,96.9 114.2,51.8 114.8,50.1 
				116.6,49.5 137.2,42.4 142.8,24 			"/>
		</g>
		<g>
			<polygon class="st1" points="103.3,38.7 70.5,126.4 114.5,117.1 121.8,92.9 99.9,98.5 98,99 98.8,96.9 114.2,51.8 114.8,50.1 
				116.6,49.4 137.2,42.4 142.8,24 			"/>
		</g>
		<g>
			<polygon class="st1" points="103.3,38.7 70.5,126.4 114.5,117.1 121.8,92.9 99.9,98.5 98,99 98.8,96.8 114.2,51.8 114.8,50 
				116.6,49.4 137.2,42.4 142.8,24 			"/>
		</g>
		<g>
			<polygon class="st1" points="103.3,38.7 70.5,126.3 114.5,117.1 121.8,92.9 99.9,98.5 98,99 98.7,96.8 114.2,51.8 114.8,50 
				116.6,49.4 137.2,42.4 142.7,24 			"/>
		</g>
		<g>
			<polygon class="st1" points="103.3,38.7 70.5,126.3 114.5,117.1 121.8,92.9 99.9,98.5 98,99 98.7,96.8 114.2,51.8 114.8,50 
				116.6,49.4 137.2,42.4 142.7,24 			"/>
		</g>
		<g>
			<polygon class="st1" points="103.3,38.7 70.4,126.3 114.5,117.1 121.8,92.9 99.9,98.5 98,98.9 98.7,96.8 114.2,51.8 114.8,50 
				116.6,49.4 137.1,42.3 142.7,24 			"/>
		</g>
		<g>
			<polygon class="st1" points="103.2,38.7 70.4,126.3 114.5,117.1 121.8,92.9 99.9,98.5 98,98.9 98.7,96.8 114.2,51.8 114.8,50 
				116.5,49.4 137.1,42.3 142.7,24 			"/>
		</g>
		<g>
			<polygon class="st1" points="103.2,38.7 70.4,126.3 114.5,117.1 121.8,92.9 99.9,98.5 98,98.9 98.7,96.8 114.2,51.8 114.8,50 
				116.5,49.4 137.1,42.3 142.7,23.9 			"/>
		</g>
		<g>
			<polygon class="st1" points="103.2,38.7 70.4,126.3 114.4,117 121.8,92.9 99.9,98.5 98,98.9 98.7,96.8 114.2,51.8 114.8,50 
				116.5,49.4 137.1,42.3 142.7,23.9 			"/>
		</g>
		<g>
			<polygon class="st1" points="103.2,38.7 70.4,126.3 114.4,117 121.8,92.9 99.9,98.4 98,98.9 98.7,96.8 114.2,51.8 114.8,50 
				116.5,49.4 137.1,42.3 142.7,23.9 			"/>
		</g>
		<g>
			<polygon class="st1" points="103.2,38.7 70.4,126.3 114.4,117 121.8,92.9 99.8,98.4 98,98.9 98.7,96.8 114.1,51.7 114.8,50 
				116.5,49.4 137.1,42.3 142.7,23.9 			"/>
		</g>
		<g>
			<polygon class="st1" points="103.2,38.7 70.4,126.3 114.4,117 121.8,92.9 99.8,98.4 98,98.9 98.7,96.8 114.1,51.7 114.7,50 
				116.5,49.4 137.1,42.3 142.7,23.9 			"/>
		</g>
		<g>
			<polygon class="st1" points="103.2,38.7 70.4,126.3 114.4,117 121.8,92.8 99.8,98.4 97.9,98.9 98.7,96.8 114.1,51.7 114.7,50 
				116.5,49.4 137.1,42.3 142.7,23.9 			"/>
		</g>
		<g>
			<polygon class="st1" points="103.2,38.7 70.4,126.3 114.4,117 121.7,92.8 99.8,98.4 97.9,98.9 98.7,96.8 114.1,51.7 114.7,50 
				116.5,49.4 137.1,42.3 142.7,23.9 			"/>
		</g>
		<g>
			<polygon class="st1" points="103.2,38.7 70.4,126.3 114.4,117 121.7,92.8 99.8,98.4 97.9,98.9 98.7,96.8 114.1,51.7 114.7,50 
				116.5,49.4 137.1,42.3 142.7,23.9 			"/>
		</g>
		<g>
			<polygon class="st1" points="103.2,38.7 70.4,126.3 114.4,117 121.7,92.8 99.8,98.4 97.9,98.9 98.6,96.8 114.1,51.7 114.7,50 
				116.5,49.3 137.1,42.3 142.7,23.9 			"/>
		</g>
		<g>
			<polygon class="st1" points="121.7,92.8 99.8,98.4 97.9,98.9 98.6,96.8 114.1,51.7 114.7,49.9 116.5,49.3 137.1,42.3 142.7,23.9 
				103.2,38.7 70.4,126.3 114.4,117 			"/>
		</g>
	</g>
	<g>
		<polygon class="st0" points="121.7,92.8 99.8,98.4 97.9,98.9 98.6,96.8 114.1,51.7 114.7,49.9 116.5,49.3 137.1,42.3 142.7,23.9 
			103.2,38.7 70.4,126.3 114.4,117 		"/>
	</g>
	<g class="st2">
		
			<radialGradient id="SVGID_1_" cx="143.6897" cy="-90.2258" r="49.0733" gradientTransform="matrix(0.7071 -0.7071 0.7071 0.7071 71.2457 243.0016)" gradientUnits="userSpaceOnUse">
			<stop  offset="0" style="stop-color:#FFFFFF"/>
			<stop  offset="1" style="stop-color:#000000"/>
		</radialGradient>
		<polygon class="st3" points="121.7,92.8 99.8,98.4 97.9,98.9 98.6,96.8 114.1,51.7 114.7,49.9 116.5,49.3 137.1,42.3 142.7,23.9 
			103.2,38.7 70.4,126.3 114.4,117 		"/>
	</g>
	<g>
		<g>
			<path class="st4" d="M83.5,119.3l-0.7,0.1l1.4-4.5l0.7-0.1l-0.6,1.8l2-0.4l0.6-1.8l0.7-0.1l-1.4,4.5l-0.7,0.1l0.6-2l-2,0.4
				L83.5,119.3z"/>
			<path class="st4" d="M90.6,115.1l-3.3,5.1l-0.6,0.1l1.3-2l-0.3-2.6l0.7-0.1l0.2,1.8l1.4-2.2L90.6,115.1L90.6,115.1z"/>
			<path class="st4" d="M93.4,114.8c0.1,0.2,0.1,0.6,0,1.1s-0.4,0.9-0.7,1.2c-0.3,0.3-0.7,0.5-1,0.6s-0.5,0-0.7-0.1l-0.6,2l-0.7,0.1
				l1.5-4.8l0.7-0.1l-0.1,0.3c0.3-0.3,0.6-0.5,1-0.6C93,114.5,93.2,114.6,93.4,114.8z M92.3,116.8c0.2-0.2,0.3-0.4,0.4-0.7
				c0.1-0.3,0.1-0.5,0-0.6s-0.2-0.2-0.5-0.1c-0.2,0-0.5,0.2-0.7,0.4l-0.4,1.4c0.1,0.1,0.3,0.2,0.5,0.1
				C91.9,117.1,92.1,117,92.3,116.8z"/>
			<path class="st4" d="M94.5,115.9c0,0.2,0,0.4,0.1,0.5s0.3,0.1,0.5,0.1c0.3-0.1,0.6-0.3,0.9-0.6l0.5,0.1c-0.4,0.6-1,0.9-1.6,1.1
				c-0.4,0.1-0.8,0-0.9-0.2c-0.2-0.2-0.2-0.6,0-1.1c0.1-0.5,0.4-0.9,0.7-1.2c0.4-0.4,0.7-0.6,1.2-0.7c0.2,0,0.4-0.1,0.5,0
				c0.1,0,0.3,0.1,0.4,0.2s0.2,0.3,0.2,0.5s0,0.5-0.1,0.8L94.5,115.9L94.5,115.9z M96.1,115c0-0.4-0.1-0.6-0.5-0.5
				c-0.2,0-0.4,0.1-0.5,0.3c-0.2,0.1-0.3,0.3-0.4,0.5L96.1,115z"/>
			<path class="st4" d="M99.3,113.9c-0.4,0.1-0.7,0.2-0.9,0.4l-0.6,2.1l-0.7,0.1l0.9-3l0.7-0.1l-0.1,0.4c0.3-0.4,0.7-0.6,1-0.6
				L99.3,113.9z"/>
		</g>
		<g>
			<path class="st5" d="M81.6,116.1l0.2-0.1l0.2-0.2l-0.1-0.4l-0.2,0.2l-0.4,0.3c-0.3-0.2-0.6-0.2-1-0.1c-1.2,0.3-2.6,1.6-3.1,3.1
				c0,0,0,0,0,0.1l-1.5,1.1l-0.2,0.2l0.1,0.4l0.2-0.2l1.3-0.9c0,0.1,0,0.3,0,0.4l0,0l-1.7,1.2l-0.2,0.2l0.1,0.4l0.2-0.2l1.7-1.2
				c0,0.1,0.1,0.2,0.1,0.3l-0.1,0.1L77,121l0,0l-0.2,0.2l-1.7,1.2l-0.2,0.2L75,123l0.2-0.2l1.7-1.2l0.2-0.2l0,0l0.2-0.2l0.3-0.2
				c0.3,0.2,0.6,0.2,1,0.2c1.3-0.2,2.7-1.7,3.1-3.1C81.9,117.1,81.9,116.5,81.6,116.1z M78.8,120.4c-0.2,0-0.5,0-0.6,0l0.8-0.5
				l0.2-0.2l-0.1-0.4l-0.2,0.2l-1,0.7c-0.1-0.1-0.1-0.2-0.2-0.3l1.3-1c-0.1-0.1-0.1-0.2-0.1-0.4l-1.4,1c0-0.2,0-0.5,0.1-0.8
				c0.4-1.2,1.5-2.2,2.4-2.4c0.2,0,0.4,0,0.6,0l-0.7,0.5l-0.2,0.2l0.1,0.4l0.2-0.2l1-0.7c0.1,0.1,0.1,0.2,0.2,0.3l-1.4,1
				c0.1,0.1,0.1,0.2,0.1,0.4l1.4-1c0,0.2,0,0.5-0.1,0.8C80.8,119.1,79.7,120.2,78.8,120.4z"/>
			<path class="st5" d="M74.9,120.5c-0.2,0-0.4,0.2-0.5,0.5c-0.1,0.2,0,0.4,0.2,0.3c0.2,0,0.4-0.2,0.5-0.5
				C75.2,120.6,75.1,120.4,74.9,120.5z"/>
			<path class="st5" d="M74.2,122.8c-0.2,0-0.4,0.2-0.5,0.5c-0.1,0.2,0,0.4,0.2,0.3c0.2,0,0.4-0.2,0.5-0.5
				C74.4,122.9,74.3,122.7,74.2,122.8z"/>
			<path class="st5" d="M79.6,117.9c-0.2,0-0.4,0.2-0.5,0.5c-0.1,0.2,0,0.4,0.2,0.3c0.2,0,0.4-0.2,0.5-0.5
				C79.8,118,79.8,117.9,79.6,117.9z"/>
		</g>
	</g>
</g>
</svg>
