<?xml version="1.0" encoding="utf-8"?>
<!-- Generator: Adobe Illustrator 24.1.2, SVG Export Plug-In . SVG Version: 6.00 Build 0)  -->
<svg version="1.1" id="Layer_1" xmlns="http://www.w3.org/2000/svg" xmlns:xlink="http://www.w3.org/1999/xlink" x="0px" y="0px"
	 viewBox="0 0 250 175" style="enable-background:new 0 0 250 175;" xml:space="preserve">
<style type="text/css">
	.st0{fill:#7BA844;}
	.st1{fill:#95CA51;}
	.st2{opacity:0.15;}
	.st3{fill:url(#SVGID_1_);}
	.st4{fill:#FFFFFF;}
	.st5{fill-rule:evenodd;clip-rule:evenodd;fill:#FFFFFF;}
	.st6{fill:url(#SVGID_2_);}
</style>
<g>
	<g>
		<g>
			<polygon class="st0" points="149,84.4 100.8,96.8 116.2,51.5 161.4,36.2 			"/>
		</g>
		<g>
			<polygon class="st0" points="148.9,84.4 100.8,96.8 116.2,51.5 161.4,36.2 			"/>
		</g>
		<g>
			<polygon class="st0" points="148.9,84.4 100.8,96.8 116.2,51.5 161.4,36.2 			"/>
		</g>
		<g>
			<polygon class="st0" points="148.9,84.4 100.8,96.8 116.1,51.5 161.4,36.2 			"/>
		</g>
		<g>
			<polygon class="st0" points="148.9,84.4 100.8,96.8 116.1,51.5 161.4,36.2 			"/>
		</g>
		<g>
			<polygon class="st0" points="148.9,84.4 100.8,96.8 116.1,51.5 161.4,36.2 			"/>
		</g>
		<g>
			<polygon class="st0" points="148.9,84.4 100.7,96.8 116.1,51.5 161.4,36.2 			"/>
		</g>
		<g>
			<polygon class="st0" points="148.9,84.4 100.7,96.8 116.1,51.5 161.4,36.2 			"/>
		</g>
		<g>
			<polygon class="st0" points="148.9,84.4 100.7,96.8 116.1,51.5 161.4,36.2 			"/>
		</g>
		<g>
			<polygon class="st0" points="148.9,84.4 100.7,96.8 116.1,51.5 161.4,36.2 			"/>
		</g>
		<g>
			<polygon class="st0" points="148.9,84.4 100.7,96.8 116.1,51.5 161.4,36.2 			"/>
		</g>
		<g>
			<polygon class="st0" points="148.9,84.4 100.7,96.8 116.1,51.5 161.3,36.2 			"/>
		</g>
		<g>
			<polygon class="st0" points="148.9,84.4 100.7,96.8 116.1,51.5 161.3,36.2 			"/>
		</g>
		<g>
			<polygon class="st0" points="148.9,84.4 100.7,96.8 116.1,51.5 161.3,36.2 			"/>
		</g>
		<g>
			<polygon class="st0" points="148.9,84.4 100.7,96.8 116.1,51.5 161.3,36.1 			"/>
		</g>
		<g>
			<polygon class="st0" points="148.9,84.4 100.7,96.8 116.1,51.5 161.3,36.1 			"/>
		</g>
		<g>
			<polygon class="st0" points="148.8,84.4 100.7,96.8 116.1,51.5 161.3,36.1 			"/>
		</g>
		<g>
			<polygon class="st0" points="148.8,84.3 100.7,96.8 116.1,51.5 161.3,36.1 			"/>
		</g>
		<g>
			<polygon class="st0" points="148.8,84.3 100.7,96.7 116.1,51.5 161.3,36.1 			"/>
		</g>
		<g>
			<polygon class="st0" points="148.8,84.3 100.7,96.7 116.1,51.5 161.3,36.1 			"/>
		</g>
		<g>
			<polygon class="st0" points="148.8,84.3 100.7,96.7 116.1,51.5 161.3,36.1 			"/>
		</g>
		<g>
			<polygon class="st0" points="148.8,84.3 100.7,96.7 116.1,51.5 161.3,36.1 			"/>
		</g>
		<g>
			<polygon class="st0" points="148.8,84.3 100.7,96.7 116.1,51.5 161.3,36.1 			"/>
		</g>
		<g>
			<polygon class="st0" points="148.8,84.3 100.7,96.7 116.1,51.5 161.3,36.1 			"/>
		</g>
		<g>
			<polygon class="st0" points="148.8,84.3 100.7,96.7 116,51.4 161.3,36.1 			"/>
		</g>
		<g>
			<polygon class="st0" points="148.8,84.3 100.7,96.7 116,51.4 161.3,36.1 			"/>
		</g>
		<g>
			<polygon class="st0" points="148.8,84.3 100.6,96.7 116,51.4 161.2,36.1 			"/>
		</g>
		<g>
			<polygon class="st0" points="148.8,84.3 100.6,96.7 116,51.4 161.2,36.1 			"/>
		</g>
		<g>
			<polygon class="st0" points="148.8,84.3 100.6,96.7 116,51.4 161.2,36.1 			"/>
		</g>
		<g>
			<polygon class="st0" points="148.8,84.3 100.6,96.7 116,51.4 161.2,36.1 			"/>
		</g>
		<g>
			<polygon class="st0" points="148.8,84.3 100.6,96.7 116,51.4 161.2,36.1 			"/>
		</g>
		<g>
			<polygon class="st0" points="148.7,84.3 100.6,96.7 116,51.4 161.2,36.1 			"/>
		</g>
		<g>
			<polygon class="st0" points="148.7,84.3 100.6,96.7 116,51.4 161.2,36.1 			"/>
		</g>
		<g>
			<polygon class="st0" points="148.7,84.3 100.6,96.7 116,51.4 161.2,36.1 			"/>
		</g>
		<g>
			<polygon class="st0" points="148.7,84.3 100.6,96.7 116,51.4 161.2,36.1 			"/>
		</g>
		<g>
			<polygon class="st0" points="148.7,84.3 100.6,96.7 116,51.4 161.2,36.1 			"/>
		</g>
		<g>
			<polygon class="st0" points="148.7,84.3 100.6,96.7 116,51.4 161.2,36.1 			"/>
		</g>
		<g>
			<polygon class="st0" points="148.7,84.2 100.6,96.7 116,51.4 161.2,36.1 			"/>
		</g>
		<g>
			<polygon class="st0" points="148.7,84.2 100.6,96.6 116,51.4 161.2,36.1 			"/>
		</g>
		<g>
			<polygon class="st0" points="148.7,84.2 100.6,96.6 116,51.4 161.2,36.1 			"/>
		</g>
		<g>
			<polygon class="st0" points="148.7,84.2 100.6,96.6 116,51.4 161.2,36.1 			"/>
		</g>
		<g>
			<polygon class="st0" points="148.7,84.2 100.6,96.6 116,51.4 161.2,36.1 			"/>
		</g>
		<g>
			<polygon class="st0" points="148.7,84.2 100.6,96.6 116,51.4 161.1,36.1 			"/>
		</g>
		<g>
			<polygon class="st0" points="148.7,84.2 100.6,96.6 116,51.4 161.1,36.1 			"/>
		</g>
		<g>
			<polygon class="st0" points="148.7,84.2 100.6,96.6 115.9,51.4 161.1,36 			"/>
		</g>
		<g>
			<polygon class="st0" points="148.7,84.2 100.6,96.6 115.9,51.4 161.1,36 			"/>
		</g>
		<g>
			<polygon class="st0" points="148.6,84.2 100.6,96.6 115.9,51.4 161.1,36 			"/>
		</g>
		<g>
			<polygon class="st0" points="148.6,84.2 100.5,96.6 115.9,51.4 161.1,36 			"/>
		</g>
		<g>
			<polygon class="st0" points="148.6,84.2 100.5,96.6 115.9,51.4 161.1,36 			"/>
		</g>
		<g>
			<polygon class="st0" points="148.6,84.2 100.5,96.6 115.9,51.4 161.1,36 			"/>
		</g>
		<g>
			<polygon class="st0" points="148.6,84.2 100.5,96.6 115.9,51.4 161.1,36 			"/>
		</g>
		<g>
			<polygon class="st0" points="148.6,84.2 100.5,96.6 115.9,51.4 161.1,36 			"/>
		</g>
		<g>
			<polygon class="st0" points="148.6,84.2 100.5,96.6 115.9,51.4 161.1,36 			"/>
		</g>
		<g>
			<polygon class="st0" points="148.6,84.2 100.5,96.6 115.9,51.4 161.1,36 			"/>
		</g>
		<g>
			<polygon class="st0" points="148.6,84.2 100.5,96.6 115.9,51.3 161.1,36 			"/>
		</g>
		<g>
			<polygon class="st0" points="148.6,84.2 100.5,96.6 115.9,51.3 161.1,36 			"/>
		</g>
		<g>
			<polygon class="st0" points="148.6,84.1 100.5,96.6 115.9,51.3 161.1,36 			"/>
		</g>
		<g>
			<polygon class="st0" points="148.6,84.1 100.5,96.6 115.9,51.3 161,36 			"/>
		</g>
		<g>
			<polygon class="st0" points="148.6,84.1 100.5,96.6 115.9,51.3 161,36 			"/>
		</g>
		<g>
			<polygon class="st0" points="148.6,84.1 100.5,96.5 115.9,51.3 161,36 			"/>
		</g>
		<g>
			<polygon class="st0" points="148.6,84.1 100.5,96.5 115.9,51.3 161,36 			"/>
		</g>
		<g>
			<polygon class="st0" points="148.5,84.1 100.5,96.5 115.9,51.3 161,36 			"/>
		</g>
		<g>
			<polygon class="st0" points="148.5,84.1 100.5,96.5 115.9,51.3 161,36 			"/>
		</g>
		<g>
			<polygon class="st0" points="148.5,84.1 100.5,96.5 115.9,51.3 161,36 			"/>
		</g>
		<g>
			<polygon class="st0" points="148.5,84.1 100.5,96.5 115.8,51.3 161,36 			"/>
		</g>
		<g>
			<polygon class="st0" points="148.5,84.1 100.5,96.5 115.8,51.3 161,36 			"/>
		</g>
		<g>
			<polygon class="st0" points="148.5,84.1 100.5,96.5 115.8,51.3 161,36 			"/>
		</g>
		<g>
			<polygon class="st0" points="148.5,84.1 100.4,96.5 115.8,51.3 161,36 			"/>
		</g>
		<g>
			<polygon class="st0" points="148.5,84.1 100.4,96.5 115.8,51.3 161,36 			"/>
		</g>
		<g>
			<polygon class="st0" points="148.5,84.1 100.4,96.5 115.8,51.3 161,36 			"/>
		</g>
		<g>
			<polygon class="st0" points="148.5,84.1 100.4,96.5 115.8,51.3 161,36 			"/>
		</g>
		<g>
			<polygon class="st0" points="148.5,84.1 100.4,96.5 115.8,51.3 161,36 			"/>
		</g>
		<g>
			<polygon class="st0" points="148.5,84.1 100.4,96.5 115.8,51.3 161,36 			"/>
		</g>
		<g>
			<polygon class="st0" points="148.5,84.1 100.4,96.5 115.8,51.3 160.9,36 			"/>
		</g>
		<g>
			<polygon class="st0" points="148.5,84.1 100.4,96.5 115.8,51.3 160.9,35.9 			"/>
		</g>
		<g>
			<polygon class="st0" points="148.5,84.1 100.4,96.5 115.8,51.3 160.9,35.9 			"/>
		</g>
		<g>
			<polygon class="st0" points="148.4,84 100.4,96.5 115.8,51.3 160.9,35.9 			"/>
		</g>
		<g>
			<polygon class="st0" points="148.4,84 100.4,96.5 115.8,51.3 160.9,35.9 			"/>
		</g>
		<g>
			<polygon class="st0" points="148.4,84 100.4,96.5 115.8,51.3 160.9,35.9 			"/>
		</g>
		<g>
			<polygon class="st0" points="148.4,84 100.4,96.4 115.8,51.3 160.9,35.9 			"/>
		</g>
		<g>
			<polygon class="st0" points="148.4,84 100.4,96.4 115.8,51.3 160.9,35.9 			"/>
		</g>
		<g>
			<polygon class="st0" points="148.4,84 100.4,96.4 115.8,51.3 160.9,35.9 			"/>
		</g>
		<g>
			<polygon class="st0" points="148.4,84 100.4,96.4 115.8,51.3 160.9,35.9 			"/>
		</g>
		<g>
			<polygon class="st0" points="148.4,84 100.4,96.4 115.8,51.3 160.9,35.9 			"/>
		</g>
		<g>
			<polygon class="st0" points="148.4,84 100.4,96.4 115.7,51.2 160.9,35.9 			"/>
		</g>
		<g>
			<polygon class="st0" points="148.4,84 100.4,96.4 115.7,51.2 160.9,35.9 			"/>
		</g>
		<g>
			<polygon class="st0" points="148.4,84 100.4,96.4 115.7,51.2 160.9,35.9 			"/>
		</g>
		<g>
			<polygon class="st0" points="148.4,84 100.3,96.4 115.7,51.2 160.9,35.9 			"/>
		</g>
		<g>
			<polygon class="st0" points="148.4,84 100.3,96.4 115.7,51.2 160.8,35.9 			"/>
		</g>
		<g>
			<polygon class="st0" points="148.4,84 100.3,96.4 115.7,51.2 160.8,35.9 			"/>
		</g>
		<g>
			<polygon class="st0" points="148.3,84 100.3,96.4 115.7,51.2 160.8,35.9 			"/>
		</g>
		<g>
			<polygon class="st0" points="148.3,84 100.3,96.4 115.7,51.2 160.8,35.9 			"/>
		</g>
		<g>
			<polygon class="st0" points="148.3,84 100.3,96.4 115.7,51.2 160.8,35.9 			"/>
		</g>
		<g>
			<polygon class="st0" points="148.3,84 100.3,96.4 115.7,51.2 160.8,35.9 			"/>
		</g>
		<g>
			<polygon class="st0" points="148.3,84 100.3,96.4 115.7,51.2 160.8,35.9 			"/>
		</g>
		<g>
			<polygon class="st0" points="148.3,83.9 100.3,96.4 115.7,51.2 160.8,35.9 			"/>
		</g>
		<g>
			<polygon class="st0" points="148.3,83.9 100.3,96.4 115.7,51.2 160.8,35.9 			"/>
		</g>
		<g>
			<polygon class="st0" points="148.3,83.9 100.3,96.4 115.7,51.2 160.8,35.9 			"/>
		</g>
		<g>
			<polygon class="st0" points="148.3,83.9 100.3,96.4 115.7,51.2 160.8,35.9 			"/>
		</g>
		<g>
			<polygon class="st0" points="148.3,83.9 100.3,96.4 115.7,51.2 160.8,35.9 			"/>
		</g>
		<g>
			<polygon class="st0" points="148.3,83.9 100.3,96.3 115.7,51.2 160.8,35.9 			"/>
		</g>
		<g>
			<polygon class="st0" points="148.3,83.9 100.3,96.3 115.7,51.2 160.8,35.9 			"/>
		</g>
	</g>
	<g>
		<g>
			<polygon class="st0" points="148.3,83.8 100.3,96.4 115.6,51.4 160.7,36 			"/>
		</g>
	</g>
	<g>
		<polygon class="st1" points="148.3,83.9 100.3,96.3 115.7,51.2 160.8,35.9 		"/>
	</g>
	<g class="st2">
		
			<radialGradient id="SVGID_1_" cx="167.0244" cy="-81.104" r="34.3523" gradientTransform="matrix(0.7071 -0.7071 0.7071 0.7071 71.2457 243.0016)" gradientUnits="userSpaceOnUse">
			<stop  offset="0" style="stop-color:#FFFFFF"/>
			<stop  offset="1" style="stop-color:#000000"/>
		</radialGradient>
		<polygon class="st3" points="148.3,83.9 100.3,96.3 115.7,51.2 160.8,35.9 		"/>
	</g>
	<g>
		<polygon class="st1" points="148.3,83.9 100.3,96.3 115.7,51.2 160.8,35.9 		"/>
	</g>
	<g>
		<g>
			<path class="st4" d="M112.4,87l-1.1,0.3l0.2-0.7l2.9-0.8l-0.2,0.7l-1.1,0.3l-1,3.5l-0.7,0.2L112.4,87L112.4,87z"/>
			<path class="st4" d="M113.7,89.6c-0.2-0.2-0.2-0.5-0.1-1c0.1-0.4,0.3-0.8,0.7-1.2c0.3-0.3,0.7-0.6,1.2-0.7s0.8-0.1,1,0.1
				s0.2,0.5,0.1,1c-0.1,0.4-0.3,0.8-0.7,1.2c-0.3,0.3-0.7,0.6-1.2,0.7C114.2,89.9,113.9,89.8,113.7,89.6z M114.6,87.8
				c-0.2,0.2-0.3,0.4-0.4,0.7c-0.1,0.3,0,0.5,0.1,0.6s0.3,0.2,0.5,0.1s0.4-0.2,0.6-0.4c0.2-0.2,0.3-0.4,0.4-0.7
				c0.1-0.3,0-0.5-0.1-0.6s-0.3-0.2-0.5-0.1C115.1,87.5,114.9,87.6,114.6,87.8z"/>
			<path class="st4" d="M120.2,88.3l-0.7,0.2l-0.2-1.7l-1.2,2l-0.7,0.2l-0.3-2.5l0.7-0.2L118,88l1.2-2l0.7-0.2l0.2,1.7l1.2-2
				l0.7-0.2L120.2,88.3z"/>
			<path class="st4" d="M122.6,86.6c0,0.2,0,0.4,0.1,0.5s0.3,0.1,0.5,0c0.4-0.1,0.7-0.3,0.9-0.6l0.5,0.1c-0.4,0.6-1,0.9-1.6,1.1
				c-0.5,0.1-0.8,0.1-1-0.1s-0.2-0.5-0.1-1c0.1-0.4,0.3-0.8,0.7-1.2c0.3-0.3,0.8-0.6,1.2-0.7c0.2,0,0.4-0.1,0.5-0.1
				c0.2,0,0.3,0.1,0.4,0.1c0.1,0.1,0.2,0.2,0.2,0.4c0,0.2,0,0.5-0.1,0.8L122.6,86.6L122.6,86.6z M124.3,85.7c0-0.4-0.2-0.5-0.6-0.4
				c-0.2,0-0.4,0.1-0.5,0.3c-0.2,0.1-0.3,0.3-0.4,0.5L124.3,85.7z"/>
			<path class="st4" d="M127.6,84.4c-0.4,0.1-0.8,0.3-1,0.5l-0.5,2l-0.7,0.2l0.7-2.8l0.7-0.2l-0.1,0.4c0.3-0.4,0.7-0.6,1-0.7
				L127.6,84.4z"/>
		</g>
		<g>
			<path class="st4" d="M109.1,88.6c0.1-0.2,0.2-0.4,0.2-0.6c0.4-1.4-0.3-2.2-1.6-1.9c-1.3,0.3-2.7,1.7-3.1,3.1
				c-0.1,0.2-0.1,0.4-0.1,0.5c-0.1,0.2-0.2,0.4-0.2,0.5c-0.1,0.2-0.1,0.4-0.1,0.5c-0.1,0.2-0.2,0.4-0.2,0.6
				c-0.4,1.4,0.3,2.2,1.6,1.9c1.3-0.3,2.7-1.7,3.1-3.1c0.1-0.2,0.1-0.4,0.1-0.5c0.1-0.2,0.2-0.4,0.2-0.6
				C109.1,89,109.1,88.8,109.1,88.6z M105.8,92.8c-0.9,0.2-1.4-0.2-1.4-1c0.3,0.4,0.8,0.6,1.5,0.5c0.7-0.2,1.5-0.7,2.1-1.3
				C107.5,91.8,106.6,92.6,105.8,92.8z M104.7,90.7L104.7,90.7c0.3,0.4,0.8,0.6,1.5,0.4s1.4-0.7,2-1.3l0,0c-0.5,0.9-1.3,1.6-2.2,1.9
				C105.2,91.9,104.7,91.5,104.7,90.7z M106.4,90.6c-1,0.3-1.6-0.4-1.3-1.5c0.3-1.1,1.4-2.1,2.4-2.4s1.6,0.4,1.3,1.5
				C108.5,89.3,107.4,90.3,106.4,90.6z"/>
			<path class="st5" d="M107.1,88.3c-0.2,0.1-0.4,0.3-0.4,0.4c-0.1,0.2,0.1,0.3,0.2,0.3c0.2-0.1,0.4-0.3,0.4-0.4
				C107.4,88.4,107.3,88.2,107.1,88.3L107.1,88.3z"/>
		</g>
	</g>
</g>
<g>
	<g>
		<g>
			<polygon class="st0" points="149,84.4 100.8,96.8 116.2,51.5 161.4,36.2 			"/>
		</g>
		<g>
			<polygon class="st0" points="148.9,84.4 100.8,96.8 116.2,51.5 161.4,36.2 			"/>
		</g>
		<g>
			<polygon class="st0" points="148.9,84.4 100.8,96.8 116.2,51.5 161.4,36.2 			"/>
		</g>
		<g>
			<polygon class="st0" points="148.9,84.4 100.8,96.8 116.1,51.5 161.4,36.2 			"/>
		</g>
		<g>
			<polygon class="st0" points="148.9,84.4 100.8,96.8 116.1,51.5 161.4,36.2 			"/>
		</g>
		<g>
			<polygon class="st0" points="148.9,84.4 100.8,96.8 116.1,51.5 161.4,36.2 			"/>
		</g>
		<g>
			<polygon class="st0" points="148.9,84.4 100.7,96.8 116.1,51.5 161.4,36.2 			"/>
		</g>
		<g>
			<polygon class="st0" points="148.9,84.4 100.7,96.8 116.1,51.5 161.4,36.2 			"/>
		</g>
		<g>
			<polygon class="st0" points="148.9,84.4 100.7,96.8 116.1,51.5 161.4,36.2 			"/>
		</g>
		<g>
			<polygon class="st0" points="148.9,84.4 100.7,96.8 116.1,51.5 161.4,36.2 			"/>
		</g>
		<g>
			<polygon class="st0" points="148.9,84.4 100.7,96.8 116.1,51.5 161.4,36.2 			"/>
		</g>
		<g>
			<polygon class="st0" points="148.9,84.4 100.7,96.8 116.1,51.5 161.3,36.2 			"/>
		</g>
		<g>
			<polygon class="st0" points="148.9,84.4 100.7,96.8 116.1,51.5 161.3,36.2 			"/>
		</g>
		<g>
			<polygon class="st0" points="148.9,84.4 100.7,96.8 116.1,51.5 161.3,36.2 			"/>
		</g>
		<g>
			<polygon class="st0" points="148.9,84.4 100.7,96.8 116.1,51.5 161.3,36.1 			"/>
		</g>
		<g>
			<polygon class="st0" points="148.9,84.4 100.7,96.8 116.1,51.5 161.3,36.1 			"/>
		</g>
		<g>
			<polygon class="st0" points="148.8,84.4 100.7,96.8 116.1,51.5 161.3,36.1 			"/>
		</g>
		<g>
			<polygon class="st0" points="148.8,84.3 100.7,96.8 116.1,51.5 161.3,36.1 			"/>
		</g>
		<g>
			<polygon class="st0" points="148.8,84.3 100.7,96.7 116.1,51.5 161.3,36.1 			"/>
		</g>
		<g>
			<polygon class="st0" points="148.8,84.3 100.7,96.7 116.1,51.5 161.3,36.1 			"/>
		</g>
		<g>
			<polygon class="st0" points="148.8,84.3 100.7,96.7 116.1,51.5 161.3,36.1 			"/>
		</g>
		<g>
			<polygon class="st0" points="148.8,84.3 100.7,96.7 116.1,51.5 161.3,36.1 			"/>
		</g>
		<g>
			<polygon class="st0" points="148.8,84.3 100.7,96.7 116.1,51.5 161.3,36.1 			"/>
		</g>
		<g>
			<polygon class="st0" points="148.8,84.3 100.7,96.7 116.1,51.5 161.3,36.1 			"/>
		</g>
		<g>
			<polygon class="st0" points="148.8,84.3 100.7,96.7 116,51.4 161.3,36.1 			"/>
		</g>
		<g>
			<polygon class="st0" points="148.8,84.3 100.7,96.7 116,51.4 161.3,36.1 			"/>
		</g>
		<g>
			<polygon class="st0" points="148.8,84.3 100.6,96.7 116,51.4 161.2,36.1 			"/>
		</g>
		<g>
			<polygon class="st0" points="148.8,84.3 100.6,96.7 116,51.4 161.2,36.1 			"/>
		</g>
		<g>
			<polygon class="st0" points="148.8,84.3 100.6,96.7 116,51.4 161.2,36.1 			"/>
		</g>
		<g>
			<polygon class="st0" points="148.8,84.3 100.6,96.7 116,51.4 161.2,36.1 			"/>
		</g>
		<g>
			<polygon class="st0" points="148.8,84.3 100.6,96.7 116,51.4 161.2,36.1 			"/>
		</g>
		<g>
			<polygon class="st0" points="148.7,84.3 100.6,96.7 116,51.4 161.2,36.1 			"/>
		</g>
		<g>
			<polygon class="st0" points="148.7,84.3 100.6,96.7 116,51.4 161.2,36.1 			"/>
		</g>
		<g>
			<polygon class="st0" points="148.7,84.3 100.6,96.7 116,51.4 161.2,36.1 			"/>
		</g>
		<g>
			<polygon class="st0" points="148.7,84.3 100.6,96.7 116,51.4 161.2,36.1 			"/>
		</g>
		<g>
			<polygon class="st0" points="148.7,84.3 100.6,96.7 116,51.4 161.2,36.1 			"/>
		</g>
		<g>
			<polygon class="st0" points="148.7,84.3 100.6,96.7 116,51.4 161.2,36.1 			"/>
		</g>
		<g>
			<polygon class="st0" points="148.7,84.2 100.6,96.7 116,51.4 161.2,36.1 			"/>
		</g>
		<g>
			<polygon class="st0" points="148.7,84.2 100.6,96.6 116,51.4 161.2,36.1 			"/>
		</g>
		<g>
			<polygon class="st0" points="148.7,84.2 100.6,96.6 116,51.4 161.2,36.1 			"/>
		</g>
		<g>
			<polygon class="st0" points="148.7,84.2 100.6,96.6 116,51.4 161.2,36.1 			"/>
		</g>
		<g>
			<polygon class="st0" points="148.7,84.2 100.6,96.6 116,51.4 161.2,36.1 			"/>
		</g>
		<g>
			<polygon class="st0" points="148.7,84.2 100.6,96.6 116,51.4 161.1,36.1 			"/>
		</g>
		<g>
			<polygon class="st0" points="148.7,84.2 100.6,96.6 116,51.4 161.1,36.1 			"/>
		</g>
		<g>
			<polygon class="st0" points="148.7,84.2 100.6,96.6 115.9,51.4 161.1,36 			"/>
		</g>
		<g>
			<polygon class="st0" points="148.7,84.2 100.6,96.6 115.9,51.4 161.1,36 			"/>
		</g>
		<g>
			<polygon class="st0" points="148.6,84.2 100.6,96.6 115.9,51.4 161.1,36 			"/>
		</g>
		<g>
			<polygon class="st0" points="148.6,84.2 100.5,96.6 115.9,51.4 161.1,36 			"/>
		</g>
		<g>
			<polygon class="st0" points="148.6,84.2 100.5,96.6 115.9,51.4 161.1,36 			"/>
		</g>
		<g>
			<polygon class="st0" points="148.6,84.2 100.5,96.6 115.9,51.4 161.1,36 			"/>
		</g>
		<g>
			<polygon class="st0" points="148.6,84.2 100.5,96.6 115.9,51.4 161.1,36 			"/>
		</g>
		<g>
			<polygon class="st0" points="148.6,84.2 100.5,96.6 115.9,51.4 161.1,36 			"/>
		</g>
		<g>
			<polygon class="st0" points="148.6,84.2 100.5,96.6 115.9,51.4 161.1,36 			"/>
		</g>
		<g>
			<polygon class="st0" points="148.6,84.2 100.5,96.6 115.9,51.4 161.1,36 			"/>
		</g>
		<g>
			<polygon class="st0" points="148.6,84.2 100.5,96.6 115.9,51.3 161.1,36 			"/>
		</g>
		<g>
			<polygon class="st0" points="148.6,84.2 100.5,96.6 115.9,51.3 161.1,36 			"/>
		</g>
		<g>
			<polygon class="st0" points="148.6,84.1 100.5,96.6 115.9,51.3 161.1,36 			"/>
		</g>
		<g>
			<polygon class="st0" points="148.6,84.1 100.5,96.6 115.9,51.3 161,36 			"/>
		</g>
		<g>
			<polygon class="st0" points="148.6,84.1 100.5,96.6 115.9,51.3 161,36 			"/>
		</g>
		<g>
			<polygon class="st0" points="148.6,84.1 100.5,96.5 115.9,51.3 161,36 			"/>
		</g>
		<g>
			<polygon class="st0" points="148.6,84.1 100.5,96.5 115.9,51.3 161,36 			"/>
		</g>
		<g>
			<polygon class="st0" points="148.5,84.1 100.5,96.5 115.9,51.3 161,36 			"/>
		</g>
		<g>
			<polygon class="st0" points="148.5,84.1 100.5,96.5 115.9,51.3 161,36 			"/>
		</g>
		<g>
			<polygon class="st0" points="148.5,84.1 100.5,96.5 115.9,51.3 161,36 			"/>
		</g>
		<g>
			<polygon class="st0" points="148.5,84.1 100.5,96.5 115.8,51.3 161,36 			"/>
		</g>
		<g>
			<polygon class="st0" points="148.5,84.1 100.5,96.5 115.8,51.3 161,36 			"/>
		</g>
		<g>
			<polygon class="st0" points="148.5,84.1 100.5,96.5 115.8,51.3 161,36 			"/>
		</g>
		<g>
			<polygon class="st0" points="148.5,84.1 100.4,96.5 115.8,51.3 161,36 			"/>
		</g>
		<g>
			<polygon class="st0" points="148.5,84.1 100.4,96.5 115.8,51.3 161,36 			"/>
		</g>
		<g>
			<polygon class="st0" points="148.5,84.1 100.4,96.5 115.8,51.3 161,36 			"/>
		</g>
		<g>
			<polygon class="st0" points="148.5,84.1 100.4,96.5 115.8,51.3 161,36 			"/>
		</g>
		<g>
			<polygon class="st0" points="148.5,84.1 100.4,96.5 115.8,51.3 161,36 			"/>
		</g>
		<g>
			<polygon class="st0" points="148.5,84.1 100.4,96.5 115.8,51.3 161,36 			"/>
		</g>
		<g>
			<polygon class="st0" points="148.5,84.1 100.4,96.5 115.8,51.3 160.9,36 			"/>
		</g>
		<g>
			<polygon class="st0" points="148.5,84.1 100.4,96.5 115.8,51.3 160.9,35.9 			"/>
		</g>
		<g>
			<polygon class="st0" points="148.5,84.1 100.4,96.5 115.8,51.3 160.9,35.9 			"/>
		</g>
		<g>
			<polygon class="st0" points="148.4,84 100.4,96.5 115.8,51.3 160.9,35.9 			"/>
		</g>
		<g>
			<polygon class="st0" points="148.4,84 100.4,96.5 115.8,51.3 160.9,35.9 			"/>
		</g>
		<g>
			<polygon class="st0" points="148.4,84 100.4,96.5 115.8,51.3 160.9,35.9 			"/>
		</g>
		<g>
			<polygon class="st0" points="148.4,84 100.4,96.4 115.8,51.3 160.9,35.9 			"/>
		</g>
		<g>
			<polygon class="st0" points="148.4,84 100.4,96.4 115.8,51.3 160.9,35.9 			"/>
		</g>
		<g>
			<polygon class="st0" points="148.4,84 100.4,96.4 115.8,51.3 160.9,35.9 			"/>
		</g>
		<g>
			<polygon class="st0" points="148.4,84 100.4,96.4 115.8,51.3 160.9,35.9 			"/>
		</g>
		<g>
			<polygon class="st0" points="148.4,84 100.4,96.4 115.8,51.3 160.9,35.9 			"/>
		</g>
		<g>
			<polygon class="st0" points="148.4,84 100.4,96.4 115.7,51.2 160.9,35.9 			"/>
		</g>
		<g>
			<polygon class="st0" points="148.4,84 100.4,96.4 115.7,51.2 160.9,35.9 			"/>
		</g>
		<g>
			<polygon class="st0" points="148.4,84 100.4,96.4 115.7,51.2 160.9,35.9 			"/>
		</g>
		<g>
			<polygon class="st0" points="148.4,84 100.3,96.4 115.7,51.2 160.9,35.9 			"/>
		</g>
		<g>
			<polygon class="st0" points="148.4,84 100.3,96.4 115.7,51.2 160.8,35.9 			"/>
		</g>
		<g>
			<polygon class="st0" points="148.4,84 100.3,96.4 115.7,51.2 160.8,35.9 			"/>
		</g>
		<g>
			<polygon class="st0" points="148.3,84 100.3,96.4 115.7,51.2 160.8,35.9 			"/>
		</g>
		<g>
			<polygon class="st0" points="148.3,84 100.3,96.4 115.7,51.2 160.8,35.9 			"/>
		</g>
		<g>
			<polygon class="st0" points="148.3,84 100.3,96.4 115.7,51.2 160.8,35.9 			"/>
		</g>
		<g>
			<polygon class="st0" points="148.3,84 100.3,96.4 115.7,51.2 160.8,35.9 			"/>
		</g>
		<g>
			<polygon class="st0" points="148.3,84 100.3,96.4 115.7,51.2 160.8,35.9 			"/>
		</g>
		<g>
			<polygon class="st0" points="148.3,83.9 100.3,96.4 115.7,51.2 160.8,35.9 			"/>
		</g>
		<g>
			<polygon class="st0" points="148.3,83.9 100.3,96.4 115.7,51.2 160.8,35.9 			"/>
		</g>
		<g>
			<polygon class="st0" points="148.3,83.9 100.3,96.4 115.7,51.2 160.8,35.9 			"/>
		</g>
		<g>
			<polygon class="st0" points="148.3,83.9 100.3,96.4 115.7,51.2 160.8,35.9 			"/>
		</g>
		<g>
			<polygon class="st0" points="148.3,83.9 100.3,96.4 115.7,51.2 160.8,35.9 			"/>
		</g>
		<g>
			<polygon class="st0" points="148.3,83.9 100.3,96.3 115.7,51.2 160.8,35.9 			"/>
		</g>
		<g>
			<polygon class="st0" points="148.3,83.9 100.3,96.3 115.7,51.2 160.8,35.9 			"/>
		</g>
	</g>
	<g>
		<g>
			<polygon class="st0" points="148.3,83.8 100.3,96.4 115.6,51.4 160.7,36 			"/>
		</g>
	</g>
	<g>
		<polygon class="st1" points="148.3,83.9 100.3,96.3 115.7,51.2 160.8,35.9 		"/>
	</g>
	<g class="st2">
		
			<radialGradient id="SVGID_2_" cx="167.0244" cy="-81.104" r="34.3523" gradientTransform="matrix(0.7071 -0.7071 0.7071 0.7071 71.2457 243.0016)" gradientUnits="userSpaceOnUse">
			<stop  offset="0" style="stop-color:#FFFFFF"/>
			<stop  offset="1" style="stop-color:#000000"/>
		</radialGradient>
		<polygon class="st6" points="148.3,83.9 100.3,96.3 115.7,51.2 160.8,35.9 		"/>
	</g>
	<g>
		<polygon class="st1" points="148.3,83.9 100.3,96.3 115.7,51.2 160.8,35.9 		"/>
	</g>
	<g>
		<g>
			<path class="st4" d="M112.4,87l-1.1,0.3l0.2-0.7l2.9-0.8l-0.2,0.7l-1.1,0.3l-1,3.5l-0.7,0.2L112.4,87L112.4,87z"/>
			<path class="st4" d="M113.7,89.6c-0.2-0.2-0.2-0.5-0.1-1c0.1-0.4,0.3-0.8,0.7-1.2c0.3-0.3,0.7-0.6,1.2-0.7s0.8-0.1,1,0.1
				s0.2,0.5,0.1,1c-0.1,0.4-0.3,0.8-0.7,1.2c-0.3,0.3-0.7,0.6-1.2,0.7C114.2,89.9,113.9,89.8,113.7,89.6z M114.6,87.8
				c-0.2,0.2-0.3,0.4-0.4,0.7c-0.1,0.3,0,0.5,0.1,0.6s0.3,0.2,0.5,0.1s0.4-0.2,0.6-0.4c0.2-0.2,0.3-0.4,0.4-0.7
				c0.1-0.3,0-0.5-0.1-0.6s-0.3-0.2-0.5-0.1C115.1,87.5,114.9,87.6,114.6,87.8z"/>
			<path class="st4" d="M120.2,88.3l-0.7,0.2l-0.2-1.7l-1.2,2l-0.7,0.2l-0.3-2.5l0.7-0.2L118,88l1.2-2l0.7-0.2l0.2,1.7l1.2-2
				l0.7-0.2L120.2,88.3z"/>
			<path class="st4" d="M122.6,86.6c0,0.2,0,0.4,0.1,0.5s0.3,0.1,0.5,0c0.4-0.1,0.7-0.3,0.9-0.6l0.5,0.1c-0.4,0.6-1,0.9-1.6,1.1
				c-0.5,0.1-0.8,0.1-1-0.1s-0.2-0.5-0.1-1c0.1-0.4,0.3-0.8,0.7-1.2c0.3-0.3,0.8-0.6,1.2-0.7c0.2,0,0.4-0.1,0.5-0.1
				c0.2,0,0.3,0.1,0.4,0.1c0.1,0.1,0.2,0.2,0.2,0.4c0,0.2,0,0.5-0.1,0.8L122.6,86.6L122.6,86.6z M124.3,85.7c0-0.4-0.2-0.5-0.6-0.4
				c-0.2,0-0.4,0.1-0.5,0.3c-0.2,0.1-0.3,0.3-0.4,0.5L124.3,85.7z"/>
			<path class="st4" d="M127.6,84.4c-0.4,0.1-0.8,0.3-1,0.5l-0.5,2l-0.7,0.2l0.7-2.8l0.7-0.2l-0.1,0.4c0.3-0.4,0.7-0.6,1-0.7
				L127.6,84.4z"/>
		</g>
		<g>
			<path class="st4" d="M109.1,88.6c0.1-0.2,0.2-0.4,0.2-0.6c0.4-1.4-0.3-2.2-1.6-1.9c-1.3,0.3-2.7,1.7-3.1,3.1
				c-0.1,0.2-0.1,0.4-0.1,0.5c-0.1,0.2-0.2,0.4-0.2,0.5c-0.1,0.2-0.1,0.4-0.1,0.5c-0.1,0.2-0.2,0.4-0.2,0.6
				c-0.4,1.4,0.3,2.2,1.6,1.9c1.3-0.3,2.7-1.7,3.1-3.1c0.1-0.2,0.1-0.4,0.1-0.5c0.1-0.2,0.2-0.4,0.2-0.6
				C109.1,89,109.1,88.8,109.1,88.6z M105.8,92.8c-0.9,0.2-1.4-0.2-1.4-1c0.3,0.4,0.8,0.6,1.5,0.5c0.7-0.2,1.5-0.7,2.1-1.3
				C107.5,91.8,106.6,92.6,105.8,92.8z M104.7,90.7L104.7,90.7c0.3,0.4,0.8,0.6,1.5,0.4s1.4-0.7,2-1.3l0,0c-0.5,0.9-1.3,1.6-2.2,1.9
				C105.2,91.9,104.7,91.5,104.7,90.7z M106.4,90.6c-1,0.3-1.6-0.4-1.3-1.5c0.3-1.1,1.4-2.1,2.4-2.4s1.6,0.4,1.3,1.5
				C108.5,89.3,107.4,90.3,106.4,90.6z"/>
			<path class="st5" d="M107.1,88.3c-0.2,0.1-0.4,0.3-0.4,0.4c-0.1,0.2,0.1,0.3,0.2,0.3c0.2-0.1,0.4-0.3,0.4-0.4
				C107.4,88.4,107.3,88.2,107.1,88.3L107.1,88.3z"/>
		</g>
	</g>
</g>
</svg>
