<?xml version="1.0" encoding="utf-8"?>
<!-- Generator: Adobe Illustrator 24.1.2, SVG Export Plug-In . SVG Version: 6.00 Build 0)  -->
<svg version="1.1" id="Layer_1" xmlns="http://www.w3.org/2000/svg" xmlns:xlink="http://www.w3.org/1999/xlink" x="0px" y="0px"
	 viewBox="0 0 250 175" style="enable-background:new 0 0 250 175;" xml:space="preserve">
<style type="text/css">
	.st0{fill:#BF463F;}
	.st1{fill:#E6544C;}
	.st2{opacity:0.15;fill:url(#SVGID_1_);enable-background:new    ;}
	.st3{fill:#FFFFFF;}
</style>
<g>
	<g>
		<polygon class="st0" points="206.2,141.1 86.7,157.6 120.3,55.3 222.7,21.6 		"/>
		<polygon class="st0" points="206.2,141.2 86.7,157.7 120.3,55.3 222.7,21.6 		"/>
		<polygon class="st0" points="206.3,141.2 86.7,157.7 120.4,55.3 222.8,21.6 		"/>
		<polygon class="st0" points="206.3,141.2 86.7,157.7 120.4,55.3 222.8,21.7 		"/>
		<polygon class="st0" points="206.3,141.2 86.8,157.7 120.4,55.4 222.8,21.7 		"/>
		<polygon class="st0" points="206.3,141.3 86.8,157.8 120.4,55.4 222.8,21.7 		"/>
		<polygon class="st0" points="206.4,141.3 86.8,157.8 120.4,55.4 222.9,21.7 		"/>
		<polygon class="st0" points="206.4,141.3 86.8,157.8 120.4,55.4 222.9,21.8 		"/>
		<polygon class="st0" points="206.4,141.4 86.9,157.8 120.4,55.4 222.9,21.8 		"/>
		<polygon class="st0" points="206.5,141.4 86.9,157.9 120.5,55.5 223,21.8 		"/>
		<polygon class="st0" points="206.5,141.4 86.9,157.9 120.5,55.5 223,21.8 		"/>
		<polygon class="st0" points="206.5,141.5 86.9,157.9 120.5,55.5 223,21.8 		"/>
		<polygon class="st0" points="206.6,141.5 87,157.9 120.5,55.5 223,21.9 		"/>
		<polygon class="st0" points="206.6,141.5 87,157.9 120.5,55.5 223.1,21.9 		"/>
		<polygon class="st0" points="206.6,141.5 87,158 120.5,55.6 223.1,21.9 		"/>
		<polygon class="st0" points="206.6,141.6 87,158 120.5,55.6 223.1,21.9 		"/>
		<polygon class="st0" points="206.7,141.6 87.1,158 120.5,55.6 223.1,21.9 		"/>
		<polygon class="st0" points="206.7,141.6 87.1,158 120.6,55.6 223.2,22 		"/>
		<polygon class="st0" points="206.7,141.7 87.1,158.1 120.6,55.7 223.2,22 		"/>
		<polygon class="st0" points="206.8,141.7 87.1,158.1 120.6,55.7 223.2,22 		"/>
		<polygon class="st0" points="206.8,141.7 87.2,158.1 120.6,55.7 223.3,22 		"/>
		<polygon class="st0" points="206.8,141.8 87.2,158.1 120.6,55.7 223.3,22.1 		"/>
		<polygon class="st0" points="206.8,141.8 87.2,158.2 120.6,55.7 223.3,22.1 		"/>
		<polygon class="st0" points="206.9,141.8 87.2,158.2 120.6,55.8 223.3,22.1 		"/>
		<polygon class="st0" points="206.9,141.8 87.3,158.2 120.6,55.8 223.4,22.1 		"/>
		<polygon class="st0" points="206.9,141.9 87.3,158.2 120.7,55.8 223.4,22.1 		"/>
		<polygon class="st0" points="207,141.9 87.3,158.3 120.7,55.8 223.4,22.2 		"/>
		<polygon class="st0" points="207,141.9 87.3,158.3 120.7,55.8 223.4,22.2 		"/>
		<polygon class="st0" points="207,142 87.4,158.3 120.7,55.9 223.5,22.2 		"/>
		<polygon class="st0" points="207,142 87.4,158.3 120.7,55.9 223.5,22.2 		"/>
		<polygon class="st0" points="207.1,142 87.4,158.4 120.7,55.9 223.5,22.3 		"/>
		<polygon class="st0" points="207.1,142 87.4,158.4 120.7,55.9 223.6,22.3 		"/>
		<polygon class="st0" points="207.1,142.1 87.5,158.4 120.7,56 223.6,22.3 		"/>
		<polygon class="st0" points="207.2,142.1 87.5,158.4 120.8,56 223.6,22.3 		"/>
		<polygon class="st0" points="207.2,142.1 87.5,158.5 120.8,56 223.6,22.3 		"/>
		<polygon class="st0" points="207.2,142.2 87.5,158.5 120.8,56 223.7,22.4 		"/>
		<polygon class="st0" points="207.3,142.2 87.6,158.5 120.8,56 223.7,22.4 		"/>
		<polygon class="st0" points="207.3,142.2 87.6,158.5 120.8,56.1 223.7,22.4 		"/>
		<polygon class="st0" points="207.3,142.3 87.6,158.6 120.8,56.1 223.7,22.4 		"/>
		<polygon class="st0" points="207.3,142.3 87.7,158.6 120.8,56.1 223.8,22.5 		"/>
		<polygon class="st0" points="207.4,142.3 87.7,158.6 120.8,56.1 223.8,22.5 		"/>
		<polygon class="st0" points="207.4,142.3 87.7,158.6 120.9,56.1 223.8,22.5 		"/>
		<polygon class="st0" points="207.4,142.4 87.7,158.6 120.9,56.2 223.9,22.5 		"/>
		<polygon class="st0" points="207.5,142.4 87.8,158.7 120.9,56.2 223.9,22.5 		"/>
		<polygon class="st0" points="207.5,142.4 87.8,158.7 120.9,56.2 223.9,22.6 		"/>
		<polygon class="st0" points="207.5,142.5 87.8,158.7 120.9,56.2 223.9,22.6 		"/>
		<polygon class="st0" points="207.5,142.5 87.8,158.7 120.9,56.3 224,22.6 		"/>
		<polygon class="st0" points="207.6,142.5 87.9,158.8 120.9,56.3 224,22.6 		"/>
		<polygon class="st0" points="207.6,142.6 87.9,158.8 120.9,56.3 224,22.6 		"/>
		<polygon class="st0" points="207.6,142.6 87.9,158.8 121,56.3 224,22.7 		"/>
		<polygon class="st0" points="207.7,142.6 87.9,158.8 121,56.3 224.1,22.7 		"/>
		<polygon class="st0" points="207.7,142.6 88,158.9 121,56.4 224.1,22.7 		"/>
		<polygon class="st0" points="207.7,142.7 88,158.9 121,56.4 224.1,22.7 		"/>
		<polygon class="st0" points="207.8,142.7 88,158.9 121,56.4 224.2,22.8 		"/>
		<polygon class="st0" points="207.8,142.7 88,158.9 121,56.4 224.2,22.8 		"/>
		<polygon class="st0" points="207.8,142.8 88.1,159 121,56.4 224.2,22.8 		"/>
		<polygon class="st0" points="207.8,142.8 88.1,159 121,56.5 224.2,22.8 		"/>
		<polygon class="st0" points="207.9,142.8 88.1,159 121.1,56.5 224.3,22.8 		"/>
		<polygon class="st0" points="207.9,142.8 88.1,159 121.1,56.5 224.3,22.9 		"/>
		<polygon class="st0" points="207.9,142.9 88.2,159.1 121.1,56.5 224.3,22.9 		"/>
		<polygon class="st0" points="208,142.9 88.2,159.1 121.1,56.6 224.3,22.9 		"/>
		<polygon class="st0" points="208,142.9 88.2,159.1 121.1,56.6 224.4,22.9 		"/>
		<polygon class="st0" points="208,143 88.2,159.1 121.1,56.6 224.4,23 		"/>
		<polygon class="st0" points="208,143 88.3,159.2 121.1,56.6 224.4,23 		"/>
		<polygon class="st0" points="208.1,143 88.3,159.2 121.1,56.6 224.5,23 		"/>
		<polygon class="st0" points="208.1,143.1 88.3,159.2 121.2,56.7 224.5,23 		"/>
		<polygon class="st0" points="208.1,143.1 88.3,159.2 121.2,56.7 224.5,23 		"/>
		<polygon class="st0" points="208.2,143.1 88.4,159.3 121.2,56.7 224.5,23.1 		"/>
		<polygon class="st0" points="208.2,143.1 88.4,159.3 121.2,56.7 224.6,23.1 		"/>
		<polygon class="st0" points="208.2,143.2 88.4,159.3 121.2,56.8 224.6,23.1 		"/>
		<polygon class="st0" points="208.3,143.2 88.4,159.3 121.2,56.8 224.6,23.1 		"/>
		<polygon class="st0" points="208.3,143.2 88.5,159.3 121.2,56.8 224.7,23.2 		"/>
		<polygon class="st0" points="208.3,143.3 88.5,159.4 121.2,56.8 224.7,23.2 		"/>
		<polygon class="st0" points="208.3,143.3 88.5,159.4 121.3,56.8 224.7,23.2 		"/>
		<polygon class="st0" points="208.4,143.3 88.5,159.4 121.3,56.9 224.7,23.2 		"/>
		<polygon class="st0" points="208.4,143.4 88.6,159.4 121.3,56.9 224.8,23.2 		"/>
		<polygon class="st0" points="208.4,143.4 88.6,159.5 121.3,56.9 224.8,23.3 		"/>
		<polygon class="st0" points="208.5,143.4 88.6,159.5 121.3,56.9 224.8,23.3 		"/>
		<polygon class="st0" points="208.5,143.4 88.6,159.5 121.3,56.9 224.8,23.3 		"/>
		<polygon class="st0" points="208.5,143.5 88.7,159.5 121.3,57 224.9,23.3 		"/>
		<polygon class="st0" points="208.5,143.5 88.7,159.6 121.3,57 224.9,23.3 		"/>
		<polygon class="st0" points="208.6,143.5 88.7,159.6 121.4,57 224.9,23.4 		"/>
		<polygon class="st0" points="208.6,143.6 88.7,159.6 121.4,57 225,23.4 		"/>
		<polygon class="st0" points="208.6,143.6 88.8,159.6 121.4,57.1 225,23.4 		"/>
		<polygon class="st0" points="208.7,143.6 88.8,159.7 121.4,57.1 225,23.4 		"/>
		<polygon class="st0" points="208.7,143.7 88.8,159.7 121.4,57.1 225,23.5 		"/>
		<polygon class="st0" points="208.7,143.7 88.8,159.7 121.4,57.1 225.1,23.5 		"/>
		<polygon class="st0" points="208.8,143.7 88.9,159.7 121.4,57.1 225.1,23.5 		"/>
		<polygon class="st0" points="208.8,143.7 88.9,159.8 121.4,57.2 225.1,23.5 		"/>
		<polygon class="st0" points="208.8,143.8 88.9,159.8 121.5,57.2 225.1,23.5 		"/>
		<polygon class="st0" points="208.8,143.8 88.9,159.8 121.5,57.2 225.2,23.6 		"/>
		<polygon class="st0" points="208.9,143.8 89,159.8 121.5,57.2 225.2,23.6 		"/>
		<polygon class="st0" points="208.9,143.9 89,159.9 121.5,57.2 225.2,23.6 		"/>
		<polygon class="st0" points="208.9,143.9 89,159.9 121.5,57.3 225.3,23.6 		"/>
		<polygon class="st0" points="209,143.9 89,159.9 121.5,57.3 225.3,23.7 		"/>
		<polygon class="st0" points="209,143.9 89.1,159.9 121.5,57.3 225.3,23.7 		"/>
		<polygon class="st0" points="209,144 89.1,159.9 121.5,57.3 225.3,23.7 		"/>
		<polygon class="st0" points="209,144 89.1,160 121.6,57.4 225.4,23.7 		"/>
		<polygon class="st0" points="209.1,144 89.1,160 121.6,57.4 225.4,23.7 		"/>
		<polygon class="st0" points="209.1,144.1 89.2,160 121.6,57.4 225.4,23.8 		"/>
		<polygon class="st0" points="209.1,144.1 89.2,160 121.6,57.4 225.4,23.8 		"/>
		<polygon class="st0" points="209.2,144.1 89.2,160.1 121.6,57.4 225.5,23.8 		"/>
	</g>
	<polygon class="st1" points="206.2,141.1 86.7,157.6 120.3,55.3 222.7,21.6 	"/>
	
		<radialGradient id="SVGID_1_" cx="167.484" cy="-37.3337" r="80.4157" gradientTransform="matrix(0.7071 -0.7071 0.7071 0.7071 71.2457 243.0016)" gradientUnits="userSpaceOnUse">
		<stop  offset="0" style="stop-color:#FFFFFF"/>
		<stop  offset="1" style="stop-color:#000000"/>
	</radialGradient>
	<polygon class="st2" points="206.2,141.1 86.7,157.6 120.3,55.3 222.7,21.6 	"/>
	<g>
		<g>
			<path class="st3" d="M100.4,149l-0.9,3.1l-0.8,0.1l1.5-5.3l0.8-0.1l0.5,3.6l2.6-4l0.8-0.1l-1.4,5.3l-0.8,0.1l0.9-3.2l-2.2,3.3
				l-0.5,0.1L100.4,149z"/>
			<path class="st3" d="M105.7,147.2c-0.1-0.1-0.1-0.2,0-0.4c0-0.1,0.1-0.3,0.2-0.4c0.1-0.1,0.2-0.2,0.4-0.2c0.1,0,0.2,0,0.3,0.1
				c0.1,0.1,0.1,0.2,0,0.4c0,0.1-0.1,0.3-0.2,0.4c-0.1,0.1-0.3,0.2-0.4,0.2C105.8,147.4,105.7,147.3,105.7,147.2z M104.5,151.5
				l0.9-3.5l0.8-0.1l-0.9,3.5L104.5,151.5L104.5,151.5z"/>
			<path class="st3" d="M106.6,150.8c-0.2-0.3-0.3-0.7-0.1-1.3c0.1-0.5,0.4-1,0.8-1.4s0.8-0.6,1.3-0.7c0.5-0.1,0.9,0,1.1,0.3
				s0.2,0.7,0.1,1.3c-0.1,0.5-0.4,1-0.8,1.4s-0.8,0.6-1.4,0.7C107.1,151.3,106.8,151.1,106.6,150.8z M107.7,148.6
				c-0.2,0.2-0.4,0.5-0.5,0.8s-0.1,0.6,0,0.8s0.3,0.3,0.6,0.2c0.3,0,0.5-0.2,0.7-0.4s0.4-0.5,0.5-0.8s0.1-0.6-0.1-0.8
				c-0.1-0.2-0.3-0.2-0.6-0.2C108.2,148.3,107.9,148.4,107.7,148.6z"/>
		</g>
		<g>
			<path class="st3" d="M94.9,149.9c-0.2,0-0.4,0.3-0.5,0.5c-0.1,0.3,0,0.4,0.3,0.4c0.2,0,0.4-0.3,0.5-0.5
				C95.2,150.1,95.1,149.9,94.9,149.9z"/>
			<path class="st3" d="M96.5,152.6L96.5,152.6c-0.1,0-0.1,0-0.2,0c0,0,0,0-0.1,0l-0.2-0.4c0.6-0.6,1-1.3,1.2-2.2
				c0.5-1.7-0.3-2.9-1.7-2.7c-1.4,0.2-2.9,1.7-3.4,3.4c-0.2,0.8-0.2,1.5,0.1,1.9l-0.4,0.5l0,0c-0.2,0-0.4,0.3-0.5,0.5
				c-0.1,0.3,0,0.4,0.2,0.4s0.4-0.3,0.5-0.5c0-0.1,0-0.1,0-0.2l0.4-0.4c0.3,0.4,0.7,0.5,1.2,0.5l-0.2,0.6c-0.1,0.1-0.2,0.2-0.2,0.3
				c-0.1,0.3,0,0.4,0.2,0.4s0.4-0.3,0.5-0.5c0-0.1,0-0.2,0-0.3l0.2-0.6c0.5-0.1,1.1-0.5,1.6-0.9l0.2,0.4c0,0.1-0.1,0.1-0.1,0.2
				c-0.1,0.3,0.1,0.4,0.3,0.4c0.2,0,0.4-0.3,0.5-0.5C96.7,152.8,96.6,152.7,96.5,152.6z M95.9,151.7l-0.6-1.2
				c-0.1,0.1-0.2,0.3-0.3,0.4c0,0-0.1,0-0.1,0.1l0.5,1.1c-0.4,0.3-0.8,0.6-1.2,0.7l0.5-1.6v-0.1c-0.1,0-0.2,0.1-0.3,0.1
				c-0.1,0-0.2,0-0.3,0v0.1l-0.5,1.6c-0.4,0-0.7-0.2-0.9-0.4l1.2-1.4l0,0c-0.1-0.1-0.1-0.2,0-0.4l-1.3,1.5c-0.2-0.4-0.2-0.9,0-1.5
				c0.4-1.3,1.6-2.6,2.7-2.7c1.1-0.2,1.7,0.8,1.4,2.2C96.6,150.7,96.3,151.3,95.9,151.7z"/>
		</g>
	</g>
</g>
</svg>
