<?xml version="1.0" encoding="utf-8"?>
<!-- Generator: Adobe Illustrator 24.1.2, SVG Export Plug-In . SVG Version: 6.00 Build 0)  -->
<svg version="1.1" id="Layer_1" xmlns="http://www.w3.org/2000/svg" xmlns:xlink="http://www.w3.org/1999/xlink" x="0px" y="0px"
	 viewBox="0 0 250 175" style="enable-background:new 0 0 250 175;" xml:space="preserve">
<style type="text/css">
	.st0{fill:#A72A7C;}
	.st1{fill:#C83895;}
	.st2{opacity:0.15;fill:url(#SVGID_1_);enable-background:new    ;}
	.st3{fill:#FFFFFF;}
	.st4{fill-rule:evenodd;clip-rule:evenodd;fill:#FFFFFF;}
	.st5{fill:#7BA844;}
	.st6{fill:#95CA51;}
	.st7{opacity:0.15;}
	.st8{fill:url(#SVGID_2_);}
	.st9{opacity:0.15;fill:url(#SVGID_3_);enable-background:new    ;}
</style>
<g>
	<g>
		<g>
			<polygon class="st0" points="189.7,124.2 80.2,142.7 112.8,47.8 208.1,14.8 			"/>
		</g>
	</g>
	<g>
		<polygon class="st0" points="187.3,122.2 78.4,141.3 111.7,46.6 206.4,13.4 		"/>
		<polygon class="st0" points="187.3,122.2 78.4,141.3 111.7,46.7 206.4,13.4 		"/>
		<polygon class="st0" points="187.3,122.2 78.5,141.3 111.7,46.7 206.4,13.4 		"/>
		<polygon class="st0" points="187.3,122.3 78.5,141.3 111.7,46.7 206.4,13.4 		"/>
		<polygon class="st0" points="187.4,122.3 78.5,141.3 111.7,46.7 206.4,13.4 		"/>
		<polygon class="st0" points="187.4,122.3 78.5,141.4 111.8,46.7 206.4,13.4 		"/>
		<polygon class="st0" points="187.4,122.3 78.5,141.4 111.8,46.7 206.5,13.4 		"/>
		<polygon class="st0" points="187.4,122.4 78.5,141.4 111.8,46.7 206.5,13.5 		"/>
		<polygon class="st0" points="187.5,122.4 78.6,141.4 111.8,46.7 206.5,13.5 		"/>
		<polygon class="st0" points="187.5,122.4 78.6,141.4 111.8,46.8 206.5,13.5 		"/>
		<polygon class="st0" points="187.5,122.4 78.6,141.4 111.8,46.8 206.5,13.5 		"/>
		<polygon class="st0" points="187.5,122.4 78.6,141.5 111.8,46.8 206.5,13.5 		"/>
		<polygon class="st0" points="187.5,122.5 78.6,141.5 111.8,46.8 206.6,13.5 		"/>
		<polygon class="st0" points="187.6,122.5 78.6,141.5 111.8,46.8 206.6,13.5 		"/>
		<polygon class="st0" points="187.6,122.5 78.6,141.5 111.8,46.8 206.6,13.6 		"/>
		<polygon class="st0" points="187.6,122.5 78.7,141.5 111.8,46.8 206.6,13.6 		"/>
		<polygon class="st0" points="187.6,122.5 78.7,141.5 111.9,46.8 206.6,13.6 		"/>
		<polygon class="st0" points="187.7,122.6 78.7,141.6 111.9,46.9 206.6,13.6 		"/>
		<polygon class="st0" points="187.7,122.6 78.7,141.6 111.9,46.9 206.7,13.6 		"/>
		<polygon class="st0" points="187.7,122.6 78.7,141.6 111.9,46.9 206.7,13.6 		"/>
		<polygon class="st0" points="187.7,122.6 78.7,141.6 111.9,46.9 206.7,13.6 		"/>
		<polygon class="st0" points="187.7,122.6 78.8,141.6 111.9,46.9 206.7,13.7 		"/>
		<polygon class="st0" points="187.8,122.7 78.8,141.6 111.9,46.9 206.7,13.7 		"/>
		<polygon class="st0" points="187.8,122.7 78.8,141.6 111.9,46.9 206.7,13.7 		"/>
		<polygon class="st0" points="187.8,122.7 78.8,141.7 111.9,46.9 206.8,13.7 		"/>
		<polygon class="st0" points="187.8,122.7 78.8,141.7 111.9,47 206.8,13.7 		"/>
		<polygon class="st0" points="187.9,122.8 78.8,141.7 111.9,47 206.8,13.7 		"/>
		<polygon class="st0" points="187.9,122.8 78.9,141.7 112,47 206.8,13.8 		"/>
		<polygon class="st0" points="187.9,122.8 78.9,141.7 112,47 206.8,13.8 		"/>
		<polygon class="st0" points="187.9,122.8 78.9,141.7 112,47 206.8,13.8 		"/>
		<polygon class="st0" points="188,122.8 78.9,141.8 112,47 206.9,13.8 		"/>
		<polygon class="st0" points="188,122.9 78.9,141.8 112,47 206.9,13.8 		"/>
		<polygon class="st0" points="188,122.9 78.9,141.8 112,47.1 206.9,13.8 		"/>
		<polygon class="st0" points="188,122.9 78.9,141.8 112,47.1 206.9,13.8 		"/>
		<polygon class="st0" points="188,122.9 79,141.8 112,47.1 206.9,13.9 		"/>
		<polygon class="st0" points="188.1,122.9 79,141.8 112,47.1 207,13.9 		"/>
		<polygon class="st0" points="188.1,123 79,141.9 112,47.1 207,13.9 		"/>
		<polygon class="st0" points="188.1,123 79,141.9 112.1,47.1 207,13.9 		"/>
		<polygon class="st0" points="188.1,123 79,141.9 112.1,47.1 207,13.9 		"/>
		<polygon class="st0" points="188.2,123 79,141.9 112.1,47.1 207,13.9 		"/>
		<polygon class="st0" points="188.2,123 79.1,141.9 112.1,47.2 207,13.9 		"/>
		<polygon class="st0" points="188.2,123.1 79.1,141.9 112.1,47.2 207.1,14 		"/>
		<polygon class="st0" points="188.2,123.1 79.1,141.9 112.1,47.2 207.1,14 		"/>
		<polygon class="st0" points="188.2,123.1 79.1,142 112.1,47.2 207.1,14 		"/>
		<polygon class="st0" points="188.3,123.1 79.1,142 112.1,47.2 207.1,14 		"/>
		<polygon class="st0" points="188.3,123.2 79.1,142 112.1,47.2 207.1,14 		"/>
		<polygon class="st0" points="188.3,123.2 79.1,142 112.1,47.2 207.1,14 		"/>
		<polygon class="st0" points="188.3,123.2 79.2,142 112.1,47.2 207.2,14 		"/>
		<polygon class="st0" points="188.4,123.2 79.2,142 112.2,47.3 207.2,14.1 		"/>
		<polygon class="st0" points="188.4,123.2 79.2,142.1 112.2,47.3 207.2,14.1 		"/>
		<polygon class="st0" points="188.4,123.3 79.2,142.1 112.2,47.3 207.2,14.1 		"/>
		<polygon class="st0" points="188.4,123.3 79.2,142.1 112.2,47.3 207.2,14.1 		"/>
		<polygon class="st0" points="188.4,123.3 79.2,142.1 112.2,47.3 207.2,14.1 		"/>
		<polygon class="st0" points="188.5,123.3 79.3,142.1 112.2,47.3 207.3,14.1 		"/>
		<polygon class="st0" points="188.5,123.3 79.3,142.1 112.2,47.3 207.3,14.1 		"/>
		<polygon class="st0" points="188.5,123.4 79.3,142.2 112.2,47.4 207.3,14.2 		"/>
		<polygon class="st0" points="188.5,123.4 79.3,142.2 112.2,47.4 207.3,14.2 		"/>
		<polygon class="st0" points="188.6,123.4 79.3,142.2 112.2,47.4 207.3,14.2 		"/>
		<polygon class="st0" points="188.6,123.4 79.3,142.2 112.2,47.4 207.3,14.2 		"/>
		<polygon class="st0" points="188.6,123.5 79.4,142.2 112.3,47.4 207.4,14.2 		"/>
		<polygon class="st0" points="188.6,123.5 79.4,142.2 112.3,47.4 207.4,14.2 		"/>
		<polygon class="st0" points="188.7,123.5 79.4,142.2 112.3,47.4 207.4,14.2 		"/>
		<polygon class="st0" points="188.7,123.5 79.4,142.3 112.3,47.4 207.4,14.3 		"/>
		<polygon class="st0" points="188.7,123.5 79.4,142.3 112.3,47.5 207.4,14.3 		"/>
		<polygon class="st0" points="188.7,123.6 79.4,142.3 112.3,47.5 207.4,14.3 		"/>
		<polygon class="st0" points="188.7,123.6 79.4,142.3 112.3,47.5 207.5,14.3 		"/>
		<polygon class="st0" points="188.8,123.6 79.5,142.3 112.3,47.5 207.5,14.3 		"/>
		<polygon class="st0" points="188.8,123.6 79.5,142.3 112.3,47.5 207.5,14.3 		"/>
		<polygon class="st0" points="188.8,123.6 79.5,142.4 112.3,47.5 207.5,14.4 		"/>
		<polygon class="st0" points="188.8,123.7 79.5,142.4 112.3,47.5 207.5,14.4 		"/>
		<polygon class="st0" points="188.9,123.7 79.5,142.4 112.4,47.5 207.6,14.4 		"/>
		<polygon class="st0" points="188.9,123.7 79.5,142.4 112.4,47.6 207.6,14.4 		"/>
		<polygon class="st0" points="188.9,123.7 79.6,142.4 112.4,47.6 207.6,14.4 		"/>
		<polygon class="st0" points="188.9,123.7 79.6,142.4 112.4,47.6 207.6,14.4 		"/>
		<polygon class="st0" points="188.9,123.8 79.6,142.5 112.4,47.6 207.6,14.4 		"/>
		<polygon class="st0" points="189,123.8 79.6,142.5 112.4,47.6 207.6,14.5 		"/>
		<polygon class="st0" points="189,123.8 79.6,142.5 112.4,47.6 207.7,14.5 		"/>
		<polygon class="st0" points="189,123.8 79.6,142.5 112.4,47.6 207.7,14.5 		"/>
		<polygon class="st0" points="189,123.9 79.7,142.5 112.4,47.7 207.7,14.5 		"/>
		<polygon class="st0" points="189.1,123.9 79.7,142.5 112.4,47.7 207.7,14.5 		"/>
		<polygon class="st0" points="189.1,123.9 79.7,142.5 112.5,47.7 207.7,14.5 		"/>
		<polygon class="st0" points="189.1,123.9 79.7,142.6 112.5,47.7 207.7,14.5 		"/>
		<polygon class="st0" points="189.1,123.9 79.7,142.6 112.5,47.7 207.8,14.6 		"/>
		<polygon class="st0" points="189.1,124 79.7,142.6 112.5,47.7 207.8,14.6 		"/>
		<polygon class="st0" points="189.2,124 79.7,142.6 112.5,47.7 207.8,14.6 		"/>
		<polygon class="st0" points="189.2,124 79.8,142.6 112.5,47.7 207.8,14.6 		"/>
		<polygon class="st0" points="189.2,124 79.8,142.6 112.5,47.8 207.8,14.6 		"/>
		<polygon class="st0" points="189.2,124 79.8,142.7 112.5,47.8 207.8,14.6 		"/>
		<polygon class="st0" points="189.3,124.1 79.8,142.7 112.5,47.8 207.9,14.6 		"/>
		<polygon class="st0" points="189.3,124.1 79.8,142.7 112.5,47.8 207.9,14.7 		"/>
		<polygon class="st0" points="189.3,124.1 79.8,142.7 112.5,47.8 207.9,14.7 		"/>
		<polygon class="st0" points="189.3,124.1 79.9,142.7 112.6,47.8 207.9,14.7 		"/>
		<polygon class="st0" points="189.4,124.2 79.9,142.7 112.6,47.8 207.9,14.7 		"/>
		<polygon class="st0" points="189.4,124.2 79.9,142.8 112.6,47.8 207.9,14.7 		"/>
		<polygon class="st0" points="189.4,124.2 79.9,142.8 112.6,47.9 208,14.7 		"/>
		<polygon class="st0" points="189.4,124.2 79.9,142.8 112.6,47.9 208,14.7 		"/>
		<polygon class="st0" points="189.4,124.2 79.9,142.8 112.6,47.9 208,14.8 		"/>
		<polygon class="st0" points="189.5,124.3 79.9,142.8 112.6,47.9 208,14.8 		"/>
		<polygon class="st0" points="189.5,124.3 80,142.8 112.6,47.9 208,14.8 		"/>
		<polygon class="st0" points="189.5,124.3 80,142.8 112.6,47.9 208,14.8 		"/>
		<polygon class="st0" points="189.5,124.3 80,142.9 112.6,47.9 208.1,14.8 		"/>
		<polygon class="st0" points="189.6,124.3 80,142.9 112.6,48 208.1,14.8 		"/>
	</g>
	<polygon class="st1" points="187.3,122.2 78.4,141.3 111.7,46.6 206.4,13.4 	"/>
	
		<radialGradient id="SVGID_1_" cx="167.4487" cy="-56.8147" r="74.3085" gradientTransform="matrix(0.7071 -0.7071 0.7071 0.7071 71.2457 243.0016)" gradientUnits="userSpaceOnUse">
		<stop  offset="0" style="stop-color:#FFFFFF"/>
		<stop  offset="1" style="stop-color:#000000"/>
	</radialGradient>
	<polygon class="st2" points="187.3,122.2 78.4,141.3 111.7,46.6 206.4,13.4 	"/>
	<g>
		<g>
			<g>
				<path class="st3" d="M108,133.1l-0.8-1.5l0,0l-0.6,0.1l-0.5,1.8l-0.8,0.1l1.3-4.9l1.4-0.2c0.5-0.1,0.8,0,1,0.2s0.2,0.6,0.1,1.1
					c-0.2,0.7-0.5,1.2-1.1,1.5l0.9,1.7L108,133.1z M106.8,130.9l0.6-0.1c0.2,0,0.4-0.1,0.5-0.3c0.2-0.1,0.3-0.4,0.4-0.6
					c0.1-0.3,0.1-0.5,0-0.6s-0.3-0.1-0.4-0.1l-0.6,0.1L106.8,130.9z"/>
				<path class="st3" d="M112.9,129.2l-0.9,3.3l-0.8,0.1l0.1-0.3c-0.3,0.3-0.7,0.5-1,0.6s-0.5,0-0.6-0.2s-0.1-0.4,0-0.8l0.6-2.2
					l0.7-0.1l-0.5,2.1c-0.1,0.4,0,0.5,0.4,0.5c0.2,0,0.5-0.1,0.7-0.3l0.6-2.4L112.9,129.2z"/>
				<path class="st3" d="M116.2,128.8c0.1,0.2,0.1,0.5,0,0.8l-0.6,2.2l-0.8,0.1l0.5-2.1c0-0.2,0-0.3,0-0.4c-0.1-0.1-0.2-0.1-0.3-0.1
					c-0.2,0-0.5,0.2-0.7,0.3l-0.6,2.4l-0.8,0.1l0.9-3.3l0.8-0.1l-0.1,0.3c0.3-0.3,0.7-0.5,1.1-0.6
					C115.8,128.6,116.1,128.6,116.2,128.8z"/>
				<path class="st3" d="M117.5,128.4l0.4-1.4l0.8-0.1l-0.4,1.4l1.1-0.2l-0.2,0.7l-1.1,0.2l-0.4,1.6c0,0.1,0,0.2,0,0.3
					s0.1,0.1,0.3,0.1c0.2,0,0.3-0.2,0.5-0.4l0.5,0.2c-0.3,0.5-0.7,0.8-1.2,0.9c-0.3,0.1-0.6,0-0.7-0.2s-0.2-0.4-0.1-0.7l0.4-1.6
					l-0.4,0.1l0.2-0.7L117.5,128.4z"/>
				<path class="st3" d="M120.4,127.2c-0.1-0.1-0.1-0.2,0-0.3c0-0.1,0.1-0.3,0.2-0.4s0.2-0.2,0.4-0.2c0.1,0,0.2,0,0.3,0.1
					c0.1,0.1,0.1,0.2,0,0.3c0,0.1-0.1,0.3-0.2,0.4s-0.2,0.2-0.4,0.2C120.6,127.3,120.5,127.2,120.4,127.2z M119.3,131.2l0.8-3.3
					l0.8-0.1l-0.8,3.3L119.3,131.2z"/>
				<path class="st3" d="M126.3,127.1c0.1,0.2,0.1,0.5,0,0.8l-0.5,2.2l-0.8,0.1l0.5-2.1c0-0.2,0-0.3,0-0.4c-0.1-0.1-0.2-0.1-0.3-0.1
					c-0.3,0-0.5,0.2-0.7,0.4c0,0.1,0,0.2,0,0.2l-0.5,2.2l-0.8,0.1l0.5-2.1c0-0.2,0-0.3,0-0.4c-0.1-0.1-0.2-0.1-0.3-0.1
					c-0.3,0-0.5,0.2-0.7,0.3l-0.6,2.4l-0.8,0.1l0.8-3.3l0.8-0.1l-0.1,0.3c0.3-0.3,0.7-0.5,1.1-0.6s0.7,0.1,0.7,0.4
					c0.4-0.4,0.8-0.7,1.2-0.7C126,126.8,126.2,126.9,126.3,127.1z"/>
				<path class="st3" d="M127.8,128.4c0,0.3,0,0.4,0.2,0.6c0.1,0.1,0.3,0.2,0.6,0.1c0.4-0.1,0.7-0.3,1-0.6l0.6,0.2
					c-0.5,0.6-1,1-1.7,1.1c-0.5,0.1-0.9,0-1.1-0.3s-0.3-0.7-0.2-1.2c0.1-0.5,0.4-1,0.8-1.3c0.4-0.4,0.8-0.6,1.3-0.7
					c0.2,0,0.4,0,0.6,0c0.2,0,0.3,0.1,0.5,0.2c0.1,0.1,0.2,0.3,0.3,0.6c0,0.3,0,0.6-0.1,0.9L127.8,128.4z M129.6,127.5
					c0-0.5-0.2-0.6-0.6-0.6c-0.2,0-0.4,0.1-0.6,0.3c-0.2,0.1-0.3,0.3-0.4,0.6L129.6,127.5z"/>
			</g>
			<g>
				<path class="st3" d="M91.1,132.1l-1.1,0.2l0.2-0.8l3-0.5l-0.2,0.8l-1.1,0.2l-1.2,4.1l-0.8,0.1L91.1,132.1L91.1,132.1z"/>
				<path class="st3" d="M92.4,135.4c-0.2-0.3-0.2-0.6-0.1-1.1s0.4-0.9,0.8-1.3c0.4-0.4,0.8-0.6,1.2-0.7c0.5-0.1,0.8,0,1,0.3
					s0.2,0.7,0.1,1.1c-0.1,0.5-0.4,0.9-0.8,1.3c-0.4,0.4-0.8,0.6-1.2,0.7C92.9,135.8,92.5,135.7,92.4,135.4z M93.4,133.4
					c-0.2,0.2-0.4,0.5-0.4,0.8c-0.1,0.3-0.1,0.5,0,0.7c0.1,0.1,0.3,0.2,0.5,0.2s0.5-0.2,0.7-0.4s0.4-0.5,0.4-0.8
					c0.1-0.3,0.1-0.5,0-0.7c-0.1-0.1-0.3-0.2-0.5-0.2C93.9,133.1,93.7,133.2,93.4,133.4z"/>
				<path class="st3" d="M97.1,130.1l0.7-0.1l-1.5,5.2l-0.7,0.1L97.1,130.1z M98.3,134.8l-0.8,0.1l-0.7-1.5l1.6-1.7l0.8-0.1
					l-1.6,1.6L98.3,134.8z"/>
				<path class="st3" d="M100,130.8c-0.1-0.1-0.1-0.2,0-0.3c0-0.1,0.1-0.3,0.2-0.4c0.1-0.1,0.2-0.2,0.3-0.2c0.1,0,0.2,0,0.3,0.1
					c0.1,0.1,0.1,0.2,0,0.3c0,0.1-0.1,0.3-0.2,0.4c-0.1,0.1-0.2,0.2-0.3,0.2C100.2,130.9,100.1,130.8,100,130.8z M98.9,134.7
					l0.9-3.2l0.7-0.1l-0.9,3.2L98.9,134.7z"/>
				<path class="st3" d="M100.9,134c-0.2-0.3-0.2-0.7-0.1-1.2s0.4-0.9,0.8-1.3c0.4-0.4,0.8-0.6,1.3-0.7c0.5-0.1,0.8,0,1,0.3
					s0.2,0.7,0.1,1.2s-0.4,0.9-0.8,1.3c-0.4,0.4-0.8,0.6-1.3,0.7S101.1,134.3,100.9,134z M102,132c-0.2,0.2-0.4,0.5-0.4,0.8
					c-0.1,0.3-0.1,0.5,0,0.7s0.3,0.2,0.5,0.2s0.5-0.2,0.7-0.4s0.4-0.5,0.4-0.8c0.1-0.3,0.1-0.5,0-0.7c-0.1-0.1-0.3-0.2-0.5-0.2
					C102.4,131.6,102.2,131.7,102,132z"/>
			</g>
		</g>
		<g>
			<path class="st3" d="M87.7,134.2c0.5-1.6-0.2-2.7-1.5-2.4c-1.3,0.2-2.8,1.7-3.2,3.2c-0.5,1.6,0.2,2.7,1.5,2.5
				C85.7,137.3,87.2,135.8,87.7,134.2L87.7,134.2z M83.4,135c0.4-1.2,1.5-2.4,2.6-2.6c1-0.2,1.6,0.7,1.2,1.9
				c-0.4,1.3-1.5,2.4-2.6,2.6S83,136.2,83.4,135L83.4,135z"/>
			<path class="st4" d="M85.1,135.1c0.2,0,0.4-0.3,0.5-0.5s0-0.4-0.2-0.4s-0.4,0.3-0.5,0.5C84.8,134.9,84.9,135.1,85.1,135.1
				L85.1,135.1z"/>
		</g>
	</g>
</g>
<g>
	<g>
		<g>
			<polygon class="st5" points="149,84.4 100.8,96.8 116.2,51.5 161.4,36.2 			"/>
		</g>
		<g>
			<polygon class="st5" points="148.9,84.4 100.8,96.8 116.2,51.5 161.4,36.2 			"/>
		</g>
		<g>
			<polygon class="st5" points="148.9,84.4 100.8,96.8 116.2,51.5 161.4,36.2 			"/>
		</g>
		<g>
			<polygon class="st5" points="148.9,84.4 100.8,96.8 116.1,51.5 161.4,36.2 			"/>
		</g>
		<g>
			<polygon class="st5" points="148.9,84.4 100.8,96.8 116.1,51.5 161.4,36.2 			"/>
		</g>
		<g>
			<polygon class="st5" points="148.9,84.4 100.8,96.8 116.1,51.5 161.4,36.2 			"/>
		</g>
		<g>
			<polygon class="st5" points="148.9,84.4 100.7,96.8 116.1,51.5 161.4,36.2 			"/>
		</g>
		<g>
			<polygon class="st5" points="148.9,84.4 100.7,96.8 116.1,51.5 161.4,36.2 			"/>
		</g>
		<g>
			<polygon class="st5" points="148.9,84.4 100.7,96.8 116.1,51.5 161.4,36.2 			"/>
		</g>
		<g>
			<polygon class="st5" points="148.9,84.4 100.7,96.8 116.1,51.5 161.4,36.2 			"/>
		</g>
		<g>
			<polygon class="st5" points="148.9,84.4 100.7,96.8 116.1,51.5 161.4,36.2 			"/>
		</g>
		<g>
			<polygon class="st5" points="148.9,84.4 100.7,96.8 116.1,51.5 161.3,36.2 			"/>
		</g>
		<g>
			<polygon class="st5" points="148.9,84.4 100.7,96.8 116.1,51.5 161.3,36.2 			"/>
		</g>
		<g>
			<polygon class="st5" points="148.9,84.4 100.7,96.8 116.1,51.5 161.3,36.2 			"/>
		</g>
		<g>
			<polygon class="st5" points="148.9,84.4 100.7,96.8 116.1,51.5 161.3,36.1 			"/>
		</g>
		<g>
			<polygon class="st5" points="148.9,84.4 100.7,96.8 116.1,51.5 161.3,36.1 			"/>
		</g>
		<g>
			<polygon class="st5" points="148.8,84.4 100.7,96.8 116.1,51.5 161.3,36.1 			"/>
		</g>
		<g>
			<polygon class="st5" points="148.8,84.3 100.7,96.8 116.1,51.5 161.3,36.1 			"/>
		</g>
		<g>
			<polygon class="st5" points="148.8,84.3 100.7,96.7 116.1,51.5 161.3,36.1 			"/>
		</g>
		<g>
			<polygon class="st5" points="148.8,84.3 100.7,96.7 116.1,51.5 161.3,36.1 			"/>
		</g>
		<g>
			<polygon class="st5" points="148.8,84.3 100.7,96.7 116.1,51.5 161.3,36.1 			"/>
		</g>
		<g>
			<polygon class="st5" points="148.8,84.3 100.7,96.7 116.1,51.5 161.3,36.1 			"/>
		</g>
		<g>
			<polygon class="st5" points="148.8,84.3 100.7,96.7 116.1,51.5 161.3,36.1 			"/>
		</g>
		<g>
			<polygon class="st5" points="148.8,84.3 100.7,96.7 116.1,51.5 161.3,36.1 			"/>
		</g>
		<g>
			<polygon class="st5" points="148.8,84.3 100.7,96.7 116,51.4 161.3,36.1 			"/>
		</g>
		<g>
			<polygon class="st5" points="148.8,84.3 100.7,96.7 116,51.4 161.3,36.1 			"/>
		</g>
		<g>
			<polygon class="st5" points="148.8,84.3 100.6,96.7 116,51.4 161.2,36.1 			"/>
		</g>
		<g>
			<polygon class="st5" points="148.8,84.3 100.6,96.7 116,51.4 161.2,36.1 			"/>
		</g>
		<g>
			<polygon class="st5" points="148.8,84.3 100.6,96.7 116,51.4 161.2,36.1 			"/>
		</g>
		<g>
			<polygon class="st5" points="148.8,84.3 100.6,96.7 116,51.4 161.2,36.1 			"/>
		</g>
		<g>
			<polygon class="st5" points="148.8,84.3 100.6,96.7 116,51.4 161.2,36.1 			"/>
		</g>
		<g>
			<polygon class="st5" points="148.7,84.3 100.6,96.7 116,51.4 161.2,36.1 			"/>
		</g>
		<g>
			<polygon class="st5" points="148.7,84.3 100.6,96.7 116,51.4 161.2,36.1 			"/>
		</g>
		<g>
			<polygon class="st5" points="148.7,84.3 100.6,96.7 116,51.4 161.2,36.1 			"/>
		</g>
		<g>
			<polygon class="st5" points="148.7,84.3 100.6,96.7 116,51.4 161.2,36.1 			"/>
		</g>
		<g>
			<polygon class="st5" points="148.7,84.3 100.6,96.7 116,51.4 161.2,36.1 			"/>
		</g>
		<g>
			<polygon class="st5" points="148.7,84.3 100.6,96.7 116,51.4 161.2,36.1 			"/>
		</g>
		<g>
			<polygon class="st5" points="148.7,84.2 100.6,96.7 116,51.4 161.2,36.1 			"/>
		</g>
		<g>
			<polygon class="st5" points="148.7,84.2 100.6,96.6 116,51.4 161.2,36.1 			"/>
		</g>
		<g>
			<polygon class="st5" points="148.7,84.2 100.6,96.6 116,51.4 161.2,36.1 			"/>
		</g>
		<g>
			<polygon class="st5" points="148.7,84.2 100.6,96.6 116,51.4 161.2,36.1 			"/>
		</g>
		<g>
			<polygon class="st5" points="148.7,84.2 100.6,96.6 116,51.4 161.2,36.1 			"/>
		</g>
		<g>
			<polygon class="st5" points="148.7,84.2 100.6,96.6 116,51.4 161.1,36.1 			"/>
		</g>
		<g>
			<polygon class="st5" points="148.7,84.2 100.6,96.6 116,51.4 161.1,36.1 			"/>
		</g>
		<g>
			<polygon class="st5" points="148.7,84.2 100.6,96.6 115.9,51.4 161.1,36 			"/>
		</g>
		<g>
			<polygon class="st5" points="148.7,84.2 100.6,96.6 115.9,51.4 161.1,36 			"/>
		</g>
		<g>
			<polygon class="st5" points="148.6,84.2 100.6,96.6 115.9,51.4 161.1,36 			"/>
		</g>
		<g>
			<polygon class="st5" points="148.6,84.2 100.5,96.6 115.9,51.4 161.1,36 			"/>
		</g>
		<g>
			<polygon class="st5" points="148.6,84.2 100.5,96.6 115.9,51.4 161.1,36 			"/>
		</g>
		<g>
			<polygon class="st5" points="148.6,84.2 100.5,96.6 115.9,51.4 161.1,36 			"/>
		</g>
		<g>
			<polygon class="st5" points="148.6,84.2 100.5,96.6 115.9,51.4 161.1,36 			"/>
		</g>
		<g>
			<polygon class="st5" points="148.6,84.2 100.5,96.6 115.9,51.4 161.1,36 			"/>
		</g>
		<g>
			<polygon class="st5" points="148.6,84.2 100.5,96.6 115.9,51.4 161.1,36 			"/>
		</g>
		<g>
			<polygon class="st5" points="148.6,84.2 100.5,96.6 115.9,51.4 161.1,36 			"/>
		</g>
		<g>
			<polygon class="st5" points="148.6,84.2 100.5,96.6 115.9,51.3 161.1,36 			"/>
		</g>
		<g>
			<polygon class="st5" points="148.6,84.2 100.5,96.6 115.9,51.3 161.1,36 			"/>
		</g>
		<g>
			<polygon class="st5" points="148.6,84.1 100.5,96.6 115.9,51.3 161.1,36 			"/>
		</g>
		<g>
			<polygon class="st5" points="148.6,84.1 100.5,96.6 115.9,51.3 161,36 			"/>
		</g>
		<g>
			<polygon class="st5" points="148.6,84.1 100.5,96.6 115.9,51.3 161,36 			"/>
		</g>
		<g>
			<polygon class="st5" points="148.6,84.1 100.5,96.5 115.9,51.3 161,36 			"/>
		</g>
		<g>
			<polygon class="st5" points="148.6,84.1 100.5,96.5 115.9,51.3 161,36 			"/>
		</g>
		<g>
			<polygon class="st5" points="148.5,84.1 100.5,96.5 115.9,51.3 161,36 			"/>
		</g>
		<g>
			<polygon class="st5" points="148.5,84.1 100.5,96.5 115.9,51.3 161,36 			"/>
		</g>
		<g>
			<polygon class="st5" points="148.5,84.1 100.5,96.5 115.9,51.3 161,36 			"/>
		</g>
		<g>
			<polygon class="st5" points="148.5,84.1 100.5,96.5 115.8,51.3 161,36 			"/>
		</g>
		<g>
			<polygon class="st5" points="148.5,84.1 100.5,96.5 115.8,51.3 161,36 			"/>
		</g>
		<g>
			<polygon class="st5" points="148.5,84.1 100.5,96.5 115.8,51.3 161,36 			"/>
		</g>
		<g>
			<polygon class="st5" points="148.5,84.1 100.4,96.5 115.8,51.3 161,36 			"/>
		</g>
		<g>
			<polygon class="st5" points="148.5,84.1 100.4,96.5 115.8,51.3 161,36 			"/>
		</g>
		<g>
			<polygon class="st5" points="148.5,84.1 100.4,96.5 115.8,51.3 161,36 			"/>
		</g>
		<g>
			<polygon class="st5" points="148.5,84.1 100.4,96.5 115.8,51.3 161,36 			"/>
		</g>
		<g>
			<polygon class="st5" points="148.5,84.1 100.4,96.5 115.8,51.3 161,36 			"/>
		</g>
		<g>
			<polygon class="st5" points="148.5,84.1 100.4,96.5 115.8,51.3 161,36 			"/>
		</g>
		<g>
			<polygon class="st5" points="148.5,84.1 100.4,96.5 115.8,51.3 160.9,36 			"/>
		</g>
		<g>
			<polygon class="st5" points="148.5,84.1 100.4,96.5 115.8,51.3 160.9,35.9 			"/>
		</g>
		<g>
			<polygon class="st5" points="148.5,84.1 100.4,96.5 115.8,51.3 160.9,35.9 			"/>
		</g>
		<g>
			<polygon class="st5" points="148.4,84 100.4,96.5 115.8,51.3 160.9,35.9 			"/>
		</g>
		<g>
			<polygon class="st5" points="148.4,84 100.4,96.5 115.8,51.3 160.9,35.9 			"/>
		</g>
		<g>
			<polygon class="st5" points="148.4,84 100.4,96.5 115.8,51.3 160.9,35.9 			"/>
		</g>
		<g>
			<polygon class="st5" points="148.4,84 100.4,96.4 115.8,51.3 160.9,35.9 			"/>
		</g>
		<g>
			<polygon class="st5" points="148.4,84 100.4,96.4 115.8,51.3 160.9,35.9 			"/>
		</g>
		<g>
			<polygon class="st5" points="148.4,84 100.4,96.4 115.8,51.3 160.9,35.9 			"/>
		</g>
		<g>
			<polygon class="st5" points="148.4,84 100.4,96.4 115.8,51.3 160.9,35.9 			"/>
		</g>
		<g>
			<polygon class="st5" points="148.4,84 100.4,96.4 115.8,51.3 160.9,35.9 			"/>
		</g>
		<g>
			<polygon class="st5" points="148.4,84 100.4,96.4 115.7,51.2 160.9,35.9 			"/>
		</g>
		<g>
			<polygon class="st5" points="148.4,84 100.4,96.4 115.7,51.2 160.9,35.9 			"/>
		</g>
		<g>
			<polygon class="st5" points="148.4,84 100.4,96.4 115.7,51.2 160.9,35.9 			"/>
		</g>
		<g>
			<polygon class="st5" points="148.4,84 100.3,96.4 115.7,51.2 160.9,35.9 			"/>
		</g>
		<g>
			<polygon class="st5" points="148.4,84 100.3,96.4 115.7,51.2 160.8,35.9 			"/>
		</g>
		<g>
			<polygon class="st5" points="148.4,84 100.3,96.4 115.7,51.2 160.8,35.9 			"/>
		</g>
		<g>
			<polygon class="st5" points="148.3,84 100.3,96.4 115.7,51.2 160.8,35.9 			"/>
		</g>
		<g>
			<polygon class="st5" points="148.3,84 100.3,96.4 115.7,51.2 160.8,35.9 			"/>
		</g>
		<g>
			<polygon class="st5" points="148.3,84 100.3,96.4 115.7,51.2 160.8,35.9 			"/>
		</g>
		<g>
			<polygon class="st5" points="148.3,84 100.3,96.4 115.7,51.2 160.8,35.9 			"/>
		</g>
		<g>
			<polygon class="st5" points="148.3,84 100.3,96.4 115.7,51.2 160.8,35.9 			"/>
		</g>
		<g>
			<polygon class="st5" points="148.3,83.9 100.3,96.4 115.7,51.2 160.8,35.9 			"/>
		</g>
		<g>
			<polygon class="st5" points="148.3,83.9 100.3,96.4 115.7,51.2 160.8,35.9 			"/>
		</g>
		<g>
			<polygon class="st5" points="148.3,83.9 100.3,96.4 115.7,51.2 160.8,35.9 			"/>
		</g>
		<g>
			<polygon class="st5" points="148.3,83.9 100.3,96.4 115.7,51.2 160.8,35.9 			"/>
		</g>
		<g>
			<polygon class="st5" points="148.3,83.9 100.3,96.4 115.7,51.2 160.8,35.9 			"/>
		</g>
		<g>
			<polygon class="st5" points="148.3,83.9 100.3,96.3 115.7,51.2 160.8,35.9 			"/>
		</g>
		<g>
			<polygon class="st5" points="148.3,83.9 100.3,96.3 115.7,51.2 160.8,35.9 			"/>
		</g>
	</g>
	<g>
		<g>
			<polygon class="st5" points="148.3,83.8 100.3,96.4 115.6,51.4 160.7,36 			"/>
		</g>
	</g>
	<g>
		<polygon class="st6" points="148.3,83.9 100.3,96.3 115.7,51.2 160.8,35.9 		"/>
	</g>
	<g class="st7">
		
			<radialGradient id="SVGID_2_" cx="167.0244" cy="-81.104" r="34.3523" gradientTransform="matrix(0.7071 -0.7071 0.7071 0.7071 71.2457 243.0016)" gradientUnits="userSpaceOnUse">
			<stop  offset="0" style="stop-color:#FFFFFF"/>
			<stop  offset="1" style="stop-color:#000000"/>
		</radialGradient>
		<polygon class="st8" points="148.3,83.9 100.3,96.3 115.7,51.2 160.8,35.9 		"/>
	</g>
	<g>
		<polygon class="st6" points="148.3,83.9 100.3,96.3 115.7,51.2 160.8,35.9 		"/>
	</g>
	<g>
		<g>
			<path class="st3" d="M112.4,87l-1.1,0.3l0.2-0.7l2.9-0.8l-0.2,0.7l-1.1,0.3l-1,3.5l-0.7,0.2L112.4,87L112.4,87z"/>
			<path class="st3" d="M113.7,89.6c-0.2-0.2-0.2-0.5-0.1-1c0.1-0.4,0.3-0.8,0.7-1.2c0.3-0.3,0.7-0.6,1.2-0.7s0.8-0.1,1,0.1
				s0.2,0.5,0.1,1c-0.1,0.4-0.3,0.8-0.7,1.2c-0.3,0.3-0.7,0.6-1.2,0.7C114.2,89.9,113.9,89.8,113.7,89.6z M114.6,87.8
				c-0.2,0.2-0.3,0.4-0.4,0.7c-0.1,0.3,0,0.5,0.1,0.6s0.3,0.2,0.5,0.1s0.4-0.2,0.6-0.4c0.2-0.2,0.3-0.4,0.4-0.7
				c0.1-0.3,0-0.5-0.1-0.6s-0.3-0.2-0.5-0.1C115.1,87.5,114.9,87.6,114.6,87.8z"/>
			<path class="st3" d="M120.2,88.3l-0.7,0.2l-0.2-1.7l-1.2,2l-0.7,0.2l-0.3-2.5l0.7-0.2L118,88l1.2-2l0.7-0.2l0.2,1.7l1.2-2
				l0.7-0.2L120.2,88.3z"/>
			<path class="st3" d="M122.6,86.6c0,0.2,0,0.4,0.1,0.5s0.3,0.1,0.5,0c0.4-0.1,0.7-0.3,0.9-0.6l0.5,0.1c-0.4,0.6-1,0.9-1.6,1.1
				c-0.5,0.1-0.8,0.1-1-0.1s-0.2-0.5-0.1-1c0.1-0.4,0.3-0.8,0.7-1.2c0.3-0.3,0.8-0.6,1.2-0.7c0.2,0,0.4-0.1,0.5-0.1
				c0.2,0,0.3,0.1,0.4,0.1c0.1,0.1,0.2,0.2,0.2,0.4c0,0.2,0,0.5-0.1,0.8L122.6,86.6L122.6,86.6z M124.3,85.7c0-0.4-0.2-0.5-0.6-0.4
				c-0.2,0-0.4,0.1-0.5,0.3c-0.2,0.1-0.3,0.3-0.4,0.5L124.3,85.7z"/>
			<path class="st3" d="M127.6,84.4c-0.4,0.1-0.8,0.3-1,0.5l-0.5,2l-0.7,0.2l0.7-2.8l0.7-0.2l-0.1,0.4c0.3-0.4,0.7-0.6,1-0.7
				L127.6,84.4z"/>
		</g>
		<g>
			<path class="st3" d="M109.1,88.6c0.1-0.2,0.2-0.4,0.2-0.6c0.4-1.4-0.3-2.2-1.6-1.9c-1.3,0.3-2.7,1.7-3.1,3.1
				c-0.1,0.2-0.1,0.4-0.1,0.5c-0.1,0.2-0.2,0.4-0.2,0.5c-0.1,0.2-0.1,0.4-0.1,0.5c-0.1,0.2-0.2,0.4-0.2,0.6
				c-0.4,1.4,0.3,2.2,1.6,1.9c1.3-0.3,2.7-1.7,3.1-3.1c0.1-0.2,0.1-0.4,0.1-0.5c0.1-0.2,0.2-0.4,0.2-0.6
				C109.1,89,109.1,88.8,109.1,88.6z M105.8,92.8c-0.9,0.2-1.4-0.2-1.4-1c0.3,0.4,0.8,0.6,1.5,0.5c0.7-0.2,1.5-0.7,2.1-1.3
				C107.5,91.8,106.6,92.6,105.8,92.8z M104.7,90.7L104.7,90.7c0.3,0.4,0.8,0.6,1.5,0.4s1.4-0.7,2-1.3l0,0c-0.5,0.9-1.3,1.6-2.2,1.9
				C105.2,91.9,104.7,91.5,104.7,90.7z M106.4,90.6c-1,0.3-1.6-0.4-1.3-1.5c0.3-1.1,1.4-2.1,2.4-2.4s1.6,0.4,1.3,1.5
				C108.5,89.3,107.4,90.3,106.4,90.6z"/>
			<path class="st4" d="M107.1,88.3c-0.2,0.1-0.4,0.3-0.4,0.4c-0.1,0.2,0.1,0.3,0.2,0.3c0.2-0.1,0.4-0.3,0.4-0.4
				C107.4,88.4,107.3,88.2,107.1,88.3L107.1,88.3z"/>
		</g>
	</g>
</g>
<g>
	<g>
		<g>
			<polygon class="st0" points="189.7,124.2 80.2,142.7 112.8,47.8 208.1,14.8 			"/>
		</g>
	</g>
	<g>
		<polygon class="st0" points="187.3,122.2 78.4,141.3 111.7,46.6 206.4,13.4 		"/>
		<polygon class="st0" points="187.3,122.2 78.4,141.3 111.7,46.7 206.4,13.4 		"/>
		<polygon class="st0" points="187.3,122.2 78.5,141.3 111.7,46.7 206.4,13.4 		"/>
		<polygon class="st0" points="187.3,122.3 78.5,141.3 111.7,46.7 206.4,13.4 		"/>
		<polygon class="st0" points="187.4,122.3 78.5,141.3 111.7,46.7 206.4,13.4 		"/>
		<polygon class="st0" points="187.4,122.3 78.5,141.4 111.8,46.7 206.4,13.4 		"/>
		<polygon class="st0" points="187.4,122.3 78.5,141.4 111.8,46.7 206.5,13.4 		"/>
		<polygon class="st0" points="187.4,122.4 78.5,141.4 111.8,46.7 206.5,13.5 		"/>
		<polygon class="st0" points="187.5,122.4 78.6,141.4 111.8,46.7 206.5,13.5 		"/>
		<polygon class="st0" points="187.5,122.4 78.6,141.4 111.8,46.8 206.5,13.5 		"/>
		<polygon class="st0" points="187.5,122.4 78.6,141.4 111.8,46.8 206.5,13.5 		"/>
		<polygon class="st0" points="187.5,122.4 78.6,141.5 111.8,46.8 206.5,13.5 		"/>
		<polygon class="st0" points="187.5,122.5 78.6,141.5 111.8,46.8 206.6,13.5 		"/>
		<polygon class="st0" points="187.6,122.5 78.6,141.5 111.8,46.8 206.6,13.5 		"/>
		<polygon class="st0" points="187.6,122.5 78.6,141.5 111.8,46.8 206.6,13.6 		"/>
		<polygon class="st0" points="187.6,122.5 78.7,141.5 111.8,46.8 206.6,13.6 		"/>
		<polygon class="st0" points="187.6,122.5 78.7,141.5 111.9,46.8 206.6,13.6 		"/>
		<polygon class="st0" points="187.7,122.6 78.7,141.6 111.9,46.9 206.6,13.6 		"/>
		<polygon class="st0" points="187.7,122.6 78.7,141.6 111.9,46.9 206.7,13.6 		"/>
		<polygon class="st0" points="187.7,122.6 78.7,141.6 111.9,46.9 206.7,13.6 		"/>
		<polygon class="st0" points="187.7,122.6 78.7,141.6 111.9,46.9 206.7,13.6 		"/>
		<polygon class="st0" points="187.7,122.6 78.8,141.6 111.9,46.9 206.7,13.7 		"/>
		<polygon class="st0" points="187.8,122.7 78.8,141.6 111.9,46.9 206.7,13.7 		"/>
		<polygon class="st0" points="187.8,122.7 78.8,141.6 111.9,46.9 206.7,13.7 		"/>
		<polygon class="st0" points="187.8,122.7 78.8,141.7 111.9,46.9 206.8,13.7 		"/>
		<polygon class="st0" points="187.8,122.7 78.8,141.7 111.9,47 206.8,13.7 		"/>
		<polygon class="st0" points="187.9,122.8 78.8,141.7 111.9,47 206.8,13.7 		"/>
		<polygon class="st0" points="187.9,122.8 78.9,141.7 112,47 206.8,13.8 		"/>
		<polygon class="st0" points="187.9,122.8 78.9,141.7 112,47 206.8,13.8 		"/>
		<polygon class="st0" points="187.9,122.8 78.9,141.7 112,47 206.8,13.8 		"/>
		<polygon class="st0" points="188,122.8 78.9,141.8 112,47 206.9,13.8 		"/>
		<polygon class="st0" points="188,122.9 78.9,141.8 112,47 206.9,13.8 		"/>
		<polygon class="st0" points="188,122.9 78.9,141.8 112,47.1 206.9,13.8 		"/>
		<polygon class="st0" points="188,122.9 78.9,141.8 112,47.1 206.9,13.8 		"/>
		<polygon class="st0" points="188,122.9 79,141.8 112,47.1 206.9,13.9 		"/>
		<polygon class="st0" points="188.1,122.9 79,141.8 112,47.1 207,13.9 		"/>
		<polygon class="st0" points="188.1,123 79,141.9 112,47.1 207,13.9 		"/>
		<polygon class="st0" points="188.1,123 79,141.9 112.1,47.1 207,13.9 		"/>
		<polygon class="st0" points="188.1,123 79,141.9 112.1,47.1 207,13.9 		"/>
		<polygon class="st0" points="188.2,123 79,141.9 112.1,47.1 207,13.9 		"/>
		<polygon class="st0" points="188.2,123 79.1,141.9 112.1,47.2 207,13.9 		"/>
		<polygon class="st0" points="188.2,123.1 79.1,141.9 112.1,47.2 207.1,14 		"/>
		<polygon class="st0" points="188.2,123.1 79.1,141.9 112.1,47.2 207.1,14 		"/>
		<polygon class="st0" points="188.2,123.1 79.1,142 112.1,47.2 207.1,14 		"/>
		<polygon class="st0" points="188.3,123.1 79.1,142 112.1,47.2 207.1,14 		"/>
		<polygon class="st0" points="188.3,123.2 79.1,142 112.1,47.2 207.1,14 		"/>
		<polygon class="st0" points="188.3,123.2 79.1,142 112.1,47.2 207.1,14 		"/>
		<polygon class="st0" points="188.3,123.2 79.2,142 112.1,47.2 207.2,14 		"/>
		<polygon class="st0" points="188.4,123.2 79.2,142 112.2,47.3 207.2,14.1 		"/>
		<polygon class="st0" points="188.4,123.2 79.2,142.1 112.2,47.3 207.2,14.1 		"/>
		<polygon class="st0" points="188.4,123.3 79.2,142.1 112.2,47.3 207.2,14.1 		"/>
		<polygon class="st0" points="188.4,123.3 79.2,142.1 112.2,47.3 207.2,14.1 		"/>
		<polygon class="st0" points="188.4,123.3 79.2,142.1 112.2,47.3 207.2,14.1 		"/>
		<polygon class="st0" points="188.5,123.3 79.3,142.1 112.2,47.3 207.3,14.1 		"/>
		<polygon class="st0" points="188.5,123.3 79.3,142.1 112.2,47.3 207.3,14.1 		"/>
		<polygon class="st0" points="188.5,123.4 79.3,142.2 112.2,47.4 207.3,14.2 		"/>
		<polygon class="st0" points="188.5,123.4 79.3,142.2 112.2,47.4 207.3,14.2 		"/>
		<polygon class="st0" points="188.6,123.4 79.3,142.2 112.2,47.4 207.3,14.2 		"/>
		<polygon class="st0" points="188.6,123.4 79.3,142.2 112.2,47.4 207.3,14.2 		"/>
		<polygon class="st0" points="188.6,123.5 79.4,142.2 112.3,47.4 207.4,14.2 		"/>
		<polygon class="st0" points="188.6,123.5 79.4,142.2 112.3,47.4 207.4,14.2 		"/>
		<polygon class="st0" points="188.7,123.5 79.4,142.2 112.3,47.4 207.4,14.2 		"/>
		<polygon class="st0" points="188.7,123.5 79.4,142.3 112.3,47.4 207.4,14.3 		"/>
		<polygon class="st0" points="188.7,123.5 79.4,142.3 112.3,47.5 207.4,14.3 		"/>
		<polygon class="st0" points="188.7,123.6 79.4,142.3 112.3,47.5 207.4,14.3 		"/>
		<polygon class="st0" points="188.7,123.6 79.4,142.3 112.3,47.5 207.5,14.3 		"/>
		<polygon class="st0" points="188.8,123.6 79.5,142.3 112.3,47.5 207.5,14.3 		"/>
		<polygon class="st0" points="188.8,123.6 79.5,142.3 112.3,47.5 207.5,14.3 		"/>
		<polygon class="st0" points="188.8,123.6 79.5,142.4 112.3,47.5 207.5,14.4 		"/>
		<polygon class="st0" points="188.8,123.7 79.5,142.4 112.3,47.5 207.5,14.4 		"/>
		<polygon class="st0" points="188.9,123.7 79.5,142.4 112.4,47.5 207.6,14.4 		"/>
		<polygon class="st0" points="188.9,123.7 79.5,142.4 112.4,47.6 207.6,14.4 		"/>
		<polygon class="st0" points="188.9,123.7 79.6,142.4 112.4,47.6 207.6,14.4 		"/>
		<polygon class="st0" points="188.9,123.7 79.6,142.4 112.4,47.6 207.6,14.4 		"/>
		<polygon class="st0" points="188.9,123.8 79.6,142.5 112.4,47.6 207.6,14.4 		"/>
		<polygon class="st0" points="189,123.8 79.6,142.5 112.4,47.6 207.6,14.5 		"/>
		<polygon class="st0" points="189,123.8 79.6,142.5 112.4,47.6 207.7,14.5 		"/>
		<polygon class="st0" points="189,123.8 79.6,142.5 112.4,47.6 207.7,14.5 		"/>
		<polygon class="st0" points="189,123.9 79.7,142.5 112.4,47.7 207.7,14.5 		"/>
		<polygon class="st0" points="189.1,123.9 79.7,142.5 112.4,47.7 207.7,14.5 		"/>
		<polygon class="st0" points="189.1,123.9 79.7,142.5 112.5,47.7 207.7,14.5 		"/>
		<polygon class="st0" points="189.1,123.9 79.7,142.6 112.5,47.7 207.7,14.5 		"/>
		<polygon class="st0" points="189.1,123.9 79.7,142.6 112.5,47.7 207.8,14.6 		"/>
		<polygon class="st0" points="189.1,124 79.7,142.6 112.5,47.7 207.8,14.6 		"/>
		<polygon class="st0" points="189.2,124 79.7,142.6 112.5,47.7 207.8,14.6 		"/>
		<polygon class="st0" points="189.2,124 79.8,142.6 112.5,47.7 207.8,14.6 		"/>
		<polygon class="st0" points="189.2,124 79.8,142.6 112.5,47.8 207.8,14.6 		"/>
		<polygon class="st0" points="189.2,124 79.8,142.7 112.5,47.8 207.8,14.6 		"/>
		<polygon class="st0" points="189.3,124.1 79.8,142.7 112.5,47.8 207.9,14.6 		"/>
		<polygon class="st0" points="189.3,124.1 79.8,142.7 112.5,47.8 207.9,14.7 		"/>
		<polygon class="st0" points="189.3,124.1 79.8,142.7 112.5,47.8 207.9,14.7 		"/>
		<polygon class="st0" points="189.3,124.1 79.9,142.7 112.6,47.8 207.9,14.7 		"/>
		<polygon class="st0" points="189.4,124.2 79.9,142.7 112.6,47.8 207.9,14.7 		"/>
		<polygon class="st0" points="189.4,124.2 79.9,142.8 112.6,47.8 207.9,14.7 		"/>
		<polygon class="st0" points="189.4,124.2 79.9,142.8 112.6,47.9 208,14.7 		"/>
		<polygon class="st0" points="189.4,124.2 79.9,142.8 112.6,47.9 208,14.7 		"/>
		<polygon class="st0" points="189.4,124.2 79.9,142.8 112.6,47.9 208,14.8 		"/>
		<polygon class="st0" points="189.5,124.3 79.9,142.8 112.6,47.9 208,14.8 		"/>
		<polygon class="st0" points="189.5,124.3 80,142.8 112.6,47.9 208,14.8 		"/>
		<polygon class="st0" points="189.5,124.3 80,142.8 112.6,47.9 208,14.8 		"/>
		<polygon class="st0" points="189.5,124.3 80,142.9 112.6,47.9 208.1,14.8 		"/>
		<polygon class="st0" points="189.6,124.3 80,142.9 112.6,48 208.1,14.8 		"/>
	</g>
	<polygon class="st1" points="187.3,122.2 78.4,141.3 111.7,46.6 206.4,13.4 	"/>
	
		<radialGradient id="SVGID_3_" cx="167.4487" cy="-56.8147" r="74.3085" gradientTransform="matrix(0.7071 -0.7071 0.7071 0.7071 71.2457 243.0016)" gradientUnits="userSpaceOnUse">
		<stop  offset="0" style="stop-color:#FFFFFF"/>
		<stop  offset="1" style="stop-color:#000000"/>
	</radialGradient>
	<polygon class="st9" points="187.3,122.2 78.4,141.3 111.7,46.6 206.4,13.4 	"/>
	<g>
		<g>
			<g>
				<path class="st3" d="M108,133.1l-0.8-1.5l0,0l-0.6,0.1l-0.5,1.8l-0.8,0.1l1.3-4.9l1.4-0.2c0.5-0.1,0.8,0,1,0.2s0.2,0.6,0.1,1.1
					c-0.2,0.7-0.5,1.2-1.1,1.5l0.9,1.7L108,133.1z M106.8,130.9l0.6-0.1c0.2,0,0.4-0.1,0.5-0.3c0.2-0.1,0.3-0.4,0.4-0.6
					c0.1-0.3,0.1-0.5,0-0.6s-0.3-0.1-0.4-0.1l-0.6,0.1L106.8,130.9z"/>
				<path class="st3" d="M112.9,129.2l-0.9,3.3l-0.8,0.1l0.1-0.3c-0.3,0.3-0.7,0.5-1,0.6s-0.5,0-0.6-0.2s-0.1-0.4,0-0.8l0.6-2.2
					l0.7-0.1l-0.5,2.1c-0.1,0.4,0,0.5,0.4,0.5c0.2,0,0.5-0.1,0.7-0.3l0.6-2.4L112.9,129.2z"/>
				<path class="st3" d="M116.2,128.8c0.1,0.2,0.1,0.5,0,0.8l-0.6,2.2l-0.8,0.1l0.5-2.1c0-0.2,0-0.3,0-0.4c-0.1-0.1-0.2-0.1-0.3-0.1
					c-0.2,0-0.5,0.2-0.7,0.3l-0.6,2.4l-0.8,0.1l0.9-3.3l0.8-0.1l-0.1,0.3c0.3-0.3,0.7-0.5,1.1-0.6
					C115.8,128.6,116.1,128.6,116.2,128.8z"/>
				<path class="st3" d="M117.5,128.4l0.4-1.4l0.8-0.1l-0.4,1.4l1.1-0.2l-0.2,0.7l-1.1,0.2l-0.4,1.6c0,0.1,0,0.2,0,0.3
					s0.1,0.1,0.3,0.1c0.2,0,0.3-0.2,0.5-0.4l0.5,0.2c-0.3,0.5-0.7,0.8-1.2,0.9c-0.3,0.1-0.6,0-0.7-0.2s-0.2-0.4-0.1-0.7l0.4-1.6
					l-0.4,0.1l0.2-0.7L117.5,128.4z"/>
				<path class="st3" d="M120.4,127.2c-0.1-0.1-0.1-0.2,0-0.3c0-0.1,0.1-0.3,0.2-0.4s0.2-0.2,0.4-0.2c0.1,0,0.2,0,0.3,0.1
					c0.1,0.1,0.1,0.2,0,0.3c0,0.1-0.1,0.3-0.2,0.4s-0.2,0.2-0.4,0.2C120.6,127.3,120.5,127.2,120.4,127.2z M119.3,131.2l0.8-3.3
					l0.8-0.1l-0.8,3.3L119.3,131.2z"/>
				<path class="st3" d="M126.3,127.1c0.1,0.2,0.1,0.5,0,0.8l-0.5,2.2l-0.8,0.1l0.5-2.1c0-0.2,0-0.3,0-0.4c-0.1-0.1-0.2-0.1-0.3-0.1
					c-0.3,0-0.5,0.2-0.7,0.4c0,0.1,0,0.2,0,0.2l-0.5,2.2l-0.8,0.1l0.5-2.1c0-0.2,0-0.3,0-0.4c-0.1-0.1-0.2-0.1-0.3-0.1
					c-0.3,0-0.5,0.2-0.7,0.3l-0.6,2.4l-0.8,0.1l0.8-3.3l0.8-0.1l-0.1,0.3c0.3-0.3,0.7-0.5,1.1-0.6s0.7,0.1,0.7,0.4
					c0.4-0.4,0.8-0.7,1.2-0.7C126,126.8,126.2,126.9,126.3,127.1z"/>
				<path class="st3" d="M127.8,128.4c0,0.3,0,0.4,0.2,0.6c0.1,0.1,0.3,0.2,0.6,0.1c0.4-0.1,0.7-0.3,1-0.6l0.6,0.2
					c-0.5,0.6-1,1-1.7,1.1c-0.5,0.1-0.9,0-1.1-0.3s-0.3-0.7-0.2-1.2c0.1-0.5,0.4-1,0.8-1.3c0.4-0.4,0.8-0.6,1.3-0.7
					c0.2,0,0.4,0,0.6,0c0.2,0,0.3,0.1,0.5,0.2c0.1,0.1,0.2,0.3,0.3,0.6c0,0.3,0,0.6-0.1,0.9L127.8,128.4z M129.6,127.5
					c0-0.5-0.2-0.6-0.6-0.6c-0.2,0-0.4,0.1-0.6,0.3c-0.2,0.1-0.3,0.3-0.4,0.6L129.6,127.5z"/>
			</g>
			<g>
				<path class="st3" d="M91.1,132.1l-1.1,0.2l0.2-0.8l3-0.5l-0.2,0.8l-1.1,0.2l-1.2,4.1l-0.8,0.1L91.1,132.1L91.1,132.1z"/>
				<path class="st3" d="M92.4,135.4c-0.2-0.3-0.2-0.6-0.1-1.1s0.4-0.9,0.8-1.3c0.4-0.4,0.8-0.6,1.2-0.7c0.5-0.1,0.8,0,1,0.3
					s0.2,0.7,0.1,1.1c-0.1,0.5-0.4,0.9-0.8,1.3c-0.4,0.4-0.8,0.6-1.2,0.7C92.9,135.8,92.5,135.7,92.4,135.4z M93.4,133.4
					c-0.2,0.2-0.4,0.5-0.4,0.8c-0.1,0.3-0.1,0.5,0,0.7c0.1,0.1,0.3,0.2,0.5,0.2s0.5-0.2,0.7-0.4s0.4-0.5,0.4-0.8
					c0.1-0.3,0.1-0.5,0-0.7c-0.1-0.1-0.3-0.2-0.5-0.2C93.9,133.1,93.7,133.2,93.4,133.4z"/>
				<path class="st3" d="M97.1,130.1l0.7-0.1l-1.5,5.2l-0.7,0.1L97.1,130.1z M98.3,134.8l-0.8,0.1l-0.7-1.5l1.6-1.7l0.8-0.1
					l-1.6,1.6L98.3,134.8z"/>
				<path class="st3" d="M100,130.8c-0.1-0.1-0.1-0.2,0-0.3c0-0.1,0.1-0.3,0.2-0.4c0.1-0.1,0.2-0.2,0.3-0.2c0.1,0,0.2,0,0.3,0.1
					c0.1,0.1,0.1,0.2,0,0.3c0,0.1-0.1,0.3-0.2,0.4c-0.1,0.1-0.2,0.2-0.3,0.2C100.2,130.9,100.1,130.8,100,130.8z M98.9,134.7
					l0.9-3.2l0.7-0.1l-0.9,3.2L98.9,134.7z"/>
				<path class="st3" d="M100.9,134c-0.2-0.3-0.2-0.7-0.1-1.2s0.4-0.9,0.8-1.3c0.4-0.4,0.8-0.6,1.3-0.7c0.5-0.1,0.8,0,1,0.3
					s0.2,0.7,0.1,1.2s-0.4,0.9-0.8,1.3c-0.4,0.4-0.8,0.6-1.3,0.7S101.1,134.3,100.9,134z M102,132c-0.2,0.2-0.4,0.5-0.4,0.8
					c-0.1,0.3-0.1,0.5,0,0.7s0.3,0.2,0.5,0.2s0.5-0.2,0.7-0.4s0.4-0.5,0.4-0.8c0.1-0.3,0.1-0.5,0-0.7c-0.1-0.1-0.3-0.2-0.5-0.2
					C102.4,131.6,102.2,131.7,102,132z"/>
			</g>
		</g>
		<g>
			<path class="st3" d="M87.7,134.2c0.5-1.6-0.2-2.7-1.5-2.4c-1.3,0.2-2.8,1.7-3.2,3.2c-0.5,1.6,0.2,2.7,1.5,2.5
				C85.7,137.3,87.2,135.8,87.7,134.2L87.7,134.2z M83.4,135c0.4-1.2,1.5-2.4,2.6-2.6c1-0.2,1.6,0.7,1.2,1.9
				c-0.4,1.3-1.5,2.4-2.6,2.6S83,136.2,83.4,135L83.4,135z"/>
			<path class="st4" d="M85.1,135.1c0.2,0,0.4-0.3,0.5-0.5s0-0.4-0.2-0.4s-0.4,0.3-0.5,0.5C84.8,134.9,84.9,135.1,85.1,135.1
				L85.1,135.1z"/>
		</g>
	</g>
</g>
</svg>
