<svg width="40" height="40" viewBox="0 0 40 40" fill="none" xmlns="http://www.w3.org/2000/svg">
<g clip-path="url(#clip0)">
<path fill-rule="evenodd" clip-rule="evenodd" d="M19.9998 8.40039C13.9998 8.40039 8.9998 13.0004 8.3998 18.8004H8.2998V19.9004V21.0004H8.3998C8.9998 27.1004 13.9998 31.6004 19.9998 31.6004C26.3998 31.6004 31.5998 26.4004 31.5998 19.9004C31.5998 13.6004 26.3998 8.40039 19.9998 8.40039ZM13.4998 26.5004H15.8998H16.4998V24.2004H15.8998H11.7998C11.2998 23.3004 10.9998 22.3004 10.8998 21.2004H15.5998H16.4998V18.9004H15.5998H10.8998C10.9998 17.8004 11.3998 16.8004 11.7998 15.9004H15.8998H16.4998V13.6004H15.8998H13.4998C15.1998 11.9004 17.4998 10.9004 19.9998 10.9004C22.4998 10.9004 24.7998 11.9004 26.4998 13.6004H24.3998H23.4998V15.9004H24.3998H28.1998C28.6998 16.8004 28.9998 17.8004 29.0998 18.9004H24.2998H23.4998V21.2004H24.2998H29.0998C28.9998 22.3004 28.5998 23.3004 28.1998 24.2004H24.3998H23.4998V26.5004H24.3998H26.4998C24.7998 28.2004 22.5998 29.2004 19.9998 29.2004C17.4998 29.2004 15.1998 28.2004 13.4998 26.5004Z" fill="#5396D1"/>
<path d="M19.9998 21.7008C20.9387 21.7008 21.6998 20.9397 21.6998 20.0008C21.6998 19.0619 20.9387 18.3008 19.9998 18.3008C19.0609 18.3008 18.2998 19.0619 18.2998 20.0008C18.2998 20.9397 19.0609 21.7008 19.9998 21.7008Z" fill="#5396D1"/>
</g>
<defs>
<clipPath id="clip0">
<rect width="40" height="40" fill="white"/>
</clipPath>
</defs>
</svg>
