<svg width="42" height="42" viewBox="0 0 42 42" fill="none" xmlns="http://www.w3.org/2000/svg">
<path d="M21.4002 16.7002C20.4002 16.7002 19.7002 17.5002 19.7002 18.5002C19.7002 19.5002 20.5002 20.2002 21.5002 20.2002C22.5002 20.2002 23.2002 19.4002 23.2002 18.4002C23.1002 17.5002 22.3002 16.7002 21.4002 16.7002Z" fill="#E7544C"/>
<path d="M32.7004 27.9998C32.4004 27.7998 32.1004 27.7998 31.8004 27.7998C31.7004 27.7998 31.6004 27.7998 31.5004 27.7998L30.1004 26.1998C31.9004 24.0998 33.0004 21.4998 33.0004 18.4998C33.0004 11.9998 27.8004 6.7998 21.3004 6.7998C14.9004 6.7998 9.70039 11.9998 9.70039 18.4998C9.70039 21.3998 10.8004 24.0998 12.6004 26.0998L11.3004 27.6998C11.2004 27.6998 11.2004 27.6998 11.1004 27.6998C10.1004 27.6998 9.40039 28.4998 9.40039 29.3998C9.40039 30.3998 10.2004 31.0998 11.1004 31.0998C12.1004 31.0998 12.8004 30.2998 12.8004 29.3998C12.8004 29.1998 12.8004 28.9998 12.7004 28.7998L13.9004 27.2998C15.6004 28.7998 17.8004 29.6998 20.2004 29.9998V32.1998C19.9004 32.4998 19.7004 32.8998 19.7004 33.3998C19.7004 34.3998 20.5004 35.0998 21.4004 35.0998C22.4004 35.0998 23.1004 34.2998 23.1004 33.3998C23.2004 32.8998 23.0004 32.4998 22.6004 32.1998V29.8998C25.0004 29.6998 27.2004 28.6998 28.9004 27.1998L30.2004 28.6998C30.1004 28.8998 30.0004 29.1998 30.0004 29.3998C30.0004 30.3998 30.8004 31.0998 31.7004 31.0998C32.7004 31.0998 33.4004 30.2998 33.4004 29.3998C33.5004 28.8998 33.2004 28.2998 32.7004 27.9998ZM28.5004 24.1998L24.3004 19.2998C24.2004 19.7998 23.9004 20.1998 23.6004 20.5998C23.5004 20.6998 23.4004 20.6998 23.3004 20.7998L27.3004 25.4998C26.0004 26.5998 24.3004 27.2998 22.5004 27.4998V21.4998V21.2998C22.1004 21.3998 21.7004 21.4998 21.3004 21.4998C20.9004 21.4998 20.5004 21.3998 20.1004 21.2998V21.4998V27.4998C18.3004 27.2998 16.7004 26.4998 15.4004 25.3998L19.4004 20.6998C19.3004 20.5998 19.2004 20.5998 19.2004 20.4998C18.8004 20.0998 18.6004 19.5998 18.5004 19.0998L14.3004 24.0998C13.0004 22.4998 12.2004 20.4998 12.2004 18.3998C12.2004 13.2998 16.3004 9.1998 21.4004 9.1998C26.5004 9.1998 30.6004 13.2998 30.6004 18.3998C30.6004 20.5998 29.8004 22.5998 28.5004 24.1998Z" fill="#E7544C"/>
</svg>
