<svg width="40" height="40" viewBox="0 0 40 40" fill="none" xmlns="http://www.w3.org/2000/svg">
<path d="M4.59961 14.1C4.59961 17.7 7.49961 20.6 11.0996 20.6C11.7996 20.6 12.4996 20.5 13.0996 20.3C12.9996 21.1 12.8996 21.9 12.8996 22.7C12.8996 29.2 18.1996 34.4 24.5996 34.4C31.0996 34.4 36.2996 29.1 36.2996 22.7C36.2996 16.3 31.0996 11.1 24.5996 11.1C23.9996 11.1 23.4996 11.2 22.8996 11.3C23.0996 10.8 23.1996 10.3 23.1996 9.8C23.1996 7.4 21.2996 5.5 18.8996 5.5C16.7996 5.5 15.0996 7 14.6996 8.9C13.6996 8.2 12.4996 7.8 11.1996 7.8C7.79961 7.9 4.59961 10.5 4.59961 14.1ZM20.7996 9.9C20.7996 10.8 19.9996 11.6 19.0996 11.6C18.1996 11.6 17.3996 10.8 17.3996 9.9C17.3996 9 18.1996 8.2 19.0996 8.2C19.9996 8.2 20.5996 8.9 20.7996 9.9ZM15.3996 22.8C15.3996 17.7 19.4996 13.6 24.5996 13.6C29.6996 13.6 33.7996 17.7 33.7996 22.8C33.7996 27.9 29.7996 32 24.5996 32C19.5996 32 15.3996 27.9 15.3996 22.8ZM7.39961 14.2C7.39961 12 9.09961 10.3 11.2996 10.3C13.4996 10.3 15.1996 12 15.1996 14.2C15.1996 16.4 13.3996 18.1 11.2996 18.1C9.19961 18.1 7.39961 16.5 7.39961 14.2Z" fill="#E2B619"/>
<path d="M24.5994 24.4996C23.5994 24.4996 22.8994 23.6996 22.8994 22.7996C22.8994 21.7996 23.6994 21.0996 24.5994 21.0996C25.5994 21.0996 26.2994 21.8996 26.2994 22.7996C26.4994 23.5996 25.5994 24.4996 24.5994 24.4996Z" fill="#E2B619"/>
</svg>
