<svg width="44" height="44" viewBox="0 0 44 44" fill="none" xmlns="http://www.w3.org/2000/svg">
<path d="M33.7998 19.4002C33.9998 18.6002 34.0998 17.7002 34.0998 16.8002C34.0998 10.4002 28.8998 5.2002 22.4998 5.2002C15.9998 5.2002 10.7998 10.4002 10.7998 16.9002C10.7998 17.8002 10.8998 18.7002 11.0998 19.5002C10.8998 20.3002 10.7998 21.1002 10.7998 22.0002C10.7998 22.9002 10.8998 23.8002 11.0998 24.6002C10.8998 25.4002 10.7998 26.3002 10.7998 27.2002C10.7998 33.6002 15.9998 38.9002 22.4998 38.9002C28.8998 38.9002 34.1998 33.7002 34.1998 27.2002C34.1998 26.3002 34.0998 25.4002 33.8998 24.6002C34.0998 23.8002 34.1998 22.9002 34.1998 22.0002C34.0998 21.1002 33.9998 20.2002 33.7998 19.4002ZM22.4998 36.3002C18.1998 36.3002 14.6998 33.4002 13.5998 29.4002C15.6998 31.9002 18.8998 33.6002 22.4998 33.6002C26.0998 33.6002 29.1998 32.0002 31.3998 29.4002C30.2998 33.4002 26.6998 36.3002 22.4998 36.3002ZM13.6998 24.6002V24.5002C15.7998 26.9002 18.8998 28.5002 22.3998 28.5002C25.8998 28.5002 28.9998 26.9002 31.0998 24.5002V24.6002C29.9998 28.4002 26.4998 31.2002 22.2998 31.2002C18.2998 31.1002 14.7998 28.4002 13.6998 24.6002ZM22.4998 26.0002C17.3998 26.0002 13.2998 21.9002 13.2998 16.8002C13.2998 11.7002 17.3998 7.6002 22.4998 7.6002C27.5998 7.6002 31.6998 11.7002 31.6998 16.8002C31.5998 21.9002 27.4998 26.0002 22.4998 26.0002Z" fill="#95CA51"/>
<path fill-rule="evenodd" clip-rule="evenodd" d="M22.4998 15.1006C21.4998 15.1006 20.7998 15.9006 20.7998 16.8006C20.7998 17.8006 21.5998 18.5006 22.4998 18.5006C23.4998 18.5006 24.1998 17.7006 24.1998 16.8006C24.1998 15.9006 23.3998 15.1006 22.4998 15.1006Z" fill="#95CA51"/>
</svg>
