<?xml version="1.0" encoding="utf-8"?>
<!-- Generator: Adobe Illustrator 24.1.2, SVG Export Plug-In . SVG Version: 6.00 Build 0)  -->
<svg version="1.1" id="Layer_1" xmlns="http://www.w3.org/2000/svg" xmlns:xlink="http://www.w3.org/1999/xlink" x="0px" y="0px"
	 viewBox="0 0 250 175" style="enable-background:new 0 0 250 175;" xml:space="preserve">
<style type="text/css">
	.st0{fill:#B9971C;}
	.st1{fill:#E2B619;}
	.st2{opacity:0.15;}
	.st3{fill:url(#SVGID_1_);}
	.st4{fill:#FFFFFF;}
</style>
<g>
	<g>
		<g>
			<polygon class="st0" points="145.5,23.6 139.7,42.3 162.6,34.4 164.7,33.7 164.2,35.5 151.9,84 151.4,86.3 149.1,86.9 
				124.7,93.1 117.5,117.5 171.2,106.6 192.1,6.5 			"/>
		</g>
		<g>
			<polygon class="st0" points="145.5,23.6 139.7,42.3 162.6,34.4 164.7,33.6 164.2,35.5 151.9,84 151.4,86.3 149.1,86.9 
				124.7,93.1 117.4,117.5 171.2,106.6 192.1,6.5 			"/>
		</g>
		<g>
			<polygon class="st0" points="145.5,23.6 139.7,42.3 162.6,34.4 164.7,33.6 164.2,35.5 151.9,84 151.3,86.3 149,86.9 124.7,93.1 
				117.4,117.4 171.2,106.6 192.1,6.5 			"/>
		</g>
		<g>
			<polygon class="st0" points="145.4,23.6 139.6,42.3 162.5,34.4 164.7,33.6 164.2,35.5 151.9,84 151.3,86.3 149,86.9 124.7,93 
				117.4,117.4 171.2,106.6 192.1,6.5 			"/>
		</g>
		<g>
			<polygon class="st0" points="145.4,23.6 139.6,42.3 162.5,34.4 164.7,33.6 164.2,35.5 151.9,84 151.3,86.3 149,86.9 124.7,93 
				117.4,117.4 171.2,106.6 192.1,6.5 			"/>
		</g>
		<g>
			<polygon class="st0" points="145.4,23.6 139.6,42.3 162.5,34.4 164.7,33.6 164.2,35.5 151.9,84 151.3,86.3 149,86.9 124.7,93 
				117.4,117.4 171.2,106.6 192,6.5 			"/>
		</g>
		<g>
			<polygon class="st0" points="145.4,23.6 139.6,42.3 162.5,34.4 164.6,33.6 164.2,35.5 151.9,84 151.3,86.3 149,86.9 124.7,93 
				117.4,117.4 171.2,106.5 192,6.5 			"/>
		</g>
		<g>
			<polygon class="st0" points="145.4,23.6 139.6,42.3 162.5,34.3 164.6,33.6 164.1,35.5 151.9,84 151.3,86.3 149,86.9 124.7,93 
				117.4,117.4 171.2,106.5 192,6.5 			"/>
		</g>
		<g>
			<polygon class="st0" points="145.4,23.6 139.6,42.3 162.5,34.3 164.6,33.6 164.1,35.5 151.9,84 151.3,86.3 149,86.9 124.7,93 
				117.4,117.4 171.2,106.5 192,6.5 			"/>
		</g>
		<g>
			<polygon class="st0" points="145.4,23.5 139.6,42.3 162.5,34.3 164.6,33.6 164.1,35.5 151.8,84 151.3,86.3 149,86.9 124.7,93 
				117.4,117.4 171.1,106.5 192,6.5 			"/>
		</g>
		<g>
			<polygon class="st0" points="145.4,23.5 139.6,42.3 162.5,34.3 164.6,33.6 164.1,35.5 151.8,84 151.3,86.3 149,86.8 124.6,93 
				117.4,117.4 171.1,106.5 192,6.5 			"/>
		</g>
		<g>
			<polygon class="st0" points="145.4,23.5 139.6,42.3 162.5,34.3 164.6,33.6 164.1,35.5 151.8,84 151.2,86.3 148.9,86.8 124.6,93 
				117.4,117.4 171.1,106.5 192,6.5 			"/>
		</g>
		<g>
			<polygon class="st0" points="145.4,23.5 139.6,42.2 162.4,34.3 164.6,33.6 164.1,35.5 151.8,83.9 151.2,86.2 148.9,86.8 
				124.6,93 117.3,117.4 171.1,106.5 192,6.4 			"/>
		</g>
		<g>
			<polygon class="st0" points="145.4,23.5 139.6,42.2 162.4,34.3 164.6,33.6 164.1,35.5 151.8,83.9 151.2,86.2 148.9,86.8 
				124.6,93 117.3,117.3 171.1,106.4 192,6.4 			"/>
		</g>
		<g>
			<polygon class="st0" points="145.3,23.5 139.6,42.2 162.4,34.3 164.6,33.6 164.1,35.5 151.8,83.9 151.2,86.2 148.9,86.8 
				124.6,93 117.3,117.3 171.1,106.4 192,6.4 			"/>
		</g>
		<g>
			<polygon class="st0" points="145.3,23.5 139.6,42.2 162.4,34.3 164.5,33.6 164.1,35.5 151.8,83.9 151.2,86.2 148.9,86.8 
				124.6,93 117.3,117.3 171.1,106.4 192,6.4 			"/>
		</g>
		<g>
			<polygon class="st0" points="145.3,23.5 139.6,42.2 162.4,34.3 164.5,33.6 164.1,35.5 151.8,83.9 151.2,86.2 148.9,86.8 
				124.6,92.9 117.3,117.3 171.1,106.4 191.9,6.4 			"/>
		</g>
		<g>
			<polygon class="st0" points="145.3,23.5 139.6,42.2 162.4,34.3 164.5,33.6 164,35.5 151.8,83.9 151.2,86.2 148.9,86.8 
				124.6,92.9 117.3,117.3 171.1,106.4 191.9,6.4 			"/>
		</g>
		<g>
			<polygon class="st0" points="145.3,23.5 139.5,42.2 162.4,34.3 164.5,33.6 164,35.5 151.7,83.9 151.2,86.2 148.9,86.8 
				124.6,92.9 117.3,117.3 171.1,106.4 191.9,6.4 			"/>
		</g>
		<g>
			<polygon class="st0" points="145.3,23.5 139.5,42.2 162.4,34.3 164.5,33.6 164,35.5 151.7,83.9 151.2,86.2 148.9,86.8 
				124.6,92.9 117.3,117.3 171,106.4 191.9,6.4 			"/>
		</g>
		<g>
			<polygon class="st0" points="145.3,23.5 139.5,42.2 162.4,34.3 164.5,33.6 164,35.4 151.7,83.9 151.1,86.2 148.8,86.8 
				124.5,92.9 117.3,117.3 171,106.3 191.9,6.4 			"/>
		</g>
		<g>
			<polygon class="st0" points="145.3,23.5 139.5,42.2 162.4,34.3 164.5,33.6 164,35.4 151.7,83.9 151.1,86.2 148.8,86.8 
				124.5,92.9 117.3,117.3 171,106.3 191.9,6.4 			"/>
		</g>
		<g>
			<polygon class="st0" points="145.3,23.5 139.5,42.2 162.3,34.3 164.5,33.5 164,35.4 151.7,83.9 151.1,86.2 148.8,86.7 
				124.5,92.9 117.2,117.3 171,106.3 191.9,6.4 			"/>
		</g>
		<g>
			<polygon class="st0" points="145.3,23.5 139.5,42.2 162.3,34.3 164.5,33.5 164,35.4 151.7,83.9 151.1,86.2 148.8,86.7 
				124.5,92.9 117.2,117.3 171,106.3 191.9,6.4 			"/>
		</g>
		<g>
			<polygon class="st0" points="145.3,23.5 139.5,42.2 162.3,34.3 164.4,33.5 164,35.4 151.7,83.9 151.1,86.2 148.8,86.7 
				124.5,92.9 117.2,117.2 171,106.3 191.9,6.3 			"/>
		</g>
		<g>
			<polygon class="st0" points="145.2,23.5 139.5,42.2 162.3,34.3 164.4,33.5 164,35.4 151.7,83.8 151.1,86.1 148.8,86.7 
				124.5,92.9 117.2,117.2 171,106.3 191.9,6.3 			"/>
		</g>
		<g>
			<polygon class="st0" points="145.2,23.5 139.5,42.1 162.3,34.3 164.4,33.5 163.9,35.4 151.7,83.8 151.1,86.1 148.8,86.7 
				124.5,92.9 117.2,117.2 171,106.3 191.9,6.3 			"/>
		</g>
		<g>
			<polygon class="st0" points="145.2,23.5 139.5,42.1 162.3,34.2 164.4,33.5 163.9,35.4 151.6,83.8 151.1,86.1 148.8,86.7 
				124.5,92.9 117.2,117.2 171,106.2 191.9,6.3 			"/>
		</g>
		<g>
			<polygon class="st0" points="145.2,23.5 139.5,42.1 162.3,34.2 164.4,33.5 163.9,35.4 151.6,83.8 151.1,86.1 148.8,86.7 
				124.5,92.9 117.2,117.2 171,106.2 191.8,6.3 			"/>
		</g>
		<g>
			<polygon class="st0" points="145.2,23.5 139.5,42.1 162.3,34.2 164.4,33.5 163.9,35.4 151.6,83.8 151,86.1 148.7,86.7 
				124.5,92.8 117.2,117.2 170.9,106.2 191.8,6.3 			"/>
		</g>
		<g>
			<polygon class="st0" points="145.2,23.5 139.5,42.1 162.3,34.2 164.4,33.5 163.9,35.4 151.6,83.8 151,86.1 148.7,86.7 
				124.5,92.8 117.2,117.2 170.9,106.2 191.8,6.3 			"/>
		</g>
		<g>
			<polygon class="st0" points="145.2,23.5 139.5,42.1 162.2,34.2 164.4,33.5 163.9,35.4 151.6,83.8 151,86.1 148.7,86.7 
				124.4,92.8 117.2,117.2 170.9,106.2 191.8,6.3 			"/>
		</g>
		<g>
			<polygon class="st0" points="145.2,23.5 139.5,42.1 162.2,34.2 164.4,33.5 163.9,35.4 151.6,83.8 151,86.1 148.7,86.7 
				124.4,92.8 117.2,117.2 170.9,106.2 191.8,6.3 			"/>
		</g>
		<g>
			<polygon class="st0" points="145.2,23.5 139.4,42.1 162.2,34.2 164.3,33.5 163.9,35.4 151.6,83.8 151,86.1 148.7,86.7 
				124.4,92.8 117.1,117.2 170.9,106.2 191.8,6.3 			"/>
		</g>
		<g>
			<polygon class="st0" points="145.2,23.4 139.4,42.1 162.2,34.2 164.3,33.5 163.9,35.4 151.6,83.8 151,86.1 148.7,86.7 
				124.4,92.8 117.1,117.1 170.9,106.1 191.8,6.3 			"/>
		</g>
		<g>
			<polygon class="st0" points="145.2,23.4 139.4,42.1 162.2,34.2 164.3,33.5 163.8,35.4 151.6,83.8 151,86.1 148.7,86.6 
				124.4,92.8 117.1,117.1 170.9,106.1 191.8,6.3 			"/>
		</g>
		<g>
			<polygon class="st0" points="145.1,23.4 139.4,42.1 162.2,34.2 164.3,33.5 163.8,35.4 151.5,83.8 151,86.1 148.7,86.6 
				124.4,92.8 117.1,117.1 170.9,106.1 191.8,6.3 			"/>
		</g>
		<g>
			<polygon class="st0" points="145.1,23.4 139.4,42.1 162.2,34.2 164.3,33.5 163.8,35.4 151.5,83.8 151,86 148.7,86.6 124.4,92.8 
				117.1,117.1 170.9,106.1 191.8,6.2 			"/>
		</g>
		<g>
			<polygon class="st0" points="145.1,23.4 139.4,42.1 162.2,34.2 164.3,33.5 163.8,35.4 151.5,83.7 150.9,86 148.6,86.6 
				124.4,92.8 117.1,117.1 170.9,106.1 191.8,6.2 			"/>
		</g>
		<g>
			<polygon class="st0" points="145.1,23.4 139.4,42.1 162.2,34.2 164.3,33.5 163.8,35.4 151.5,83.7 150.9,86 148.6,86.6 
				124.4,92.8 117.1,117.1 170.9,106.1 191.8,6.2 			"/>
		</g>
		<g>
			<polygon class="st0" points="145.1,23.4 139.4,42 162.2,34.2 164.3,33.5 163.8,35.3 151.5,83.7 150.9,86 148.6,86.6 124.4,92.8 
				117.1,117.1 170.8,106.1 191.7,6.2 			"/>
		</g>
		<g>
			<polygon class="st0" points="145.1,23.4 139.4,42 162.1,34.2 164.3,33.5 163.8,35.3 151.5,83.7 150.9,86 148.6,86.6 124.3,92.7 
				117.1,117.1 170.8,106 191.7,6.2 			"/>
		</g>
		<g>
			<polygon class="st0" points="145.1,23.4 139.4,42 162.1,34.2 164.3,33.4 163.8,35.3 151.5,83.7 150.9,86 148.6,86.6 124.3,92.7 
				117.1,117.1 170.8,106 191.7,6.2 			"/>
		</g>
		<g>
			<polygon class="st0" points="145.1,23.4 139.4,42 162.1,34.2 164.2,33.4 163.8,35.3 151.5,83.7 150.9,86 148.6,86.6 124.3,92.7 
				117,117.1 170.8,106 191.7,6.2 			"/>
		</g>
		<g>
			<polygon class="st0" points="145.1,23.4 139.4,42 162.1,34.2 164.2,33.4 163.8,35.3 151.5,83.7 150.9,86 148.6,86.6 124.3,92.7 
				117,117.1 170.8,106 191.7,6.2 			"/>
		</g>
		<g>
			<polygon class="st0" points="145.1,23.4 139.4,42 162.1,34.2 164.2,33.4 163.7,35.3 151.4,83.7 150.9,86 148.6,86.6 124.3,92.7 
				117,117 170.8,106 191.7,6.2 			"/>
		</g>
		<g>
			<polygon class="st0" points="145.1,23.4 139.4,42 162.1,34.2 164.2,33.4 163.7,35.3 151.4,83.7 150.9,86 148.6,86.6 124.3,92.7 
				117,117 170.8,106 191.7,6.2 			"/>
		</g>
		<g>
			<polygon class="st0" points="145,23.4 139.4,42 162.1,34.2 164.2,33.4 163.7,35.3 151.4,83.7 150.8,86 148.5,86.5 124.3,92.7 
				117,117 170.8,106 191.7,6.2 			"/>
		</g>
		<g>
			<polygon class="st0" points="145,23.4 139.4,42 162.1,34.1 164.2,33.4 163.7,35.3 151.4,83.7 150.8,86 148.5,86.5 124.3,92.7 
				117,117 170.8,105.9 191.7,6.2 			"/>
		</g>
		<g>
			<polygon class="st0" points="145,23.4 139.3,42 162.1,34.1 164.2,33.4 163.7,35.3 151.4,83.7 150.8,85.9 148.5,86.5 124.3,92.7 
				117,117 170.8,105.9 191.7,6.1 			"/>
		</g>
		<g>
			<polygon class="st0" points="145,23.4 139.3,42 162,34.1 164.2,33.4 163.7,35.3 151.4,83.6 150.8,85.9 148.5,86.5 124.3,92.7 
				117,117 170.7,105.9 191.7,6.1 			"/>
		</g>
		<g>
			<polygon class="st0" points="145,23.4 139.3,42 162,34.1 164.2,33.4 163.7,35.3 151.4,83.6 150.8,85.9 148.5,86.5 124.3,92.7 
				117,117 170.7,105.9 191.6,6.1 			"/>
		</g>
		<g>
			<polygon class="st0" points="145,23.4 139.3,42 162,34.1 164.1,33.4 163.7,35.3 151.4,83.6 150.8,85.9 148.5,86.5 124.2,92.7 
				117,117 170.7,105.9 191.6,6.1 			"/>
		</g>
		<g>
			<polygon class="st0" points="145,23.4 139.3,42 162,34.1 164.1,33.4 163.7,35.3 151.4,83.6 150.8,85.9 148.5,86.5 124.2,92.7 
				117,117 170.7,105.9 191.6,6.1 			"/>
		</g>
		<g>
			<polygon class="st0" points="145,23.4 139.3,41.9 162,34.1 164.1,33.4 163.6,35.3 151.3,83.6 150.8,85.9 148.5,86.5 124.2,92.6 
				116.9,117 170.7,105.9 191.6,6.1 			"/>
		</g>
		<g>
			<polygon class="st0" points="145,23.4 139.3,41.9 162,34.1 164.1,33.4 163.6,35.3 151.3,83.6 150.8,85.9 148.5,86.5 124.2,92.6 
				116.9,116.9 170.7,105.8 191.6,6.1 			"/>
		</g>
		<g>
			<polygon class="st0" points="145,23.4 139.3,41.9 162,34.1 164.1,33.4 163.6,35.3 151.3,83.6 150.7,85.9 148.5,86.5 124.2,92.6 
				116.9,116.9 170.7,105.8 191.6,6.1 			"/>
		</g>
		<g>
			<polygon class="st0" points="144.9,23.4 139.3,41.9 162,34.1 164.1,33.4 163.6,35.3 151.3,83.6 150.7,85.9 148.4,86.5 
				124.2,92.6 116.9,116.9 170.7,105.8 191.6,6.1 			"/>
		</g>
		<g>
			<polygon class="st0" points="144.9,23.4 139.3,41.9 162,34.1 164.1,33.4 163.6,35.3 151.3,83.6 150.7,85.9 148.4,86.5 
				124.2,92.6 116.9,116.9 170.7,105.8 191.6,6.1 			"/>
		</g>
		<g>
			<polygon class="st0" points="144.9,23.3 139.3,41.9 161.9,34.1 164.1,33.4 163.6,35.3 151.3,83.6 150.7,85.9 148.4,86.5 
				124.2,92.6 116.9,116.9 170.7,105.8 191.6,6.1 			"/>
		</g>
		<g>
			<polygon class="st0" points="144.9,23.3 139.3,41.9 161.9,34.1 164.1,33.4 163.6,35.2 151.3,83.6 150.7,85.9 148.4,86.4 
				124.2,92.6 116.9,116.9 170.6,105.8 191.6,6.1 			"/>
		</g>
		<g>
			<polygon class="st0" points="144.9,23.3 139.3,41.9 161.9,34.1 164,33.4 163.6,35.2 151.3,83.6 150.7,85.9 148.4,86.4 
				124.2,92.6 116.9,116.9 170.6,105.8 191.6,6.1 			"/>
		</g>
		<g>
			<polygon class="st0" points="144.9,23.3 139.3,41.9 161.9,34.1 164,33.4 163.6,35.2 151.3,83.6 150.7,85.8 148.4,86.4 
				124.2,92.6 116.9,116.9 170.6,105.7 191.6,6 			"/>
		</g>
		<g>
			<polygon class="st0" points="144.9,23.3 139.3,41.9 161.9,34.1 164,33.3 163.5,35.2 151.2,83.5 150.7,85.8 148.4,86.4 
				124.1,92.6 116.9,116.9 170.6,105.7 191.5,6 			"/>
		</g>
		<g>
			<polygon class="st0" points="144.9,23.3 139.2,41.9 161.9,34.1 164,33.3 163.5,35.2 151.2,83.5 150.7,85.8 148.4,86.4 
				124.1,92.6 116.9,116.9 170.6,105.7 191.5,6 			"/>
		</g>
		<g>
			<polygon class="st0" points="144.9,23.3 139.2,41.9 161.9,34.1 164,33.3 163.5,35.2 151.2,83.5 150.6,85.8 148.4,86.4 
				124.1,92.6 116.8,116.9 170.6,105.7 191.5,6 			"/>
		</g>
		<g>
			<polygon class="st0" points="144.9,23.3 139.2,41.9 161.9,34.1 164,33.3 163.5,35.2 151.2,83.5 150.6,85.8 148.3,86.4 
				124.1,92.6 116.8,116.8 170.6,105.7 191.5,6 			"/>
		</g>
		<g>
			<polygon class="st0" points="144.9,23.3 139.2,41.8 161.9,34.1 164,33.3 163.5,35.2 151.2,83.5 150.6,85.8 148.3,86.4 
				124.1,92.5 116.8,116.8 170.6,105.7 191.5,6 			"/>
		</g>
		<g>
			<polygon class="st0" points="144.8,23.3 139.2,41.8 161.9,34 164,33.3 163.5,35.2 151.2,83.5 150.6,85.8 148.3,86.4 124.1,92.5 
				116.8,116.8 170.6,105.7 191.5,6 			"/>
		</g>
		<g>
			<polygon class="st0" points="144.8,23.3 139.2,41.8 161.8,34 164,33.3 163.5,35.2 151.2,83.5 150.6,85.8 148.3,86.4 124.1,92.5 
				116.8,116.8 170.6,105.6 191.5,6 			"/>
		</g>
		<g>
			<polygon class="st0" points="144.8,23.3 139.2,41.8 161.8,34 164,33.3 163.5,35.2 151.2,83.5 150.6,85.8 148.3,86.4 124.1,92.5 
				116.8,116.8 170.5,105.6 191.5,6 			"/>
		</g>
		<g>
			<polygon class="st0" points="144.8,23.3 139.2,41.8 161.8,34 163.9,33.3 163.5,35.2 151.2,83.5 150.6,85.8 148.3,86.4 
				124.1,92.5 116.8,116.8 170.5,105.6 191.5,6 			"/>
		</g>
		<g>
			<polygon class="st0" points="144.8,23.3 139.2,41.8 161.8,34 163.9,33.3 163.4,35.2 151.1,83.5 150.6,85.8 148.3,86.3 
				124.1,92.5 116.8,116.8 170.5,105.6 191.5,6 			"/>
		</g>
		<g>
			<polygon class="st0" points="144.8,23.3 139.2,41.8 161.8,34 163.9,33.3 163.4,35.2 151.1,83.5 150.6,85.8 148.3,86.3 124,92.5 
				116.8,116.8 170.5,105.6 191.5,6 			"/>
		</g>
		<g>
			<polygon class="st0" points="144.8,23.3 139.2,41.8 161.8,34 163.9,33.3 163.4,35.2 151.1,83.5 150.5,85.7 148.3,86.3 124,92.5 
				116.8,116.8 170.5,105.6 191.5,5.9 			"/>
		</g>
		<g>
			<polygon class="st0" points="144.8,23.3 139.2,41.8 161.8,34 163.9,33.3 163.4,35.2 151.1,83.5 150.5,85.7 148.2,86.3 124,92.5 
				116.7,116.8 170.5,105.6 191.4,5.9 			"/>
		</g>
		<g>
			<polygon class="st0" points="144.8,23.3 139.2,41.8 161.8,34 163.9,33.3 163.4,35.2 151.1,83.4 150.5,85.7 148.2,86.3 124,92.5 
				116.7,116.7 170.5,105.5 191.4,5.9 			"/>
		</g>
		<g>
			<polygon class="st0" points="144.8,23.3 139.2,41.8 161.8,34 163.9,33.3 163.4,35.2 151.1,83.4 150.5,85.7 148.2,86.3 124,92.5 
				116.7,116.7 170.5,105.5 191.4,5.9 			"/>
		</g>
		<g>
			<polygon class="st0" points="144.8,23.3 139.2,41.8 161.7,34 163.9,33.3 163.4,35.2 151.1,83.4 150.5,85.7 148.2,86.3 124,92.5 
				116.7,116.7 170.5,105.5 191.4,5.9 			"/>
		</g>
		<g>
			<polygon class="st0" points="144.7,23.3 139.1,41.8 161.7,34 163.9,33.3 163.4,35.2 151.1,83.4 150.5,85.7 148.2,86.3 124,92.4 
				116.7,116.7 170.5,105.5 191.4,5.9 			"/>
		</g>
		<g>
			<polygon class="st0" points="144.7,23.3 139.1,41.8 161.7,34 163.8,33.3 163.4,35.1 151.1,83.4 150.5,85.7 148.2,86.3 124,92.4 
				116.7,116.7 170.5,105.5 191.4,5.9 			"/>
		</g>
		<g>
			<polygon class="st0" points="144.7,23.3 139.1,41.7 161.7,34 163.8,33.3 163.4,35.1 151,83.4 150.5,85.7 148.2,86.3 124,92.4 
				116.7,116.7 170.4,105.5 191.4,5.9 			"/>
		</g>
		<g>
			<polygon class="st0" points="144.7,23.3 139.1,41.7 161.7,34 163.8,33.3 163.3,35.1 151,83.4 150.5,85.7 148.2,86.3 124,92.4 
				116.7,116.7 170.4,105.5 191.4,5.9 			"/>
		</g>
		<g>
			<polygon class="st0" points="144.7,23.3 139.1,41.7 161.7,34 163.8,33.2 163.3,35.1 151,83.4 150.4,85.7 148.2,86.3 124,92.4 
				116.7,116.7 170.4,105.4 191.4,5.9 			"/>
		</g>
		<g>
			<polygon class="st0" points="144.7,23.2 139.1,41.7 161.7,34 163.8,33.2 163.3,35.1 151,83.4 150.4,85.7 148.1,86.2 123.9,92.4 
				116.7,116.7 170.4,105.4 191.4,5.9 			"/>
		</g>
		<g>
			<polygon class="st0" points="144.7,23.2 139.1,41.7 161.7,34 163.8,33.2 163.3,35.1 151,83.4 150.4,85.7 148.1,86.2 123.9,92.4 
				116.7,116.7 170.4,105.4 191.4,5.9 			"/>
		</g>
		<g>
			<polygon class="st0" points="144.7,23.2 139.1,41.7 161.7,34 163.8,33.2 163.3,35.1 151,83.4 150.4,85.7 148.1,86.2 123.9,92.4 
				116.6,116.7 170.4,105.4 191.3,5.9 			"/>
		</g>
		<g>
			<polygon class="st0" points="144.7,23.2 139.1,41.7 161.7,34 163.8,33.2 163.3,35.1 151,83.4 150.4,85.6 148.1,86.2 123.9,92.4 
				116.6,116.6 170.4,105.4 191.3,5.8 			"/>
		</g>
		<g>
			<polygon class="st0" points="144.7,23.2 139.1,41.7 161.6,33.9 163.8,33.2 163.3,35.1 151,83.3 150.4,85.6 148.1,86.2 
				123.9,92.4 116.6,116.6 170.4,105.4 191.3,5.8 			"/>
		</g>
		<g>
			<polygon class="st0" points="144.7,23.2 139.1,41.7 161.6,33.9 163.7,33.2 163.3,35.1 151,83.3 150.4,85.6 148.1,86.2 
				123.9,92.4 116.6,116.6 170.4,105.4 191.3,5.8 			"/>
		</g>
		<g>
			<polygon class="st0" points="144.6,23.2 139.1,41.7 161.6,33.9 163.7,33.2 163.3,35.1 150.9,83.3 150.4,85.6 148.1,86.2 
				123.9,92.4 116.6,116.6 170.4,105.3 191.3,5.8 			"/>
		</g>
		<g>
			<polygon class="st0" points="144.6,23.2 139.1,41.7 161.6,33.9 163.7,33.2 163.2,35.1 150.9,83.3 150.4,85.6 148.1,86.2 
				123.9,92.4 116.6,116.6 170.3,105.3 191.3,5.8 			"/>
		</g>
		<g>
			<polygon class="st0" points="144.6,23.2 139.1,41.7 161.6,33.9 163.7,33.2 163.2,35.1 150.9,83.3 150.3,85.6 148.1,86.2 
				123.9,92.3 116.6,116.6 170.3,105.3 191.3,5.8 			"/>
		</g>
		<g>
			<polygon class="st0" points="144.6,23.2 139.1,41.7 161.6,33.9 163.7,33.2 163.2,35.1 150.9,83.3 150.3,85.6 148,86.2 
				123.9,92.3 116.6,116.6 170.3,105.3 191.3,5.8 			"/>
		</g>
		<g>
			<polygon class="st0" points="144.6,23.2 139.1,41.7 161.6,33.9 163.7,33.2 163.2,35.1 150.9,83.3 150.3,85.6 148,86.2 
				123.8,92.3 116.6,116.6 170.3,105.3 191.3,5.8 			"/>
		</g>
		<g>
			<polygon class="st0" points="144.6,23.2 139,41.6 161.6,33.9 163.7,33.2 163.2,35.1 150.9,83.3 150.3,85.6 148,86.2 123.8,92.3 
				116.6,116.6 170.3,105.3 191.3,5.8 			"/>
		</g>
		<g>
			<polygon class="st0" points="144.6,23.2 139,41.6 161.6,33.9 163.7,33.2 163.2,35.1 150.9,83.3 150.3,85.6 148,86.2 123.8,92.3 
				116.5,116.6 170.3,105.2 191.3,5.8 			"/>
		</g>
		<g>
			<polygon class="st0" points="144.6,23.2 139,41.6 161.5,33.9 163.7,33.2 163.2,35.1 150.9,83.3 150.3,85.6 148,86.1 123.8,92.3 
				116.5,116.6 170.3,105.2 191.3,5.8 			"/>
		</g>
		<g>
			<polygon class="st0" points="144.6,23.2 139,41.6 161.5,33.9 163.6,33.2 163.2,35.1 150.9,83.3 150.3,85.6 148,86.1 123.8,92.3 
				116.5,116.5 170.3,105.2 191.2,5.8 			"/>
		</g>
		<g>
			<polygon class="st0" points="144.6,23.2 139,41.6 161.5,33.9 163.6,33.2 163.2,35.1 150.8,83.3 150.3,85.5 148,86.1 123.8,92.3 
				116.5,116.5 170.3,105.2 191.2,5.7 			"/>
		</g>
		<g>
			<polygon class="st0" points="144.5,23.2 139,41.6 161.5,33.9 163.6,33.2 163.1,35 150.8,83.3 150.3,85.5 148,86.1 123.8,92.3 
				116.5,116.5 170.3,105.2 191.2,5.7 			"/>
		</g>
		<g>
			<polygon class="st0" points="144.5,23.2 139,41.6 161.5,33.9 163.6,33.2 163.1,35 150.8,83.2 150.2,85.5 148,86.1 123.8,92.3 
				116.5,116.5 170.2,105.2 191.2,5.7 			"/>
		</g>
	</g>
	<g>
		<g>
			<polygon class="st0" points="145.5,23.6 139.7,42.3 162.6,34.4 164.7,33.7 164.2,35.5 151.9,84 151.4,86.3 149.1,86.9 
				124.7,93.1 117.5,117.5 171.2,106.6 192.1,6.5 			"/>
		</g>
	</g>
	<g>
		<polygon class="st1" points="144.6,23.2 139,41.6 161.5,33.9 163.6,33.2 163.1,35 150.8,83.3 150.3,85.5 148,86.1 123.8,92.3 
			116.5,116.5 170.3,105.2 191.2,5.7 		"/>
	</g>
	<g class="st2">
		
			<radialGradient id="SVGID_1_" cx="187.0357" cy="-65.4768" r="53.6251" gradientTransform="matrix(0.7071 -0.7071 0.7071 0.7071 71.2457 243.0016)" gradientUnits="userSpaceOnUse">
			<stop  offset="0" style="stop-color:#FFFFFF"/>
			<stop  offset="1" style="stop-color:#000000"/>
		</radialGradient>
		<polygon class="st3" points="144.6,23.2 139,41.6 161.5,33.9 163.6,33.2 163.1,35 150.8,83.3 150.3,85.5 148,86.1 123.8,92.3 
			116.5,116.5 170.3,105.2 191.2,5.7 		"/>
	</g>
	<g>
		<g>
			<path class="st4" d="M121.5,107.4c-0.2,0.9,0.2,1.4,1,1.3c0.2,0,0.3-0.1,0.5-0.2c-0.1,0.2-0.1,0.4-0.2,0.6
				c-0.4,1.6,0.5,2.6,1.9,2.3c1.5-0.3,3-1.8,3.4-3.4c0.4-1.6-0.5-2.6-2-2.3c-0.1,0-0.3,0.1-0.4,0.1c0.1-0.1,0.1-0.3,0.2-0.4
				c0.1-0.6-0.2-0.9-0.7-0.8s-0.9,0.5-1.2,1c-0.2-0.1-0.4-0.2-0.7-0.1C122.6,105.8,121.8,106.6,121.5,107.4z M125.4,105.7
				c-0.1,0.2-0.3,0.4-0.5,0.5c-0.2,0-0.3-0.1-0.3-0.3c0.1-0.2,0.3-0.4,0.5-0.5C125.3,105.3,125.5,105.4,125.4,105.7z M123.4,109
				c0.3-1.2,1.5-2.4,2.7-2.7c1.2-0.2,1.8,0.6,1.5,1.8c-0.3,1.2-1.5,2.4-2.7,2.7C123.8,111.1,123.1,110.3,123.4,109z M122.1,107.3
				c0.1-0.5,0.6-1,1.1-1.1s0.8,0.2,0.6,0.8c-0.1,0.5-0.6,1-1.1,1.1C122.3,108.2,122,107.9,122.1,107.3z"/>
			<path class="st4" d="M125.4,109c-0.2,0-0.3-0.1-0.3-0.3c0.1-0.2,0.3-0.5,0.5-0.5s0.3,0.1,0.3,0.3
				C125.9,108.7,125.6,109,125.4,109L125.4,109z"/>
		</g>
		<g>
			<g>
				<path class="st4" d="M131.9,105.7l-1.3,0.3l0.2-0.8l3.3-0.7l-0.2,0.8l-1.3,0.3l-1,4.1l-0.8,0.2L131.9,105.7L131.9,105.7z"/>
				<path class="st4" d="M140.4,105.1c0.1,0.2,0.2,0.4,0.1,0.8L140,108l-0.8,0.2l0.5-2c0-0.2,0-0.3-0.1-0.4s-0.2-0.1-0.3-0.1
					c-0.3,0.1-0.5,0.2-0.7,0.4l-0.6,2.4l-0.8,0.2l0.7-3.2l0.8-0.2l-0.1,0.3c0.3-0.3,0.7-0.5,1.1-0.6
					C140,104.8,140.3,104.9,140.4,105.1z"/>
				<polygon class="st4" points="141.7,104.6 142.5,104.4 141.8,107.6 141,107.8 				"/>
				<path class="st4" d="M146.4,104.5l-0.7,0.4c-0.1-0.3-0.4-0.4-0.7-0.3s-0.5,0.2-0.7,0.4c-0.2,0.2-0.4,0.5-0.4,0.8
					c-0.1,0.3,0,0.5,0.1,0.7c0.1,0.1,0.3,0.2,0.6,0.1c0.4-0.1,0.7-0.3,1-0.7l0.6,0.1c-0.4,0.7-1,1.1-1.8,1.3c-0.5,0.1-0.9,0-1.1-0.2
					c-0.2-0.3-0.3-0.6-0.2-1.1s0.3-0.9,0.7-1.3s0.8-0.6,1.3-0.7C145.9,103.7,146.3,103.9,146.4,104.5z"/>
				<path class="st4" d="M136.6,106c-0.2-0.3-0.6-0.3-1.1-0.2c-0.5,0.1-1,0.3-1.3,0.7c-0.4,0.4-0.6,0.8-0.8,1.3
					c-0.1,0.5,0,0.9,0.2,1.1c0.2,0.3,0.6,0.3,1.1,0.2c0.5-0.1,1-0.3,1.3-0.7c0.4-0.4,0.6-0.8,0.8-1.3
					C136.8,106.6,136.8,106.2,136.6,106z M135.5,108c-0.2,0.2-0.4,0.3-0.7,0.4s-0.4,0-0.6-0.1c-0.1-0.1-0.2-0.4-0.1-0.7
					c0.1-0.3,0.2-0.6,0.4-0.8c0.2-0.2,0.4-0.3,0.7-0.4s0.4,0,0.6,0.1c0.1,0.1,0.2,0.4,0.1,0.7C135.9,107.6,135.7,107.8,135.5,108z"
					/>
			</g>
			<g>
				<path class="st4" d="M141.9,103.8c-0.1-0.1-0.1-0.2-0.1-0.3c0-0.1,0.1-0.3,0.2-0.4c0.1-0.1,0.3-0.2,0.4-0.2c0.1,0,0.2,0,0.3,0.1
					s0.1,0.2,0.1,0.3c0,0.1-0.1,0.3-0.2,0.4c-0.1,0.1-0.3,0.2-0.4,0.2S142,103.9,141.9,103.8z"/>
			</g>
		</g>
	</g>
</g>
</svg>
