<?xml version="1.0" encoding="utf-8"?>
<!-- Generator: Adobe Illustrator 24.1.2, SVG Export Plug-In . SVG Version: 6.00 Build 0)  -->
<svg version="1.1" id="Layer_1" xmlns="http://www.w3.org/2000/svg" xmlns:xlink="http://www.w3.org/1999/xlink" x="0px" y="0px"
	 viewBox="0 0 250 175" style="enable-background:new 0 0 250 175;" xml:space="preserve">
<style type="text/css">
	.st0{fill:#7C6398;}
	.st1{fill:#A674E5;}
	.st2{opacity:0.15;fill:url(#SVGID_1_);enable-background:new    ;}
	.st3{fill:#FFFFFF;}
	.st4{opacity:0.15;fill:url(#SVGID_2_);enable-background:new    ;}
</style>
<g>
	<g>
		<polygon class="st0" points="91.1,95.5 52.8,105.7 69.7,64.5 106.3,51.9 		"/>
		<polygon class="st0" points="91.1,95.5 52.8,105.7 69.6,64.5 106.3,51.9 		"/>
		<polygon class="st0" points="91.1,95.5 52.8,105.7 69.6,64.5 106.3,51.9 		"/>
		<polygon class="st0" points="91.1,95.5 52.7,105.6 69.6,64.5 106.3,51.8 		"/>
		<polygon class="st0" points="91.1,95.5 52.7,105.6 69.6,64.5 106.3,51.8 		"/>
		<polygon class="st0" points="91.1,95.4 52.7,105.6 69.6,64.5 106.3,51.8 		"/>
		<polygon class="st0" points="91,95.4 52.7,105.6 69.6,64.5 106.3,51.8 		"/>
		<polygon class="st0" points="91,95.4 52.7,105.6 69.6,64.4 106.3,51.8 		"/>
		<polygon class="st0" points="91,95.4 52.7,105.6 69.6,64.4 106.2,51.8 		"/>
		<polygon class="st0" points="91,95.4 52.7,105.6 69.6,64.4 106.2,51.8 		"/>
		<polygon class="st0" points="91,95.4 52.6,105.5 69.6,64.4 106.2,51.8 		"/>
		<polygon class="st0" points="90.9,95.4 52.6,105.5 69.6,64.4 106.2,51.7 		"/>
		<polygon class="st0" points="90.9,95.3 52.6,105.5 69.5,64.4 106.2,51.7 		"/>
		<polygon class="st0" points="90.9,95.3 52.6,105.5 69.5,64.4 106.2,51.7 		"/>
		<polygon class="st0" points="90.9,95.3 52.6,105.5 69.5,64.4 106.2,51.7 		"/>
		<polygon class="st0" points="90.9,95.3 52.6,105.5 69.5,64.3 106.2,51.7 		"/>
		<polygon class="st0" points="90.9,95.3 52.6,105.5 69.5,64.3 106.1,51.7 		"/>
		<polygon class="st0" points="90.8,95.3 52.5,105.4 69.5,64.3 106.1,51.7 		"/>
		<polygon class="st0" points="90.8,95.2 52.5,105.4 69.5,64.3 106.1,51.6 		"/>
		<polygon class="st0" points="90.8,95.2 52.5,105.4 69.5,64.3 106.1,51.6 		"/>
		<polygon class="st0" points="90.8,95.2 52.5,105.4 69.5,64.3 106.1,51.6 		"/>
		<polygon class="st0" points="90.8,95.2 52.5,105.4 69.5,64.3 106.1,51.6 		"/>
		<polygon class="st0" points="90.7,95.2 52.5,105.4 69.5,64.2 106.1,51.6 		"/>
		<polygon class="st0" points="90.7,95.2 52.5,105.3 69.4,64.2 106.1,51.6 		"/>
		<polygon class="st0" points="90.7,95.2 52.5,105.3 69.4,64.2 106,51.6 		"/>
		<polygon class="st0" points="90.7,95.1 52.4,105.3 69.4,64.2 106,51.5 		"/>
		<polygon class="st0" points="90.7,95.1 52.4,105.3 69.4,64.2 106,51.5 		"/>
		<polygon class="st0" points="90.7,95.1 52.4,105.3 69.4,64.2 106,51.5 		"/>
		<polygon class="st0" points="90.6,95.1 52.4,105.3 69.4,64.2 106,51.5 		"/>
		<polygon class="st0" points="90.6,95.1 52.4,105.3 69.4,64.2 106,51.5 		"/>
		<polygon class="st0" points="90.6,95.1 52.4,105.2 69.4,64.1 106,51.5 		"/>
		<polygon class="st0" points="90.6,95 52.4,105.2 69.4,64.1 106,51.5 		"/>
		<polygon class="st0" points="90.6,95 52.3,105.2 69.4,64.1 105.9,51.5 		"/>
		<polygon class="st0" points="90.6,95 52.3,105.2 69.4,64.1 105.9,51.4 		"/>
		<polygon class="st0" points="90.5,95 52.3,105.2 69.3,64.1 105.9,51.4 		"/>
		<polygon class="st0" points="90.5,95 52.3,105.2 69.3,64.1 105.9,51.4 		"/>
		<polygon class="st0" points="90.5,95 52.3,105.2 69.3,64.1 105.9,51.4 		"/>
		<polygon class="st0" points="90.5,94.9 52.3,105.1 69.3,64 105.9,51.4 		"/>
		<polygon class="st0" points="90.5,94.9 52.3,105.1 69.3,64 105.9,51.4 		"/>
		<polygon class="st0" points="90.4,94.9 52.2,105.1 69.3,64 105.9,51.4 		"/>
		<polygon class="st0" points="90.4,94.9 52.2,105.1 69.3,64 105.8,51.3 		"/>
		<polygon class="st0" points="90.4,94.9 52.2,105.1 69.3,64 105.8,51.3 		"/>
		<polygon class="st0" points="90.4,94.9 52.2,105.1 69.3,64 105.8,51.3 		"/>
		<polygon class="st0" points="90.4,94.9 52.2,105.1 69.3,64 105.8,51.3 		"/>
		<polygon class="st0" points="90.4,94.8 52.2,105 69.3,63.9 105.8,51.3 		"/>
		<polygon class="st0" points="90.3,94.8 52.2,105 69.2,63.9 105.8,51.3 		"/>
		<polygon class="st0" points="90.3,94.8 52.1,105 69.2,63.9 105.8,51.3 		"/>
		<polygon class="st0" points="90.3,94.8 52.1,105 69.2,63.9 105.8,51.3 		"/>
		<polygon class="st0" points="90.3,94.8 52.1,105 69.2,63.9 105.7,51.2 		"/>
		<polygon class="st0" points="90.3,94.8 52.1,105 69.2,63.9 105.7,51.2 		"/>
		<polygon class="st0" points="90.2,94.7 52.1,104.9 69.2,63.9 105.7,51.2 		"/>
		<polygon class="st0" points="90.2,94.7 52.1,104.9 69.2,63.9 105.7,51.2 		"/>
		<polygon class="st0" points="90.2,94.7 52.1,104.9 69.2,63.8 105.7,51.2 		"/>
		<polygon class="st0" points="90.2,94.7 52.1,104.9 69.2,63.8 105.7,51.2 		"/>
		<polygon class="st0" points="90.2,94.7 52,104.9 69.2,63.8 105.7,51.2 		"/>
		<polygon class="st0" points="90.2,94.7 52,104.9 69.2,63.8 105.6,51.1 		"/>
		<polygon class="st0" points="90.1,94.7 52,104.9 69.1,63.8 105.6,51.1 		"/>
		<polygon class="st0" points="90.1,94.6 52,104.8 69.1,63.8 105.6,51.1 		"/>
		<polygon class="st0" points="90.1,94.6 52,104.8 69.1,63.8 105.6,51.1 		"/>
		<polygon class="st0" points="90.1,94.6 52,104.8 69.1,63.7 105.6,51.1 		"/>
		<polygon class="st0" points="90.1,94.6 52,104.8 69.1,63.7 105.6,51.1 		"/>
		<polygon class="st0" points="90.1,94.6 51.9,104.8 69.1,63.7 105.6,51.1 		"/>
		<polygon class="st0" points="90,94.6 51.9,104.8 69.1,63.7 105.6,51 		"/>
		<polygon class="st0" points="90,94.5 51.9,104.8 69.1,63.7 105.5,51 		"/>
		<polygon class="st0" points="90,94.5 51.9,104.7 69.1,63.7 105.5,51 		"/>
		<polygon class="st0" points="90,94.5 51.9,104.7 69.1,63.7 105.5,51 		"/>
		<polygon class="st0" points="90,94.5 51.9,104.7 69.1,63.7 105.5,51 		"/>
		<polygon class="st0" points="89.9,94.5 51.9,104.7 69,63.6 105.5,51 		"/>
		<polygon class="st0" points="89.9,94.5 51.8,104.7 69,63.6 105.5,51 		"/>
		<polygon class="st0" points="89.9,94.5 51.8,104.7 69,63.6 105.5,51 		"/>
		<polygon class="st0" points="89.9,94.4 51.8,104.7 69,63.6 105.5,50.9 		"/>
		<polygon class="st0" points="89.9,94.4 51.8,104.6 69,63.6 105.4,50.9 		"/>
		<polygon class="st0" points="89.9,94.4 51.8,104.6 69,63.6 105.4,50.9 		"/>
		<polygon class="st0" points="89.8,94.4 51.8,104.6 69,63.6 105.4,50.9 		"/>
		<polygon class="st0" points="89.8,94.4 51.8,104.6 69,63.5 105.4,50.9 		"/>
		<polygon class="st0" points="89.8,94.4 51.7,104.6 69,63.5 105.4,50.9 		"/>
		<polygon class="st0" points="89.8,94.3 51.7,104.6 69,63.5 105.4,50.9 		"/>
		<polygon class="st0" points="89.8,94.3 51.7,104.5 69,63.5 105.4,50.8 		"/>
		<polygon class="st0" points="89.7,94.3 51.7,104.5 68.9,63.5 105.4,50.8 		"/>
		<polygon class="st0" points="89.7,94.3 51.7,104.5 68.9,63.5 105.3,50.8 		"/>
		<polygon class="st0" points="89.7,94.3 51.7,104.5 68.9,63.5 105.3,50.8 		"/>
		<polygon class="st0" points="89.7,94.3 51.7,104.5 68.9,63.4 105.3,50.8 		"/>
		<polygon class="st0" points="89.7,94.3 51.7,104.5 68.9,63.4 105.3,50.8 		"/>
		<polygon class="st0" points="89.7,94.2 51.6,104.5 68.9,63.4 105.3,50.8 		"/>
		<polygon class="st0" points="89.6,94.2 51.6,104.4 68.9,63.4 105.3,50.7 		"/>
		<polygon class="st0" points="89.6,94.2 51.6,104.4 68.9,63.4 105.3,50.7 		"/>
		<polygon class="st0" points="89.6,94.2 51.6,104.4 68.9,63.4 105.3,50.7 		"/>
		<polygon class="st0" points="89.6,94.2 51.6,104.4 68.9,63.4 105.2,50.7 		"/>
		<polygon class="st0" points="89.6,94.2 51.6,104.4 68.9,63.4 105.2,50.7 		"/>
		<polygon class="st0" points="89.6,94.1 51.6,104.4 68.8,63.3 105.2,50.7 		"/>
		<polygon class="st0" points="89.5,94.1 51.5,104.4 68.8,63.3 105.2,50.7 		"/>
		<polygon class="st0" points="89.5,94.1 51.5,104.3 68.8,63.3 105.2,50.7 		"/>
		<polygon class="st0" points="89.5,94.1 51.5,104.3 68.8,63.3 105.2,50.6 		"/>
		<polygon class="st0" points="89.5,94.1 51.5,104.3 68.8,63.3 105.2,50.6 		"/>
		<polygon class="st0" points="89.5,94.1 51.5,104.3 68.8,63.3 105.2,50.6 		"/>
		<polygon class="st0" points="89.4,94.1 51.5,104.3 68.8,63.3 105.1,50.6 		"/>
		<polygon class="st0" points="89.4,94 51.5,104.3 68.8,63.2 105.1,50.6 		"/>
		<polygon class="st0" points="89.4,94 51.4,104.3 68.8,63.2 105.1,50.6 		"/>
		<polygon class="st0" points="89.4,94 51.4,104.2 68.8,63.2 105.1,50.6 		"/>
		<polygon class="st0" points="89.4,94 51.4,104.2 68.8,63.2 105.1,50.5 		"/>
		<polygon class="st0" points="89.4,94 51.4,104.2 68.7,63.2 105.1,50.5 		"/>
		<polygon class="st0" points="89.3,94 51.4,104.2 68.7,63.2 105.1,50.5 		"/>
	</g>
	<polygon class="st1" points="89.4,94 51.4,104.3 68.8,63.2 105.1,50.6 	"/>
	
		<radialGradient id="SVGID_1_" cx="122.0166" cy="-110.6967" r="29.7668" gradientTransform="matrix(0.7071 -0.7071 0.7071 0.7071 71.2457 243.0016)" gradientUnits="userSpaceOnUse">
		<stop  offset="0" style="stop-color:#FFFFFF"/>
		<stop  offset="1" style="stop-color:#000000"/>
	</radialGradient>
	<polygon class="st2" points="89.4,94 51.4,104.3 68.8,63.2 105.1,50.6 	"/>
	<g>
		<g>
			<path class="st3" d="M66.6,93.4l-0.9,0.2l0.2-0.6l2.4-0.6L68.1,93l-0.9,0.2L66,96.5l-0.6,0.2L66.6,93.4L66.6,93.4z"/>
			<path class="st3" d="M69.2,93.9c-0.3,0.1-0.6,0.2-0.8,0.4L67.8,96l-0.6,0.1l0.9-2.5l0.6-0.1l-0.1,0.4c0.3-0.3,0.6-0.5,0.9-0.6
				L69.2,93.9z"/>
			<path class="st3" d="M71.3,94.7l-0.1,0.4c-0.1,0.1-0.3,0.1-0.4,0.2c-0.3,0.1-0.4,0-0.4-0.2c-0.3,0.2-0.5,0.4-0.8,0.5
				c-0.2,0.1-0.4,0-0.5-0.1s-0.1-0.3,0-0.5c0.1-0.3,0.3-0.5,0.5-0.7s0.5-0.3,0.7-0.4s0.4-0.1,0.5,0l0.1-0.3c0.1-0.2,0-0.3-0.3-0.3
				c-0.3,0.1-0.5,0.2-0.5,0.4l-0.5,0.1c0.1-0.3,0.2-0.5,0.4-0.7c0.2-0.2,0.5-0.3,0.8-0.4c0.7-0.2,0.9,0.1,0.6,0.7l-0.4,1
				c0,0.1,0,0.2,0.1,0.2C71.2,94.8,71.2,94.7,71.3,94.7z M69.9,95.1c0.2,0,0.4-0.1,0.6-0.3l0.1-0.3c-0.1-0.1-0.3,0-0.4,0
				c-0.3,0.1-0.4,0.2-0.5,0.4C69.6,95,69.7,95.1,69.9,95.1z"/>
			<path class="st3" d="M74.4,92.6l-0.6,0.3c0-0.2-0.2-0.3-0.5-0.2c-0.2,0.1-0.4,0.2-0.5,0.3c-0.2,0.2-0.3,0.4-0.4,0.6
				s-0.1,0.4,0,0.5s0.2,0.1,0.4,0.1c0.3-0.1,0.5-0.3,0.7-0.6l0.4,0.1c-0.4,0.6-0.8,0.9-1.4,1c-0.4,0.1-0.6,0.1-0.8-0.1
				c-0.1-0.2-0.1-0.5,0-0.9s0.4-0.7,0.7-1.1c0.3-0.3,0.7-0.5,1-0.6C74.2,92,74.4,92.1,74.4,92.6z"/>
			<path class="st3" d="M75.5,91.2c0-0.1,0-0.1,0-0.2s0.1-0.2,0.2-0.3c0.1-0.1,0.2-0.2,0.3-0.2c0.1,0,0.2,0,0.2,0.1s0,0.1,0,0.2
				S76.1,91,76,91.1s-0.2,0.2-0.3,0.2C75.6,91.2,75.5,91.2,75.5,91.2z M74.3,94.3l0.9-2.6l0.6-0.2l-0.9,2.6L74.3,94.3L74.3,94.3z"/>
			<path class="st3" d="M78.4,91.1c0.1,0.1,0.1,0.3,0,0.6l-0.6,1.7l-0.6,0.2l0.6-1.6c0-0.1,0-0.2,0-0.3c0-0.1-0.1-0.1-0.2,0
				c-0.2,0.1-0.4,0.2-0.6,0.3l-0.7,1.9L75.7,94l0.9-2.6l0.6-0.2L77,91.5c0.3-0.3,0.5-0.4,0.8-0.5C78.1,90.9,78.3,91,78.4,91.1z"/>
			<path class="st3" d="M79.8,92.7c0.8-0.2,1.1,0,0.9,0.5c-0.1,0.3-0.3,0.6-0.6,0.8c-0.3,0.2-0.7,0.4-1.1,0.5
				c-0.9,0.2-1.2,0.1-1-0.5c0.1-0.3,0.3-0.5,0.6-0.7c-0.1-0.1-0.1-0.2,0-0.3c0.1-0.2,0.2-0.4,0.5-0.6c-0.2-0.1-0.3-0.3-0.2-0.8
				c0.1-0.4,0.3-0.6,0.6-0.9c0.3-0.2,0.6-0.4,1-0.5c0.2,0,0.3-0.1,0.5-0.1l0.9-0.2l-0.2,0.5l-0.3,0.1c0,0.1,0,0.3-0.1,0.5
				c-0.1,0.4-0.3,0.6-0.6,0.9c-0.3,0.2-0.6,0.4-0.9,0.5l-0.3,0.1c-0.1,0-0.1,0.1-0.2,0.1s-0.1,0.1-0.1,0.2s0,0.1,0,0.1h0.1
				L79.8,92.7L79.8,92.7z M80.1,93.5c0-0.1,0-0.2-0.1-0.2s-0.2,0-0.5,0l-0.4,0.1c-0.2,0-0.3,0.1-0.4,0.2s-0.2,0.2-0.2,0.3
				c-0.1,0.2,0,0.2,0.1,0.3c0.1,0,0.3,0,0.5-0.1C79.7,93.9,80,93.7,80.1,93.5z M79.5,91.5c-0.1,0.4,0,0.5,0.5,0.4
				c0.4-0.1,0.7-0.3,0.8-0.7c0.1-0.4,0-0.5-0.5-0.4C79.9,90.9,79.6,91.2,79.5,91.5z"/>
		</g>
		<g>
			<path class="st3" d="M57.5,97.9c0.2,0,0.2,0.1,0.2,0.3c-0.1,0.2-0.3,0.4-0.4,0.4c-0.2,0-0.2-0.1-0.2-0.3
				C57.2,98.2,57.4,98,57.5,97.9z"/>
			<path class="st3" d="M62,95.5c0.2,0,0.2,0.1,0.2,0.3c-0.1,0.2-0.3,0.4-0.4,0.4c-0.1,0-0.2-0.1-0.2-0.3S61.8,95.5,62,95.5z"/>
			<path class="st3" d="M57,95.6L56.8,96l3.9-1c-0.3,0.3-0.5,0.7-0.7,1.1l-2.1,0.6l-0.2,0.5l2.1-0.6c-0.1,0.4-0.1,0.7-0.1,0.9
				l-1.6,0.4L58,98.3l2-0.5l0,0c0.2,0.3,0.6,0.4,1.1,0.2c1.1-0.3,2.3-1.5,2.8-2.8c0.5-1.3,0-2-1.1-1.7c-0.5,0.1-1,0.5-1.5,0.9l0,0
				L57,95.6z M60.3,96.2c0.4-1,1.3-1.9,2.2-2.2c0.8-0.2,1.2,0.4,0.9,1.4c-0.4,1-1.3,2-2.2,2.2C60.4,97.8,60,97.2,60.3,96.2z"/>
		</g>
	</g>
</g>
<g>
	<g>
		<polygon class="st0" points="91.1,95.5 52.8,105.7 69.7,64.5 106.3,51.9 		"/>
		<polygon class="st0" points="91.1,95.5 52.8,105.7 69.6,64.5 106.3,51.9 		"/>
		<polygon class="st0" points="91.1,95.5 52.8,105.7 69.6,64.5 106.3,51.9 		"/>
		<polygon class="st0" points="91.1,95.5 52.7,105.6 69.6,64.5 106.3,51.8 		"/>
		<polygon class="st0" points="91.1,95.5 52.7,105.6 69.6,64.5 106.3,51.8 		"/>
		<polygon class="st0" points="91.1,95.4 52.7,105.6 69.6,64.5 106.3,51.8 		"/>
		<polygon class="st0" points="91,95.4 52.7,105.6 69.6,64.5 106.3,51.8 		"/>
		<polygon class="st0" points="91,95.4 52.7,105.6 69.6,64.4 106.3,51.8 		"/>
		<polygon class="st0" points="91,95.4 52.7,105.6 69.6,64.4 106.2,51.8 		"/>
		<polygon class="st0" points="91,95.4 52.7,105.6 69.6,64.4 106.2,51.8 		"/>
		<polygon class="st0" points="91,95.4 52.6,105.5 69.6,64.4 106.2,51.8 		"/>
		<polygon class="st0" points="90.9,95.4 52.6,105.5 69.6,64.4 106.2,51.7 		"/>
		<polygon class="st0" points="90.9,95.3 52.6,105.5 69.5,64.4 106.2,51.7 		"/>
		<polygon class="st0" points="90.9,95.3 52.6,105.5 69.5,64.4 106.2,51.7 		"/>
		<polygon class="st0" points="90.9,95.3 52.6,105.5 69.5,64.4 106.2,51.7 		"/>
		<polygon class="st0" points="90.9,95.3 52.6,105.5 69.5,64.3 106.2,51.7 		"/>
		<polygon class="st0" points="90.9,95.3 52.6,105.5 69.5,64.3 106.1,51.7 		"/>
		<polygon class="st0" points="90.8,95.3 52.5,105.4 69.5,64.3 106.1,51.7 		"/>
		<polygon class="st0" points="90.8,95.2 52.5,105.4 69.5,64.3 106.1,51.6 		"/>
		<polygon class="st0" points="90.8,95.2 52.5,105.4 69.5,64.3 106.1,51.6 		"/>
		<polygon class="st0" points="90.8,95.2 52.5,105.4 69.5,64.3 106.1,51.6 		"/>
		<polygon class="st0" points="90.8,95.2 52.5,105.4 69.5,64.3 106.1,51.6 		"/>
		<polygon class="st0" points="90.7,95.2 52.5,105.4 69.5,64.2 106.1,51.6 		"/>
		<polygon class="st0" points="90.7,95.2 52.5,105.3 69.4,64.2 106.1,51.6 		"/>
		<polygon class="st0" points="90.7,95.2 52.5,105.3 69.4,64.2 106,51.6 		"/>
		<polygon class="st0" points="90.7,95.1 52.4,105.3 69.4,64.2 106,51.5 		"/>
		<polygon class="st0" points="90.7,95.1 52.4,105.3 69.4,64.2 106,51.5 		"/>
		<polygon class="st0" points="90.7,95.1 52.4,105.3 69.4,64.2 106,51.5 		"/>
		<polygon class="st0" points="90.6,95.1 52.4,105.3 69.4,64.2 106,51.5 		"/>
		<polygon class="st0" points="90.6,95.1 52.4,105.3 69.4,64.2 106,51.5 		"/>
		<polygon class="st0" points="90.6,95.1 52.4,105.2 69.4,64.1 106,51.5 		"/>
		<polygon class="st0" points="90.6,95 52.4,105.2 69.4,64.1 106,51.5 		"/>
		<polygon class="st0" points="90.6,95 52.3,105.2 69.4,64.1 105.9,51.5 		"/>
		<polygon class="st0" points="90.6,95 52.3,105.2 69.4,64.1 105.9,51.4 		"/>
		<polygon class="st0" points="90.5,95 52.3,105.2 69.3,64.1 105.9,51.4 		"/>
		<polygon class="st0" points="90.5,95 52.3,105.2 69.3,64.1 105.9,51.4 		"/>
		<polygon class="st0" points="90.5,95 52.3,105.2 69.3,64.1 105.9,51.4 		"/>
		<polygon class="st0" points="90.5,94.9 52.3,105.1 69.3,64 105.9,51.4 		"/>
		<polygon class="st0" points="90.5,94.9 52.3,105.1 69.3,64 105.9,51.4 		"/>
		<polygon class="st0" points="90.4,94.9 52.2,105.1 69.3,64 105.9,51.4 		"/>
		<polygon class="st0" points="90.4,94.9 52.2,105.1 69.3,64 105.8,51.3 		"/>
		<polygon class="st0" points="90.4,94.9 52.2,105.1 69.3,64 105.8,51.3 		"/>
		<polygon class="st0" points="90.4,94.9 52.2,105.1 69.3,64 105.8,51.3 		"/>
		<polygon class="st0" points="90.4,94.9 52.2,105.1 69.3,64 105.8,51.3 		"/>
		<polygon class="st0" points="90.4,94.8 52.2,105 69.3,63.9 105.8,51.3 		"/>
		<polygon class="st0" points="90.3,94.8 52.2,105 69.2,63.9 105.8,51.3 		"/>
		<polygon class="st0" points="90.3,94.8 52.1,105 69.2,63.9 105.8,51.3 		"/>
		<polygon class="st0" points="90.3,94.8 52.1,105 69.2,63.9 105.8,51.3 		"/>
		<polygon class="st0" points="90.3,94.8 52.1,105 69.2,63.9 105.7,51.2 		"/>
		<polygon class="st0" points="90.3,94.8 52.1,105 69.2,63.9 105.7,51.2 		"/>
		<polygon class="st0" points="90.2,94.7 52.1,104.9 69.2,63.9 105.7,51.2 		"/>
		<polygon class="st0" points="90.2,94.7 52.1,104.9 69.2,63.9 105.7,51.2 		"/>
		<polygon class="st0" points="90.2,94.7 52.1,104.9 69.2,63.8 105.7,51.2 		"/>
		<polygon class="st0" points="90.2,94.7 52.1,104.9 69.2,63.8 105.7,51.2 		"/>
		<polygon class="st0" points="90.2,94.7 52,104.9 69.2,63.8 105.7,51.2 		"/>
		<polygon class="st0" points="90.2,94.7 52,104.9 69.2,63.8 105.6,51.1 		"/>
		<polygon class="st0" points="90.1,94.7 52,104.9 69.1,63.8 105.6,51.1 		"/>
		<polygon class="st0" points="90.1,94.6 52,104.8 69.1,63.8 105.6,51.1 		"/>
		<polygon class="st0" points="90.1,94.6 52,104.8 69.1,63.8 105.6,51.1 		"/>
		<polygon class="st0" points="90.1,94.6 52,104.8 69.1,63.7 105.6,51.1 		"/>
		<polygon class="st0" points="90.1,94.6 52,104.8 69.1,63.7 105.6,51.1 		"/>
		<polygon class="st0" points="90.1,94.6 51.9,104.8 69.1,63.7 105.6,51.1 		"/>
		<polygon class="st0" points="90,94.6 51.9,104.8 69.1,63.7 105.6,51 		"/>
		<polygon class="st0" points="90,94.5 51.9,104.8 69.1,63.7 105.5,51 		"/>
		<polygon class="st0" points="90,94.5 51.9,104.7 69.1,63.7 105.5,51 		"/>
		<polygon class="st0" points="90,94.5 51.9,104.7 69.1,63.7 105.5,51 		"/>
		<polygon class="st0" points="90,94.5 51.9,104.7 69.1,63.7 105.5,51 		"/>
		<polygon class="st0" points="89.9,94.5 51.9,104.7 69,63.6 105.5,51 		"/>
		<polygon class="st0" points="89.9,94.5 51.8,104.7 69,63.6 105.5,51 		"/>
		<polygon class="st0" points="89.9,94.5 51.8,104.7 69,63.6 105.5,51 		"/>
		<polygon class="st0" points="89.9,94.4 51.8,104.7 69,63.6 105.5,50.9 		"/>
		<polygon class="st0" points="89.9,94.4 51.8,104.6 69,63.6 105.4,50.9 		"/>
		<polygon class="st0" points="89.9,94.4 51.8,104.6 69,63.6 105.4,50.9 		"/>
		<polygon class="st0" points="89.8,94.4 51.8,104.6 69,63.6 105.4,50.9 		"/>
		<polygon class="st0" points="89.8,94.4 51.8,104.6 69,63.5 105.4,50.9 		"/>
		<polygon class="st0" points="89.8,94.4 51.7,104.6 69,63.5 105.4,50.9 		"/>
		<polygon class="st0" points="89.8,94.3 51.7,104.6 69,63.5 105.4,50.9 		"/>
		<polygon class="st0" points="89.8,94.3 51.7,104.5 69,63.5 105.4,50.8 		"/>
		<polygon class="st0" points="89.7,94.3 51.7,104.5 68.9,63.5 105.4,50.8 		"/>
		<polygon class="st0" points="89.7,94.3 51.7,104.5 68.9,63.5 105.3,50.8 		"/>
		<polygon class="st0" points="89.7,94.3 51.7,104.5 68.9,63.5 105.3,50.8 		"/>
		<polygon class="st0" points="89.7,94.3 51.7,104.5 68.9,63.4 105.3,50.8 		"/>
		<polygon class="st0" points="89.7,94.3 51.7,104.5 68.9,63.4 105.3,50.8 		"/>
		<polygon class="st0" points="89.7,94.2 51.6,104.5 68.9,63.4 105.3,50.8 		"/>
		<polygon class="st0" points="89.6,94.2 51.6,104.4 68.9,63.4 105.3,50.7 		"/>
		<polygon class="st0" points="89.6,94.2 51.6,104.4 68.9,63.4 105.3,50.7 		"/>
		<polygon class="st0" points="89.6,94.2 51.6,104.4 68.9,63.4 105.3,50.7 		"/>
		<polygon class="st0" points="89.6,94.2 51.6,104.4 68.9,63.4 105.2,50.7 		"/>
		<polygon class="st0" points="89.6,94.2 51.6,104.4 68.9,63.4 105.2,50.7 		"/>
		<polygon class="st0" points="89.6,94.1 51.6,104.4 68.8,63.3 105.2,50.7 		"/>
		<polygon class="st0" points="89.5,94.1 51.5,104.4 68.8,63.3 105.2,50.7 		"/>
		<polygon class="st0" points="89.5,94.1 51.5,104.3 68.8,63.3 105.2,50.7 		"/>
		<polygon class="st0" points="89.5,94.1 51.5,104.3 68.8,63.3 105.2,50.6 		"/>
		<polygon class="st0" points="89.5,94.1 51.5,104.3 68.8,63.3 105.2,50.6 		"/>
		<polygon class="st0" points="89.5,94.1 51.5,104.3 68.8,63.3 105.2,50.6 		"/>
		<polygon class="st0" points="89.4,94.1 51.5,104.3 68.8,63.3 105.1,50.6 		"/>
		<polygon class="st0" points="89.4,94 51.5,104.3 68.8,63.2 105.1,50.6 		"/>
		<polygon class="st0" points="89.4,94 51.4,104.3 68.8,63.2 105.1,50.6 		"/>
		<polygon class="st0" points="89.4,94 51.4,104.2 68.8,63.2 105.1,50.6 		"/>
		<polygon class="st0" points="89.4,94 51.4,104.2 68.8,63.2 105.1,50.5 		"/>
		<polygon class="st0" points="89.4,94 51.4,104.2 68.7,63.2 105.1,50.5 		"/>
		<polygon class="st0" points="89.3,94 51.4,104.2 68.7,63.2 105.1,50.5 		"/>
	</g>
	<polygon class="st1" points="89.4,94 51.4,104.3 68.8,63.2 105.1,50.6 	"/>
	
		<radialGradient id="SVGID_2_" cx="122.0166" cy="-110.6967" r="29.7668" gradientTransform="matrix(0.7071 -0.7071 0.7071 0.7071 71.2457 243.0016)" gradientUnits="userSpaceOnUse">
		<stop  offset="0" style="stop-color:#FFFFFF"/>
		<stop  offset="1" style="stop-color:#000000"/>
	</radialGradient>
	<polygon class="st4" points="89.4,94 51.4,104.3 68.8,63.2 105.1,50.6 	"/>
	<g>
		<g>
			<path class="st3" d="M66.6,93.4l-0.9,0.2l0.2-0.6l2.4-0.6L68.1,93l-0.9,0.2L66,96.5l-0.6,0.2L66.6,93.4L66.6,93.4z"/>
			<path class="st3" d="M69.2,93.9c-0.3,0.1-0.6,0.2-0.8,0.4L67.8,96l-0.6,0.1l0.9-2.5l0.6-0.1l-0.1,0.4c0.3-0.3,0.6-0.5,0.9-0.6
				L69.2,93.9z"/>
			<path class="st3" d="M71.3,94.7l-0.1,0.4c-0.1,0.1-0.3,0.1-0.4,0.2c-0.3,0.1-0.4,0-0.4-0.2c-0.3,0.2-0.5,0.4-0.8,0.5
				c-0.2,0.1-0.4,0-0.5-0.1s-0.1-0.3,0-0.5c0.1-0.3,0.3-0.5,0.5-0.7s0.5-0.3,0.7-0.4s0.4-0.1,0.5,0l0.1-0.3c0.1-0.2,0-0.3-0.3-0.3
				c-0.3,0.1-0.5,0.2-0.5,0.4l-0.5,0.1c0.1-0.3,0.2-0.5,0.4-0.7c0.2-0.2,0.5-0.3,0.8-0.4c0.7-0.2,0.9,0.1,0.6,0.7l-0.4,1
				c0,0.1,0,0.2,0.1,0.2C71.2,94.8,71.2,94.7,71.3,94.7z M69.9,95.1c0.2,0,0.4-0.1,0.6-0.3l0.1-0.3c-0.1-0.1-0.3,0-0.4,0
				c-0.3,0.1-0.4,0.2-0.5,0.4C69.6,95,69.7,95.1,69.9,95.1z"/>
			<path class="st3" d="M74.4,92.6l-0.6,0.3c0-0.2-0.2-0.3-0.5-0.2c-0.2,0.1-0.4,0.2-0.5,0.3c-0.2,0.2-0.3,0.4-0.4,0.6
				s-0.1,0.4,0,0.5s0.2,0.1,0.4,0.1c0.3-0.1,0.5-0.3,0.7-0.6l0.4,0.1c-0.4,0.6-0.8,0.9-1.4,1c-0.4,0.1-0.6,0.1-0.8-0.1
				c-0.1-0.2-0.1-0.5,0-0.9s0.4-0.7,0.7-1.1c0.3-0.3,0.7-0.5,1-0.6C74.2,92,74.4,92.1,74.4,92.6z"/>
			<path class="st3" d="M75.5,91.2c0-0.1,0-0.1,0-0.2s0.1-0.2,0.2-0.3c0.1-0.1,0.2-0.2,0.3-0.2c0.1,0,0.2,0,0.2,0.1s0,0.1,0,0.2
				S76.1,91,76,91.1s-0.2,0.2-0.3,0.2C75.6,91.2,75.5,91.2,75.5,91.2z M74.3,94.3l0.9-2.6l0.6-0.2l-0.9,2.6L74.3,94.3L74.3,94.3z"/>
			<path class="st3" d="M78.4,91.1c0.1,0.1,0.1,0.3,0,0.6l-0.6,1.7l-0.6,0.2l0.6-1.6c0-0.1,0-0.2,0-0.3c0-0.1-0.1-0.1-0.2,0
				c-0.2,0.1-0.4,0.2-0.6,0.3l-0.7,1.9L75.7,94l0.9-2.6l0.6-0.2L77,91.5c0.3-0.3,0.5-0.4,0.8-0.5C78.1,90.9,78.3,91,78.4,91.1z"/>
			<path class="st3" d="M79.8,92.7c0.8-0.2,1.1,0,0.9,0.5c-0.1,0.3-0.3,0.6-0.6,0.8c-0.3,0.2-0.7,0.4-1.1,0.5
				c-0.9,0.2-1.2,0.1-1-0.5c0.1-0.3,0.3-0.5,0.6-0.7c-0.1-0.1-0.1-0.2,0-0.3c0.1-0.2,0.2-0.4,0.5-0.6c-0.2-0.1-0.3-0.3-0.2-0.8
				c0.1-0.4,0.3-0.6,0.6-0.9c0.3-0.2,0.6-0.4,1-0.5c0.2,0,0.3-0.1,0.5-0.1l0.9-0.2l-0.2,0.5l-0.3,0.1c0,0.1,0,0.3-0.1,0.5
				c-0.1,0.4-0.3,0.6-0.6,0.9c-0.3,0.2-0.6,0.4-0.9,0.5l-0.3,0.1c-0.1,0-0.1,0.1-0.2,0.1s-0.1,0.1-0.1,0.2s0,0.1,0,0.1h0.1
				L79.8,92.7L79.8,92.7z M80.1,93.5c0-0.1,0-0.2-0.1-0.2s-0.2,0-0.5,0l-0.4,0.1c-0.2,0-0.3,0.1-0.4,0.2s-0.2,0.2-0.2,0.3
				c-0.1,0.2,0,0.2,0.1,0.3c0.1,0,0.3,0,0.5-0.1C79.7,93.9,80,93.7,80.1,93.5z M79.5,91.5c-0.1,0.4,0,0.5,0.5,0.4
				c0.4-0.1,0.7-0.3,0.8-0.7c0.1-0.4,0-0.5-0.5-0.4C79.9,90.9,79.6,91.2,79.5,91.5z"/>
		</g>
		<g>
			<path class="st3" d="M57.5,97.9c0.2,0,0.2,0.1,0.2,0.3c-0.1,0.2-0.3,0.4-0.4,0.4c-0.2,0-0.2-0.1-0.2-0.3
				C57.2,98.2,57.4,98,57.5,97.9z"/>
			<path class="st3" d="M62,95.5c0.2,0,0.2,0.1,0.2,0.3c-0.1,0.2-0.3,0.4-0.4,0.4c-0.1,0-0.2-0.1-0.2-0.3S61.8,95.5,62,95.5z"/>
			<path class="st3" d="M57,95.6L56.8,96l3.9-1c-0.3,0.3-0.5,0.7-0.7,1.1l-2.1,0.6l-0.2,0.5l2.1-0.6c-0.1,0.4-0.1,0.7-0.1,0.9
				l-1.6,0.4L58,98.3l2-0.5l0,0c0.2,0.3,0.6,0.4,1.1,0.2c1.1-0.3,2.3-1.5,2.8-2.8c0.5-1.3,0-2-1.1-1.7c-0.5,0.1-1,0.5-1.5,0.9l0,0
				L57,95.6z M60.3,96.2c0.4-1,1.3-1.9,2.2-2.2c0.8-0.2,1.2,0.4,0.9,1.4c-0.4,1-1.3,2-2.2,2.2C60.4,97.8,60,97.2,60.3,96.2z"/>
		</g>
	</g>
</g>
</svg>
