<?xml version="1.0" encoding="utf-8"?>
<!-- Generator: Adobe Illustrator 24.1.2, SVG Export Plug-In . SVG Version: 6.00 Build 0)  -->
<svg version="1.1" id="Layer_1" xmlns="http://www.w3.org/2000/svg" xmlns:xlink="http://www.w3.org/1999/xlink" x="0px" y="0px"
	 viewBox="0 0 250 175" style="enable-background:new 0 0 250 175;" xml:space="preserve">
<style type="text/css">
	.st0{fill:#A674E5;}
	.st1{opacity:0.3;fill:#A674E5;enable-background:new    ;}
	.st2{fill:none;stroke:#A674E5;stroke-miterlimit:10;}
</style>
<path class="st0" d="M159.3,37.4l-11.9,45.7l-45.6,11.8L116.5,52L159.3,37.4 M160.8,35.9l-45.1,15.3l-15.4,45.2l48-12.4L160.8,35.9
	L160.8,35.9z"/>
<path class="st0" d="M189.9,7.3l-20.5,97L118,115.2l6.6-22.1l23.6-6l2.3-0.6l0.6-0.1l0.1-0.6l0.6-2.3l12.3-48.2l0.5-1.9l0.5-1.8
	l-1.8,0.6l-2.1,0.7L140.5,40l4.8-16.1L189.9,7.3 M191.2,5.7l-46.7,17.5L139,41.6l22.5-7.7l2.1-0.7l-0.5,1.9l-12.3,48.2l-0.6,2.3
	l-2.3,0.6l-24.2,6.2l-7.3,24.2l53.8-11.3L191.2,5.7L191.2,5.7z"/>
<g>
	<polygon class="st1" points="120.3,55.3 93.2,137.7 94.4,137.5 121.1,56.1 202.5,29.3 202.7,28.2 	"/>
	<polygon class="st0" points="203.8,27.8 203.6,28.9 221.5,23 205.3,140.2 88.1,156.4 94,138.6 92.9,138.7 86.7,157.6 206.2,141.1 
		222.7,21.6 	"/>
</g>
<g>
	<polygon class="st1" points="78.7,123.5 84.3,108.1 77.6,109.7 77.2,110.9 82.7,109.5 77.6,123.7 	"/>
	<polygon class="st0" points="77.2,124.8 63.9,161.6 26.1,166.7 46.6,118.3 76,111.1 76.5,110 45.9,117.4 24.5,167.9 64.6,162.5 
		78.3,124.6 	"/>
</g>
<g>
	<polygon class="st1" points="111.7,46.6 85.2,122.1 86.3,121.9 112.5,47.4 137.1,38.8 137.5,37.6 	"/>
	<g>
		<polygon class="st1" points="141.7,36.1 141.4,37.3 186.9,21.2 187.2,20.1 		"/>
		<polygon class="st0" points="188.3,19.7 188,20.9 205.1,14.9 186.4,121.3 79.9,140 85.9,123 84.8,123.2 78.4,141.3 187.3,122.2 
			206.4,13.4 		"/>
		<polygon class="st0" points="140.6,36.5 138.6,37.2 138.3,38.4 140.2,37.7 		"/>
	</g>
</g>
<path class="st0" d="M141.1,25.5l-4.8,16l-20.1,6.9l-1.8,0.6l-0.5,0.2l-0.2,0.5l-0.6,1.8l-15.5,45L97,98.6l-0.6,1.8l1.8-0.5l1.9-0.5
	l20.2-5.2l-6.7,21.9l-41.7,8.8l32-85.5L141.1,25.5 M142.7,23.9l-39.5,14.8l-32.8,87.6l44-9.3l7.3-24.2l-21.9,5.6l-1.9,0.5l0.7-2.1
	l15.5-45l0.6-1.8l1.8-0.6l20.6-7.1L142.7,23.9L142.7,23.9z"/>
<line class="st2" x1="143.8" y1="149.1" x2="127" y2="132.3"/>
<line class="st2" x1="104.1" y1="136.5" x2="89.5" y2="121.8"/>
<line class="st2" x1="157.1" y1="127" x2="141.1" y2="111"/>
<line class="st2" x1="73.6" y1="136.1" x2="81.4" y2="134.6"/>
</svg>
