<svg width="126" height="37" viewBox="0 0 126 37" fill="none" xmlns="http://www.w3.org/2000/svg">
<path d="M21.7589 34.3385C27.7322 33.2833 32.6658 32.4101 32.7225 32.3981L32.8255 32.3762L27.1861 25.6684C24.0844 21.979 21.5467 18.9462 21.5467 18.9287C21.5467 18.8956 27.3699 2.85997 27.4026 2.80292C27.4135 2.78385 31.3764 9.62555 37.0087 19.3877C42.2819 28.5271 46.6293 36.0626 46.6697 36.1332L46.7432 36.2616L28.8208 36.2593L10.8984 36.257L21.7589 34.3385V34.3385ZM90.4892 32.7162C87.7611 32.5413 86.1744 30.9878 85.7539 28.0801C85.6421 27.3066 85.6417 27.2865 85.6302 22.2649L85.6191 17.4049H86.8265H88.0339L88.0434 22.1058C88.052 26.3426 88.0574 26.8394 88.0979 27.1374C88.2623 28.347 88.5896 29.1605 89.1468 29.7443C89.5927 30.2116 90.1147 30.4852 90.8374 30.6304C91.1783 30.6989 92.1481 30.699 92.4589 30.6307C93.1915 30.4694 93.7787 30.1506 94.2967 29.6329C94.8871 29.0427 95.3239 28.2054 95.5352 27.2585L95.6064 26.9394L95.6143 22.1987L95.6223 17.458H96.8549H98.0876V24.9105V32.363H96.8677H95.6477V31.1806C95.6477 30.3772 95.6389 30.0011 95.6202 30.0074C95.6051 30.0124 95.5424 30.1082 95.481 30.2204C95.0606 30.9871 94.3601 31.6883 93.5926 32.1107C92.6725 32.617 91.7499 32.7971 90.4892 32.7163V32.7162ZM118.18 32.7042C117.217 32.6318 116.203 32.3007 115.374 31.788C113.627 30.7075 112.594 28.9263 112.291 26.4752C112.186 25.627 112.174 24.4877 112.261 23.767C112.457 22.1566 113.089 20.5757 113.99 19.447C114.221 19.1577 114.746 18.6336 115.035 18.4026C115.816 17.7789 116.73 17.3427 117.7 17.1304C118.266 17.0067 119.261 16.9487 119.862 17.0043C121.371 17.1442 122.753 17.8546 123.693 18.9727C124.648 20.1087 125.173 21.696 125.24 23.6507C125.251 23.957 125.253 24.4941 125.246 24.8441L125.232 25.4807L119.948 25.4874L114.664 25.494V25.7299C114.664 26.4477 114.838 27.2654 115.14 27.961C115.4 28.5609 115.848 29.216 116.215 29.533C116.966 30.183 117.887 30.5721 118.894 30.6657C119.267 30.7004 120.219 30.6639 120.644 30.5985C121.858 30.412 123.012 29.9358 123.944 29.237C124.054 29.1548 124.159 29.078 124.177 29.0664C124.205 29.0493 124.211 29.2641 124.21 30.167L124.21 31.2888L123.96 31.4433C122.905 32.0954 121.698 32.5141 120.419 32.6709C120.037 32.7176 118.637 32.7385 118.18 32.7042L118.18 32.7042ZM122.779 23.2424C122.779 22.0399 122.272 20.7041 121.555 20.0162C121.043 19.5254 120.425 19.2254 119.689 19.1114C119.341 19.0576 118.608 19.0783 118.241 19.1524C117.466 19.3091 116.824 19.6501 116.265 20.2029C115.676 20.7847 115.235 21.4914 114.957 22.2965C114.857 22.5861 114.74 23.0614 114.704 23.3258L114.687 23.4518H118.733H122.779V23.2424ZM51.0972 32.3298C51.1034 32.3116 52.8978 27.5974 55.0849 21.8539L59.0613 11.4112L60.339 11.4111L61.6166 11.4111L61.7226 11.6829C62.0466 12.5136 69.6832 32.3403 69.6832 32.3506C69.6832 32.3574 69.0715 32.3629 68.3239 32.3628L66.9647 32.3625L65.8641 29.4321L64.7634 26.5018L60.3317 26.5017L55.9001 26.5017L55.8615 26.6011C55.8404 26.6558 55.3701 27.9744 54.8165 29.5313L53.8101 32.362L52.448 32.3624C51.3699 32.3628 51.0883 32.356 51.0972 32.3298V32.3298ZM63.9545 24.2655C63.9545 24.2608 63.2138 22.2528 62.3085 19.8033C60.6149 15.2205 60.5202 14.9448 60.3864 14.209C60.3236 13.864 60.2919 13.8545 60.2546 14.1693C60.228 14.3943 60.1126 14.8978 60.0236 15.1771C59.9794 15.3157 59.2167 17.4089 58.3287 19.8288C57.4407 22.2487 56.7142 24.2388 56.7142 24.2512C56.7142 24.2637 58.3432 24.2739 60.3343 24.2739C62.3254 24.2739 63.9545 24.2701 63.9545 24.2655V24.2655ZM70.5053 31.9813V31.5997L74.9206 25.53L79.336 19.4603L75.3383 19.447L71.3408 19.4338L71.3338 18.4193L71.3269 17.4049H77.1089H82.8908V17.7475V18.0901L78.475 24.1929C76.0463 27.5495 74.0592 30.3014 74.0592 30.3083C74.0592 30.3152 76.0225 30.3208 78.422 30.3208H82.7848V31.3419V32.363H76.645H70.5053V31.9813ZM102.906 32.3453C102.896 32.3356 102.888 28.97 102.888 24.8662V17.4049H104.095H105.301V18.9431C105.301 19.7892 105.312 20.4814 105.324 20.4814C105.337 20.4814 105.396 20.3429 105.455 20.1736C105.726 19.398 106.197 18.6733 106.803 18.0973C107.349 17.5784 107.973 17.2681 108.709 17.1493C108.916 17.116 109.091 17.1096 109.505 17.1204C110.025 17.1339 110.296 17.1719 110.612 17.2752L110.712 17.3077V18.5603V19.8128L110.427 19.6701C109.923 19.418 109.426 19.3182 108.829 19.3493C108.44 19.3695 108.185 19.4194 107.874 19.5361C107.235 19.7761 106.716 20.1997 106.353 20.778C105.829 21.6151 105.454 22.6912 105.344 23.6802C105.324 23.8577 105.313 25.3031 105.308 28.1527L105.301 32.363H104.112C103.458 32.363 102.915 32.355 102.906 32.3453ZM0.25 32.2929C0.25 32.2835 2.90725 27.6707 6.155 22.0423L12.06 11.8088L18.9416 6.0338C22.7265 2.85753 25.8334 0.254877 25.8458 0.25013C25.8583 0.245385 25.8085 0.370698 25.7352 0.528606C25.6619 0.686513 22.2993 7.89893 18.2627 16.5562L10.9236 32.2967L5.5868 32.3034C2.65156 32.307 0.25 32.3023 0.25 32.2929V32.2929Z" fill="black"/>
</svg>
