<?xml version="1.0" encoding="UTF-8" standalone="no"?>
<svg
   viewBox="0 0 101.40007 33.501808"
   version="1.1"
   id="svg16"
   sodipodi:docname="f86303a5a36a3fdfbe8c6ea65913420d.svg"
   width="101.40007"
   height="33.501808"
   xmlns:inkscape="http://www.inkscape.org/namespaces/inkscape"
   xmlns:sodipodi="http://sodipodi.sourceforge.net/DTD/sodipodi-0.dtd"
   xmlns="http://www.w3.org/2000/svg"
   xmlns:svg="http://www.w3.org/2000/svg">
  <sodipodi:namedview
     id="namedview18"
     pagecolor="#ffffff"
     bordercolor="#666666"
     borderopacity="1.0"
     inkscape:pageshadow="2"
     inkscape:pageopacity="0.0"
     inkscape:pagecheckerboard="0" />
  <defs
     id="defs4">
    <style
       id="style2">
      .a {
        fill: #fff;
      }
    </style>
  </defs>
  <title
     id="title6">Cloudflare logo</title>
  <path
     class="a"
     d="m 94.700064,10.600008 -5.6,-1.2999997 -1,-0.4 -25.7,0.2 V 21.500008 l 32.3,0.1 z"
     id="path8" />
  <path
     class="b"
     d="m 84.200064,20.400008 a 2.85546,2.85546 0 0 0 -0.3,-2.6 3.09428,3.09428 0 0 0 -2.1,-1.1 l -17.4,-0.2 c -0.1,0 -0.2,-0.1 -0.3,-0.1 a 0.1875,0.1875 0 0 1 0,-0.3 c 0.1,-0.2 0.2,-0.3 0.4,-0.3 l 17.5,-0.2 a 6.29223,6.29223 0 0 0 5.1,-3.8 l 1,-2.5999997 c 0,-0.1 0.1,-0.2 0,-0.3 a 11.39646,11.39646 0 0 0 -21.9,-1.2 5.45941,5.45941 0 0 0 -3.6,-1 5.20936,5.20936 0 0 0 -4.6,4.5999997 5.46262,5.46262 0 0 0 0.1,1.8 7.30177,7.30177 0 0 0 -7.1,7.3 4.102,4.102 0 0 0 0.1,1.1 0.3193,0.3193 0 0 0 0.3,0.3 h 32.1 c 0.2,0 0.4,-0.1 0.4,-0.3 z"
     id="path10" />
  <path
     class="c"
     d="m 89.700064,9.2000083 h -0.5 c -0.1,0 -0.2,0.1 -0.3,0.2 l -0.7,2.3999997 a 2.85546,2.85546 0 0 0 0.3,2.6 3.09428,3.09428 0 0 0 2.1,1.1 l 3.7,0.2 c 0.1,0 0.2,0.1 0.3,0.1 a 0.1875,0.1875 0 0 1 0,0.3 c -0.1,0.2 -0.2,0.3 -0.4,0.3 l -3.8,0.2 a 6.29223,6.29223 0 0 0 -5.1,3.8 l -0.2,0.9 c -0.1,0.1 0,0.3 0.2,0.3 h 13.2 a 0.26517,0.26517 0 0 0 0.3,-0.3 10.87184,10.87184 0 0 0 0.4,-2.6 9.56045,9.56045 0 0 0 -9.5,-9.4999997"
     id="path12" />
  <path
     class="d"
     d="m 100.50006,27.200008 a 0.9,0.9 0 1 1 0.9,-0.9 0.89626,0.89626 0 0 1 -0.9,0.9 m 0,-1.6 a 0.7,0.7 0 1 0 0.7,0.7 0.68354,0.68354 0 0 0 -0.7,-0.7 m 0.4,1.2 h -0.2 l -0.2,-0.3 h -0.2 v 0.3 h -0.2 v -0.9 h 0.5 a 0.26517,0.26517 0 0 1 0.3,0.3 c 0,0.1 -0.1,0.2 -0.2,0.3 z m -0.3,-0.5 c 0.1,0 0.1,0 0.1,-0.1 a 0.09794,0.09794 0 0 0 -0.1,-0.1 h -0.3 v 0.3 h 0.3 z m -89.699996,-0.9 h 2.2 v 6 h 3.8 v 1.9 h -6 z m 8.3,3.9 a 4.10491,4.10491 0 0 1 4.3,-4.1 4.02,4.02 0 0 1 4.2,4.1 4.10491,4.10491 0 0 1 -4.3,4.1 4.07888,4.07888 0 0 1 -4.2,-4.1 m 6.3,0 a 2.05565,2.05565 0 0 0 -2,-2.2 2.1025,2.1025 0 0 0 0,4.2 c 1.2,0.2 2,-0.8 2,-2 m 4.9,0.5 v -4.4 h 2.2 v 4.4 c 0,1.1 0.6,1.7 1.5,1.7 a 1.39926,1.39926 0 0 0 1.5,-1.6 v -4.5 h 2.2 v 4.4 c 0,2.6 -1.5,3.7 -3.7,3.7 -2.3,-0.1 -3.7,-1.2 -3.7,-3.7 m 10.7,-4.4 h 3.1 c 2.8,0 4.5,1.6 4.5,3.9 0,2.3 -1.7,4 -4.5,4 h -3 v -7.9 z m 3.1,5.9 a 2.00909,2.00909 0 1 0 0,-4 h -0.9 v 4 z m 7.6,-5.9 h 6.3 v 1.9 h -4.1 v 1.3 h 3.7 v 1.8 h -3.7 v 2.9 h -2.2 z m 9.4,0 h 2.2 v 6 h 3.8 v 1.9 h -6 z m 11.7,-0.1 h 2.2 l 3.4,8 h -2.4 l -0.6,-1.4 h -3.1 l -0.6,1.4 h -2.3 z m 2,4.9 -0.9,-2.2 -0.9,2.2 z m 6.4,-4.8 h 3.7 a 3.41818,3.41818 0 0 1 2.6,0.9 2.62373,2.62373 0 0 1 -0.9,4.2 l 1.9,2.8 h -2.5 l -1.6,-2.4 h -1 v 2.4 h -2.2 z m 3.6,3.8 c 0.7,0 1.2,-0.4 1.2,-0.9 0,-0.6 -0.5,-0.9 -1.2,-0.9 h -1.4 v 1.9 h 1.4 z m 6.5,-3.8 h 6.4 v 1.8 h -4.2 v 1.2 h 3.8 v 1.8 h -3.8 v 1.2 h 4.3 v 1.9 h -6.5 z m -85.2999996,4.9 a 1.97548,1.97548 0 0 1 -1.8,1.2 2.1025,2.1025 0 0 1 0,-4.2 2.0977,2.0977 0 0 1 1.9,1.3 h 2.3 a 4.13459,4.13459 0 0 0 -4.2,-3.3 4.1651,4.1651 0 0 0 -4.300000000181,4.1 4.07888,4.07888 0 0 0 4.200000000181,4.1 4.31812,4.31812 0 0 0 4.2,-3.2 z"
     id="path14" />
</svg>
