<svg width="114" height="40" viewBox="0 0 114 40" fill="none" xmlns="http://www.w3.org/2000/svg">
<path d="M25.5714 23.2298C22.1814 23.2282 19.1244 25.2692 17.8262 28.4007C16.528 31.5323 17.2444 35.1375 19.6412 37.5348C22.038 39.9322 25.6431 40.6494 28.7749 39.3519C31.9067 38.0544 33.9484 34.9979 33.9477 31.608C33.9434 26.9833 30.196 23.235 25.5714 23.2298ZM25.5714 38.3377C21.8546 38.3377 18.8416 35.3247 18.8416 31.608C18.8416 27.8912 21.8546 24.8782 25.5714 24.8782C29.2881 24.8782 32.3011 27.8912 32.3011 31.608C32.2958 35.3225 29.2859 38.3324 25.5714 38.3377ZM97.8066 31.7152C99.4646 32.5806 100.414 34.0012 100.412 35.619C100.412 37.771 98.6011 39.9996 95.5704 39.9996C92.8689 39.9996 90.8892 38.2401 90.3474 37.7021L90.2038 37.5585L91.4253 36.448L91.5517 36.5725C91.9882 36.9879 93.5543 38.3415 95.5723 38.3415C97.6477 38.3415 98.7677 36.9343 98.7677 35.6113C98.7677 34.6253 98.1646 33.7695 97.0714 33.1951C96.6559 32.9769 93.8913 31.5505 93.4969 31.3495C92.082 30.6277 90.6365 29.59 90.6365 27.3921C90.6365 24.9433 92.6276 23.2336 95.4785 23.2336C96.9757 23.2336 98.3637 23.8577 99.1774 24.3115C99.4982 24.4977 99.6543 24.8758 99.5585 25.2341C99.4626 25.5923 99.1386 25.8419 98.7677 25.8432C98.6275 25.8443 98.4892 25.81 98.3656 25.7436C97.7223 25.3798 96.6272 24.8782 95.4785 24.8782C93.5371 24.8782 92.2869 25.8566 92.2869 27.3882C92.2869 28.4853 92.7942 29.1343 94.2282 29.8657C94.6226 30.0705 97.3548 31.4778 97.8066 31.7152ZM8.39565 24.8801V24.8859C5.30554 24.8837 2.61126 26.9867 1.86316 29.9849C1.11506 32.9831 2.50552 36.1054 5.23444 37.5551C7.96337 39.0049 11.329 38.4093 13.3946 36.111L14.5606 37.2789C12.2521 39.7911 8.65174 40.6542 5.45512 39.4619C2.2585 38.2695 0.10293 35.2593 0.00357882 31.849C-0.0957726 28.4387 1.8809 25.3082 5.00269 23.9317C8.12447 22.5553 11.769 23.2073 14.2198 25.5809L14.3194 25.6862C14.6407 26.0076 14.6407 26.5287 14.3194 26.8502C13.988 27.1487 13.4847 27.1487 13.1534 26.8502C11.8946 25.5839 10.1812 24.8744 8.39565 24.8801ZM65.186 24.8801V24.8859C62.0958 24.8837 59.4016 26.9867 58.6535 29.9849C57.9054 32.9831 59.2958 36.1054 62.0248 37.5551C64.7537 39.0049 68.1193 38.4093 70.1849 36.111L71.3528 37.2789C69.0447 39.7915 65.4445 40.6552 62.2477 39.4633C59.0509 38.2715 56.8948 35.2617 56.7949 31.8514C56.695 28.4411 58.6712 25.3102 61.7927 23.9333C64.9143 22.5563 68.5589 23.2078 71.0101 25.5809L71.1097 25.6862C71.2654 25.8398 71.3531 26.0494 71.3531 26.2682C71.3531 26.487 71.2654 26.6966 71.1097 26.8502C70.7783 27.1487 70.2751 27.1487 69.9437 26.8502C68.6849 25.5839 66.9715 24.8744 65.186 24.8801ZM50.9951 23.2298C51.3477 23.2383 51.6488 23.4865 51.7245 23.8309C51.8203 24.1679 54.6692 39.8943 54.6692 39.8943H53.1586L50.7232 26.6166C50.7232 26.6166 46.2048 37.7825 46.0708 38.0486C45.9581 38.3322 45.6838 38.5183 45.3787 38.5183C45.0735 38.5183 44.7992 38.3322 44.6865 38.0486C44.5544 37.7825 40.0341 26.6166 40.0341 26.6166L37.6926 39.385C37.6159 39.7577 37.2706 40.0127 36.8918 39.9763C36.513 39.9399 36.2226 39.6238 36.2183 39.2433C36.2185 39.1931 36.2237 39.1431 36.2337 39.094C36.2337 39.094 38.939 24.1679 39.0328 23.8309C39.1116 23.4884 39.4109 23.2416 39.7622 23.2298C40.0595 23.2397 40.3257 23.4169 40.4496 23.6873C40.5932 23.9439 45.3796 35.8028 45.3796 35.8028C45.3796 35.8028 50.1737 23.9439 50.3097 23.6873C50.4333 23.4175 50.6985 23.2404 50.9951 23.2298ZM80.7802 23.2298C81.0795 23.2427 81.3451 23.4257 81.4637 23.7007C81.5977 23.965 88.0556 39.8943 88.0556 39.8943H86.4512L83.9374 33.7197H77.6192L75.2624 39.5152C75.1333 39.8498 74.7835 40.0445 74.4311 39.9777C74.0787 39.911 73.8243 39.602 73.8265 39.2433C73.8267 39.1441 73.8462 39.0459 73.8839 38.9542C73.8839 38.9542 79.9531 23.965 80.0891 23.7007C80.21 23.4242 80.4786 23.2412 80.7802 23.2298ZM78.2913 32.0713H83.2692L80.7802 25.9446L78.2913 32.0713ZM113.393 24.143C113.392 24.598 113.023 24.9663 112.568 24.9663H108.66V39.9H107.15V24.9663H103.24C102.785 24.9663 102.417 24.5977 102.417 24.143C102.417 23.6883 102.785 23.3197 103.24 23.3197H112.568C113.023 23.3197 113.392 23.688 113.393 24.143Z" fill="black"/>
<path d="M62.9372 1.80028C62.7461 1.36981 62.4601 0.988202 62.1005 0.684076C61.1529 -0.0896604 59.8334 -0.218744 58.7538 0.356683C57.8143 0.858543 57.2191 1.82862 57.1973 2.8935L58.4647 2.9069H58.4896L58.5126 2.92222C58.5367 2.93664 58.5624 2.94821 58.5892 2.95668C58.6888 2.9762 58.7688 3.05032 58.7959 3.14814L58.8074 3.19984L58.7653 3.23047C58.6562 3.31471 58.5336 3.39512 58.4034 3.48128C57.8999 3.81059 57.3811 4.14947 57.4634 4.77554L58.8304 13.3912L62.6423 4.84446C63.0846 4.05757 63.4311 2.79586 62.9372 1.80028Z" fill="black"/>
<path d="M54.3392 0.255087C53.2629 -0.192456 52.0246 0.0248639 51.165 0.81219C50.3054 1.59952 49.9805 2.81392 50.332 3.92534C50.3856 4.04787 54.3028 12.7918 54.3009 12.7879L54.6053 13.3968C54.8255 11.9838 56.1581 3.44095 56.1562 3.44095C56.2499 2.76919 56.115 2.08541 55.7732 1.49956C55.4324 0.949025 54.9323 0.515035 54.3392 0.255087Z" fill="black"/>
<path d="M68.6875 5.77843C68.174 4.79204 67.1594 4.16829 66.0474 4.15547C64.9355 4.14266 63.9067 4.74287 63.3707 5.71717C63.3707 5.71717 59.0035 15.5658 59.0035 15.5581L58.9844 15.6098L67.0448 10.092C67.1788 9.99243 67.3166 9.90053 67.4526 9.8048C67.8729 9.55895 68.2364 9.22681 68.519 8.83028C69.1144 7.97063 69.191 6.63234 68.6875 5.77843Z" fill="black"/>
<path fill-rule="evenodd" clip-rule="evenodd" d="M46.2613 4.36943C45.3833 4.71992 44.7163 5.45617 44.4539 6.36443C44.1365 7.48504 44.5122 8.68727 45.4112 9.42776L54.4366 15.6444L49.9851 5.72304C49.2464 4.41654 47.6665 3.84226 46.2613 4.36943Z" fill="black"/>
<path d="M71.0761 12.9139C70.7602 12.2256 70.204 11.6762 69.5118 11.3689C68.6016 10.9752 67.5571 11.0466 66.7089 11.5603L58.75 17.0973H68.2482C69.2045 17.1283 70.1183 16.7016 70.7085 15.9485C71.3664 15.0762 71.5067 13.9182 71.0761 12.9139Z" fill="black"/>
<path d="M43.9217 11.445C43.2474 11.747 42.7039 12.281 42.39 12.9499C41.9806 13.9188 42.1154 15.0322 42.7442 15.8754C43.3173 16.6135 44.2091 17.0327 45.1432 17.0031H54.3753L46.6442 11.625C45.8188 11.1295 44.8051 11.0625 43.9217 11.445Z" fill="black"/>
</svg>
