<svg width="144" height="30" viewBox="0 0 144 30" fill="none" xmlns="http://www.w3.org/2000/svg">
<path d="M16.6821 6.07408L8.34105 11.3982L16.6821 16.7222L8.34105 22.0463L0 16.6779L8.34105 11.3538L0 6.07408L8.34105 0.75L16.6821 6.07408ZM8.29669 23.7323L16.6377 18.4082L24.9788 23.7323L16.6377 29.0563L8.29669 23.7323ZM16.6821 16.6779L25.0232 11.3538L16.6821 6.07408L24.9788 0.75L33.3198 6.07408L24.9788 11.3982L33.3198 16.7222L24.9788 22.0463L16.6821 16.6779Z" fill="black"/>
<path d="M39.8418 6.07405H46.5856C50.8893 6.07405 54.4386 8.55862 54.4386 14.2376V15.4356C54.4386 21.1589 51.1111 23.7322 46.7187 23.7322H39.8418V6.07405ZM43.613 9.2685V20.4934H46.4969C48.9371 20.4934 50.5787 18.8962 50.5787 15.3468V14.4151C50.5787 10.8657 48.8484 9.2685 46.3638 9.2685H43.613ZM56.4352 9.44597H59.4521L59.9402 12.7735C60.517 10.5108 61.9811 9.31286 64.6431 9.31286H65.5748V13.1285H64.022C60.9606 13.1285 60.2064 14.1933 60.2064 17.2102V23.7766H56.4795V9.44597H56.4352ZM66.3291 16.8997V16.5004C66.3291 11.7087 69.3904 9.09103 73.561 9.09103C77.8202 9.09103 80.7928 11.7087 80.7928 16.5004V16.8997C80.7928 21.6026 77.9089 24.1315 73.561 24.1315C68.9468 24.0872 66.3291 21.6026 66.3291 16.8997ZM76.9772 16.8553V16.5004C76.9772 13.8383 75.6462 12.2411 73.5166 12.2411C71.4313 12.2411 70.0559 13.7052 70.0559 16.5004V16.8553C70.0559 19.4286 71.3869 20.8927 73.5166 20.8927C75.6462 20.8484 76.9772 19.4286 76.9772 16.8553ZM82.745 9.44597H85.8507L86.2056 12.1524C86.9599 10.3333 88.5571 9.09103 90.9086 9.09103C94.5467 9.09103 96.9425 11.7087 96.9425 16.5447V16.944C96.9425 21.647 94.2805 24.1315 90.9086 24.1315C88.6458 24.1315 87.093 23.1111 86.3387 21.4695V28.7014H82.7006L82.745 9.44597ZM93.1713 16.8553V16.5447C93.1713 13.7052 91.7072 12.2855 89.755 12.2855C87.6698 12.2855 86.2944 13.8827 86.2944 16.5447V16.8109C86.2944 19.3399 87.6254 20.9371 89.7106 20.9371C91.8403 20.8927 93.1713 19.5173 93.1713 16.8553ZM102.444 21.1146L102.133 23.7322H98.939V4.6543H102.577V11.9749C103.376 10.1115 104.973 9.09103 107.236 9.09103C110.652 9.13539 113.181 11.4869 113.181 16.2342V16.6778C113.181 21.4251 110.785 24.1315 107.147 24.1315C104.751 24.0872 103.198 22.978 102.444 21.1146ZM109.365 16.6778V16.3229C109.365 13.7052 107.946 12.2411 105.949 12.2411C103.908 12.2411 102.488 13.8827 102.488 16.3673V16.6778C102.488 19.3399 103.864 20.8927 105.905 20.8927C108.079 20.8927 109.365 19.5173 109.365 16.6778ZM114.778 16.8997V16.5004C114.778 11.7087 117.84 9.09103 122.01 9.09103C126.269 9.09103 129.242 11.7087 129.242 16.5004V16.8997C129.242 21.6026 126.314 24.1315 122.01 24.1315C117.396 24.0872 114.778 21.6026 114.778 16.8997ZM125.471 16.8553V16.5004C125.471 13.8383 124.14 12.2411 122.01 12.2411C119.925 12.2411 118.549 13.7052 118.549 16.5004V16.8553C118.549 19.4286 119.88 20.8927 122.01 20.8927C124.14 20.8484 125.471 19.4286 125.471 16.8553ZM134.122 16.3229L129.109 9.44597H133.412L136.296 13.7496L139.225 9.44597H143.484L138.382 16.2785L143.75 23.7322H139.535L136.252 18.9849L133.058 23.7322H128.665L134.122 16.3229Z" fill="black"/>
</svg>
