<svg width="145" height="16" viewBox="0 0 145 16" fill="none" xmlns="http://www.w3.org/2000/svg">
<path d="M11.904 0.514486V2.51497C11.904 2.64674 11.8201 2.73059 11.6884 2.73059H3.08746V6.8274H10.179C10.3108 6.8274 10.3946 6.91125 10.3946 7.04302V9.04351C10.3946 9.17527 10.3108 9.25913 10.179 9.25913H3.08746V15.3085C3.08746 15.4403 3.0036 15.5241 2.87184 15.5241H0.715622C0.583853 15.5241 0.5 15.4403 0.5 15.3085V0.514486C0.5 0.382717 0.583853 0.298862 0.715622 0.298862H11.6884C11.8201 0.286884 11.904 0.382717 11.904 0.514486Z" fill="black"/>
<path d="M29.4541 15.5253H27.0823C26.9505 15.5253 26.8666 15.4654 26.8307 15.3337C26.5192 14.0879 26.1359 12.7702 25.7047 11.4405H18.4215C17.9902 12.7702 17.6069 14.0879 17.2954 15.3337C17.2595 15.4654 17.1756 15.5253 17.0439 15.5253H14.7559C14.6002 15.5253 14.5163 15.4415 14.5642 15.2858C15.9298 10.4343 18.0262 5.07967 20.1345 0.575584C20.2303 0.371942 20.3501 0.288086 20.5537 0.288086H23.6443C23.8479 0.288086 23.9677 0.359963 24.0636 0.575584C26.1958 5.0677 28.2562 10.4343 29.6338 15.2858C29.6937 15.4415 29.6098 15.5253 29.4541 15.5253ZM24.8901 9.08065C24.0995 6.87652 23.213 4.68437 22.3146 2.68388H21.7995C20.9011 4.68437 20.0027 6.8885 19.2121 9.08065H24.8901Z" fill="black"/>
<path d="M33.3467 8.03763C33.3467 3.31791 36.4612 0.0117188 40.9054 0.0117188H41.2288C44.0199 0.0117188 46.1642 1.42524 47.3141 3.47364C47.386 3.60541 47.374 3.71322 47.2423 3.77311L45.3256 4.71945C45.1939 4.77935 45.0262 4.77935 44.9423 4.62362C44.1397 3.23406 42.9298 2.49137 41.145 2.49137H40.8216C38.0305 2.49137 36.1018 4.70747 36.1018 7.92981C36.1018 11.1641 37.9945 13.3323 40.8216 13.3323H41.145C42.9778 13.3323 44.0439 12.7094 44.8585 11.7631C44.9663 11.6433 45.0861 11.6193 45.2178 11.6912L47.1824 12.6495C47.2543 12.6974 47.2902 12.7454 47.2902 12.8053C47.2902 12.8651 47.2662 12.9011 47.2303 12.973C46.0204 14.7339 43.8403 15.824 41.1929 15.824H40.8695C36.3414 15.812 33.3467 12.7094 33.3467 8.03763Z" fill="black"/>
<path d="M64.6463 13.308V15.3085C64.6463 15.4402 64.5624 15.5241 64.4307 15.5241H53.0027C52.871 15.5241 52.7871 15.4402 52.7871 15.3085V0.514452C52.7871 0.382683 52.871 0.298828 53.0027 0.298828H64.239C64.3708 0.298828 64.4546 0.382683 64.4546 0.514452V2.51494C64.4546 2.64671 64.3708 2.73056 64.239 2.73056H55.3746V6.69559H62.5739C62.7057 6.69559 62.7895 6.77945 62.7895 6.91122V8.88775C62.7895 9.01952 62.7057 9.10337 62.5739 9.10337H55.3746V13.0924H64.4307C64.5624 13.0924 64.6463 13.1762 64.6463 13.308Z" fill="black"/>
<path d="M84.3292 11.3434C84.3292 14.0147 82.2808 15.5241 78.6751 15.5241H71.1883C71.0565 15.5241 70.9727 15.4402 70.9727 15.3085V0.514452C70.9727 0.382683 71.0565 0.298828 71.1883 0.298828H78.0163C81.5261 0.298828 83.4428 1.68839 83.4428 4.23991C83.4428 5.91696 82.5923 7.01903 80.8793 7.52215C83.2751 8.02526 84.3292 9.47472 84.3292 11.3434ZM77.9444 2.65869H73.5481V6.75549H77.9444C79.909 6.75549 80.8194 6.10863 80.8194 4.70709C80.8194 3.30555 79.9209 2.65869 77.9444 2.65869ZM81.6699 11.1158C81.6699 9.70232 80.7355 9.05545 78.6751 9.05545H73.5481V13.1523H78.6751C80.7595 13.1523 81.6699 12.5413 81.6699 11.1158Z" fill="black"/>
<path d="M88.8809 7.90612C88.8809 3.31817 91.9235 0 96.7151 0H97.0385C101.83 0 104.873 3.30619 104.873 7.90612C104.873 12.4941 101.83 15.8122 97.0385 15.8122H96.7151C91.9355 15.8122 88.8809 12.506 88.8809 7.90612ZM97.0505 13.3326C100.177 13.3326 102.142 11.1884 102.142 7.9181C102.142 4.64784 100.177 2.5036 97.0505 2.5036H96.7271C93.6006 2.5036 91.636 4.64784 91.636 7.9181C91.636 11.1884 93.6006 13.3326 96.7271 13.3326H97.0505Z" fill="black"/>
<path d="M109.305 7.90612C109.305 3.31817 112.347 0 117.139 0H117.462C122.254 0 125.297 3.30619 125.297 7.90612C125.297 12.4941 122.254 15.8122 117.462 15.8122H117.139C112.347 15.8122 109.305 12.506 109.305 7.90612ZM117.462 13.3326C120.589 13.3326 122.553 11.1884 122.553 7.9181C122.553 4.64784 120.589 2.5036 117.462 2.5036H117.139C114.012 2.5036 112.048 4.64784 112.048 7.9181C112.048 11.1884 114.012 13.3326 117.139 13.3326H117.462Z" fill="black"/>
<path d="M144.067 15.5241H141.264C141.085 15.5241 141.001 15.4762 140.881 15.3444C138.916 13.0205 136.581 10.7205 134.604 9.01952H133.346V15.3085C133.346 15.4402 133.262 15.5241 133.131 15.5241H130.974C130.843 15.5241 130.759 15.4402 130.759 15.3085V0.514452C130.759 0.382683 130.843 0.298828 130.974 0.298828H133.131C133.262 0.298828 133.346 0.382683 133.346 0.514452V6.52789H134.628C136.748 4.61126 138.713 2.53889 140.306 0.466533C140.414 0.322785 140.498 0.298828 140.629 0.298828H143.289C143.421 0.298828 143.48 0.358725 143.48 0.454557C143.48 0.502473 143.457 0.550388 143.409 0.622262C141.073 3.50919 138.749 5.86905 136.605 7.70183C139.3 9.98981 141.863 12.5294 144.187 15.2725C144.307 15.3923 144.247 15.5241 144.067 15.5241Z" fill="black"/>
</svg>
