<svg width="144" height="33" viewBox="0 0 144 33" fill="none" xmlns="http://www.w3.org/2000/svg">
<path d="M41.1172 22.9022V9.63882C41.1309 8.99616 41.6641 8.47656 42.3068 8.47656C42.9358 8.49024 43.4554 9.00983 43.4554 9.63882V22.0955H49.5811C50.1418 22.0818 50.6067 22.533 50.634 23.0936C50.634 23.6679 50.1554 24.1328 49.5811 24.1465H42.3752C41.5547 24.1328 41.1172 23.6953 41.1172 22.9022Z" fill="black"/>
<path d="M55.1719 23.08V9.63882C55.1855 8.99616 55.7188 8.47656 56.3615 8.47656C56.9905 8.49024 57.5101 9.00983 57.5101 9.63882V23.0936C57.5101 23.7226 57.0041 24.2422 56.3615 24.2559C55.7051 24.2559 55.1855 23.7363 55.1719 23.08Z" fill="black"/>
<path d="M73.6586 23.6406L65.3997 12.1958V23.08C65.3997 23.7089 64.8938 24.2285 64.2511 24.2422C63.6085 24.2422 63.0752 23.7226 63.0615 23.08V10.008C63.0615 9.16024 63.7452 8.46289 64.593 8.46289C64.593 8.46289 64.593 8.46289 64.6066 8.46289C65.0989 8.46289 65.5501 8.69534 65.8373 9.09188L73.932 20.2359V9.63882C73.932 8.99616 74.4379 8.47656 75.0806 8.46289C75.7233 8.46289 76.2565 8.98249 76.2702 9.62515V22.8065C76.2702 23.5996 75.6275 24.2422 74.8208 24.2559C74.3559 24.2696 73.9184 24.0371 73.6586 23.6406Z" fill="black"/>
<path d="M93.4604 23.1337C93.4741 23.7353 92.9955 24.2412 92.3939 24.2549C92.0794 24.2823 91.7786 24.1592 91.5735 23.9267L85.6528 17.4181L84.1624 19.0043V23.079C84.1624 23.7216 83.6428 24.2412 83.0001 24.2412C82.3575 24.2276 81.8379 23.7216 81.8379 23.079V9.63784C81.8516 8.99519 82.3575 8.47559 83.0001 8.46192C83.6428 8.46192 84.1624 8.98151 84.1624 9.62417V16.3379L91.0129 8.80376C91.218 8.5713 91.5188 8.44824 91.8333 8.44824C92.4349 8.44824 92.9135 8.92682 92.9272 9.51478C92.9408 9.80193 92.8315 10.0754 92.6264 10.2668L87.2116 16.0234L93.1596 22.368C93.3374 22.5867 93.4468 22.8465 93.4604 23.1337Z" fill="black"/>
<path d="M98.1641 22.9002V9.81461C98.1641 9.02154 98.6016 8.58398 99.422 8.58398H107.681C108.255 8.58398 108.72 9.06256 108.734 9.63685C108.72 10.1975 108.255 10.6487 107.681 10.635H100.502V15.1747H107.517C108.077 15.161 108.542 15.6122 108.57 16.1728C108.57 16.7471 108.091 17.212 107.517 17.2257H100.502V22.0798H107.681C108.241 22.0661 108.706 22.5174 108.734 23.078C108.734 23.6523 108.255 24.1172 107.681 24.1309H99.422C98.6153 24.1309 98.1641 23.6933 98.1641 22.9002Z" fill="black"/>
<path d="M125.208 23.1737C125.181 23.7617 124.703 24.2266 124.115 24.2539C123.732 24.2539 123.363 24.0762 123.13 23.7617L119.233 18.1418H115.951V23.078C115.951 23.707 115.446 24.2266 114.817 24.2402C114.174 24.2402 113.641 23.7206 113.627 23.078V9.81461C113.627 9.02154 114.065 8.58398 114.885 8.58398H120.177C123.144 8.58398 125.167 10.4983 125.167 13.3697C125.167 15.9814 123.54 17.4718 121.694 17.841L124.976 22.4627C125.14 22.6678 125.222 22.9139 125.208 23.1737ZM115.951 16.0908H119.876C121.558 16.0908 122.761 14.9969 122.761 13.3561C122.761 11.7152 121.544 10.6213 119.876 10.6213H115.951V16.0908Z" fill="black"/>
<path d="M130.132 22.9002V9.81461C130.132 9.02154 130.569 8.58398 131.39 8.58398H135.683C140.537 8.58398 143.751 11.893 143.751 16.3779C143.751 20.8765 140.537 24.1445 135.683 24.1445H131.39C130.569 24.1309 130.132 23.6933 130.132 22.9002ZM135.683 22.0798C139.279 22.0798 141.344 19.5092 141.344 16.3643C141.344 13.1646 139.334 10.635 135.683 10.635H132.47V22.0798H135.683Z" fill="black"/>
<path d="M31.5996 6.4375V19.2223L33.9651 20.5897V7.79118L31.5996 6.4375Z" fill="black"/>
<path d="M0 20.5897L2.35186 19.2223V6.4375L0 7.79118V20.5897Z" fill="black"/>
<path d="M11.5527 20.4671L22.3959 26.7296V23.9949L12.2501 18.1426L11.5527 18.5391V20.4671Z" fill="black"/>
<path d="M23.0278 30.3543L11.5557 23.7363V26.4574L14.6186 28.2213L10.9404 30.3543C10.7626 30.4501 10.6943 30.6825 10.8037 30.8603C10.831 30.915 10.8857 30.9697 10.9404 30.997L12.7453 32.0362L16.9841 29.5886L21.2229 32.0362L23.0278 30.997C23.2056 30.9013 23.274 30.6688 23.1783 30.4911C23.1372 30.4364 23.0825 30.3817 23.0278 30.3543Z" fill="black"/>
<path d="M31.5996 14.0549V25.4039C31.5996 25.609 31.7637 25.7731 31.9688 25.7731C32.0372 25.7731 32.0919 25.7594 32.1602 25.7184L33.7737 24.775C33.8831 24.7066 33.9651 24.5835 33.9651 24.4468V12.6738L31.5996 14.0549Z" fill="black"/>
<path d="M26.963 28.7116L28.4807 27.8365C28.6448 27.7408 28.7542 27.5493 28.7542 27.3579V15.6943L26.4023 17.0617V28.4108C26.4023 28.6159 26.5801 28.78 26.7852 28.78C26.8536 28.7663 26.9083 28.7526 26.963 28.7116Z" fill="black"/>
<path d="M21.2207 32.0349L23.3948 30.7769C23.5042 30.7085 23.5862 30.5855 23.5862 30.4487V18.6758L21.2344 20.0431V32.0349H21.2207Z" fill="black"/>
<path d="M10.5701 30.7789L12.7442 32.0368V20.0588L10.3924 18.6914V30.4507C10.3787 30.5874 10.447 30.7105 10.5701 30.7789Z" fill="black"/>
<path d="M5.46976 27.8365L6.98753 28.7116C7.16529 28.8073 7.39774 28.7526 7.49345 28.5749C7.5208 28.5202 7.54815 28.4518 7.53447 28.3971L7.54815 17.048L5.19629 15.6807V27.3442C5.19629 27.5493 5.30568 27.7408 5.46976 27.8365Z" fill="black"/>
<path d="M0.273472 24.8404L1.79124 25.7155C1.969 25.8249 2.20145 25.7565 2.29716 25.5788C2.32451 25.5241 2.35186 25.4557 2.35186 25.3873V14.0519L0 12.6982V24.3618C0 24.5532 0.109389 24.7447 0.273472 24.8404Z" fill="black"/>
<path d="M33.9667 7.79144L31.6149 6.42408L27.376 8.87165L24.5456 7.23082L28.2375 5.09774C28.4152 4.98836 28.4699 4.76958 28.3742 4.59182C28.3469 4.53713 28.2922 4.48243 28.2375 4.45509L26.7197 3.57998C26.542 3.48426 26.3369 3.48426 26.1591 3.57998L22.1938 5.86346L19.3496 4.23631L23.0415 2.10323C23.2193 2.00751 23.2876 1.77506 23.1783 1.59731C23.1509 1.54261 23.0962 1.48792 23.0415 1.46057L21.5101 0.58546C21.3323 0.489745 21.1272 0.489745 20.9495 0.58546L16.9841 2.86895L13.0188 0.571786C12.841 0.476071 12.6359 0.476071 12.4582 0.571786L10.9404 1.48792C10.7626 1.58363 10.6943 1.81608 10.8037 1.99384C10.831 2.04853 10.8857 2.10323 10.9404 2.13058L31.6012 14.0539L33.953 12.6866L29.7142 10.239L33.9667 7.79144Z" fill="black"/>
<path d="M7.27338 3.60939L5.74193 4.48449C5.56418 4.59388 5.50948 4.81266 5.6052 4.99042C5.63254 5.04511 5.68724 5.09981 5.74193 5.12715L26.4027 17.0642L28.7546 15.6968L7.82032 3.60939C7.65624 3.5 7.43746 3.5 7.27338 3.60939Z" fill="black"/>
<path d="M0 7.79118L4.25249 10.2524L0 12.7L2.36553 14.0537L6.60434 11.6061L9.43478 13.2469L5.19596 15.6945L7.54782 17.0619L11.7866 14.6006L14.6171 16.2415L10.3783 18.689L12.7301 20.0564L16.9826 17.5951L21.2214 20.0564L23.5869 18.689L2.35186 6.4375L0 7.79118Z" fill="black"/>
</svg>
