<svg xmlns="http://www.w3.org/2000/svg" viewBox="500 900 5962.3646 1200"><defs><style>.cls-1{fill:none;}</style></defs><g id="Artboard_outline" data-name="Artboard outline"><rect class="cls-1" width="6962.3646" height="3000"/></g><g id="Wordmark"><path d="M2821.4144,1032.1316H3009.49L3329.2876,1610.62l319.793-578.4879h184.0048V1982.696H3679.6382V1254.16l-280.4166,504.4785H3255.2782L2974.8616,1254.16v728.536H2821.4144Z"/><path d="M4328.0428,1999.6744q-106.6049,0-187.3953-47.1892-80.8056-47.1891-125.95-130.7024-45.16-83.5176-45.1515-191.4708,0-109.31,44.1326-193.5086,44.1325-84.1809,122.5557-131.7256,78.4253-47.5143,180.2675-47.5273,101.1615,0,174.1586,47.8655,72.9753,47.8785,112.3669,134.1016,39.372,86.2359,39.3807,202.3359v42.09H4121.6357q14.262,86.9254,70.2765,136.8157,56.0144,49.9076,141.5631,49.9033,68.5727,0,118.1421-20.3689,49.5564-20.3688,93.0213-61.7829l81.4754,99.8065Q4504.5643,1999.683,4328.0428,1999.6744ZM4440.0759,1435.78q-48.2167-49.2181-126.2887-49.2269-76.0516,0-127.3076,50.25-51.2733,50.2458-64.8439,135.1161h373.4378Q4488.2774,1485.0071,4440.0759,1435.78Z"/><path d="M4828.4631,1400.1412H4687.2337V1274.5289h141.2294V1066.7647h148.0146v207.7642h214.5538v125.6123H4976.4777v318.4359q0,79.4334,27.1585,113.3858,27.1455,33.9612,93.0213,33.9481,29.181,0,49.5651-2.3759,20.3688-2.3673,44.8089-6.4515v124.251a419.4353,419.4353,0,0,1-56.6929,12.2265,446.1821,446.1821,0,0,1-66.201,4.7519q-239.6854,0-239.6745-262.0812Z"/><path d="M5962.3646,1982.696H5817.0641v-99.13q-38.7021,55.6827-98.4495,85.8891-59.7539,30.2022-135.7968,30.22-93.6954,0-166.0075-47.8742-72.3121-47.8656-113.7284-131.717-41.4205-83.8557-41.4184-191.809,0-108.6339,42.0991-192.1558,42.09-83.5046,116.4425-131.0406,74.3476-47.5143,170.7594-47.5273,72.65,0,130.3642,28.1817a257.7339,257.7339,0,0,1,95.7354,79.7759v-90.9792h145.3005ZM5814.35,1522.3544q-23.7767-60.43-75.0284-95.4015-51.2733-34.9628-118.48-34.9627-95.0676,0-151.4094,63.8207-56.3656,63.825-56.3547,172.4633,0,109.3235,54.3169,173.14,54.3105,63.8251,147.3383,63.8208,68.566,0,122.2132-35.31,53.6275-35.288,77.4043-95.0548Z"/></g><g id="Symbol"><path d="M2080,1000c-123.3911,0-219.8478,92.936-307.164,210.9931C1652.8473,1058.2153,1552.5,1000,1432.4138,1000,1187.5862,1000,1000,1318.6207,1000,1655.8621,1000,1866.8965,1102.0956,2000,1273.1035,2000c123.0805,0,211.6-58.0259,368.9655-333.1034,0,0,65.5973-115.8413,110.7249-195.6386q23.72,38.2978,49.9647,82.5351l73.7931,124.1379C2020.2989,1918.4789,2100.39,2000,2245.5172,2000c166.5959,0,259.31-134.9233,259.31-350.3448C2504.8276,1296.5517,2313.0118,1000,2080,1000ZM1522.069,1592.4138c-127.5862,200-171.7242,244.8276-242.7587,244.8276-73.1034,0-116.5517-64.1784-116.5517-178.6207,0-244.8276,122.069-495.1724,267.5862-495.1724,78.8013,0,144.6539,45.51,245.5224,189.9131C1580.088,1500.2723,1522.069,1592.4138,1522.069,1592.4138Zm481.5283-25.178-88.23-147.1481q-35.8152-58.2482-68.8384-107.23c79.52-122.7353,145.1135-183.8919,223.1261-183.8919,162.0691,0,291.7243,238.6207,291.7243,531.7241,0,111.7242-36.5935,176.5518-112.4139,176.5518C2176.2949,1837.2414,2141.5787,1789.2474,2003.5973,1567.2358Z"/></g></svg>
