<svg width="144" height="34" viewBox="0 0 144 34" fill="none" xmlns="http://www.w3.org/2000/svg">
<path fill-rule="evenodd" clip-rule="evenodd" d="M92.2323 24.8795C96.0845 24.8795 97.7842 22.8137 97.7842 20.4251C97.7842 15.0883 89.4349 16.7453 89.4349 14.0553C89.4349 13.001 90.3822 12.2692 91.8452 12.2692C93.3518 12.2692 94.8794 12.7857 96.0198 13.9262L97.4399 12.0541C96.1273 10.7629 94.2982 10.0312 92.082 10.0312C88.9185 10.0312 86.8526 11.8604 86.8526 14.2491C86.8526 19.5213 95.2019 17.6491 95.2019 20.6618C95.2019 21.6301 94.4057 22.6415 92.3398 22.6415C90.3386 22.6415 88.7681 21.6947 87.7999 20.6402L86.3789 22.5985C87.6705 23.9327 89.5853 24.8795 92.2323 24.8795ZM101.163 12.958C101.938 12.958 102.562 12.3339 102.562 11.5592C102.562 10.7845 101.938 10.1604 101.163 10.1604C100.388 10.1604 99.7645 10.7845 99.7645 11.5592C99.7645 12.3339 100.388 12.958 101.163 12.958ZM102.282 24.6213V14.2275H100.022V24.6213H102.282ZM109.447 28.8391C107.683 28.8391 106.37 28.4518 105.08 27.2898L106.134 25.6543C106.994 26.6227 108.071 26.9885 109.447 26.9885C110.933 26.9885 112.525 26.2999 112.525 24.0834V22.8999C111.729 23.9543 110.545 24.6429 109.19 24.6429C106.543 24.6429 104.584 22.7277 104.584 19.3061C104.584 15.9277 106.5 13.9694 109.19 13.9694C110.502 13.9694 111.685 14.5504 112.525 15.6694V14.2276H114.784V24.0834C114.784 27.8277 111.987 28.8391 109.447 28.8391ZM109.856 22.62C110.911 22.62 112.009 21.996 112.525 21.2428V17.3479C112.009 16.5946 110.911 15.9706 109.856 15.9706C108.049 15.9706 106.909 17.3048 106.909 19.3061C106.909 21.3073 108.049 22.62 109.856 22.62ZM127.008 24.6214V17.3049C127.008 15.1744 125.888 13.9694 123.65 13.9694C122.015 13.9694 120.66 14.8086 119.971 15.6263V14.2276H117.711V24.6214H119.971V17.3479C120.508 16.6593 121.499 15.9707 122.639 15.9707C123.909 15.9707 124.748 16.4871 124.748 18.1226V24.6214H127.008ZM138.563 24.6214H136.303V23.4808C135.529 24.3846 134.302 24.8796 132.925 24.8796C131.247 24.8796 129.331 23.7176 129.331 21.4365C129.331 19.0264 131.225 18.0365 132.925 18.0365C134.346 18.0365 135.529 18.4884 136.303 19.3707V17.8213C136.303 16.6162 135.292 15.8846 133.872 15.8846C132.71 15.8846 131.677 16.315 130.795 17.2188L129.848 15.6478C131.053 14.4858 132.56 13.9694 134.217 13.9694C136.54 13.9694 138.563 14.9377 138.563 17.7138V24.6214ZM133.829 23.3301C134.798 23.3301 135.766 22.9643 136.303 22.2541V20.6617C135.766 19.9516 134.798 19.5858 133.829 19.5858C132.56 19.5858 131.591 20.3389 131.591 21.4579C131.591 22.5985 132.56 23.3301 133.829 23.3301ZM143.749 24.6212V10.2679H141.49V24.6212H143.749Z" fill="black"/>
<path fill-rule="evenodd" clip-rule="evenodd" d="M52.7127 24.8795C48.4735 24.8795 45.5898 21.6947 45.5898 17.4554C45.5898 13.2161 48.4735 10.0312 52.7127 10.0312C56.952 10.0312 59.8571 13.2161 59.8571 17.4554C59.8571 21.6947 56.952 24.8795 52.7127 24.8795ZM52.7128 23.287C55.9192 23.287 58.0065 20.7908 58.0065 17.4553C58.0065 14.0983 55.9192 11.6236 52.7128 11.6236C49.4848 11.6236 47.4405 14.0983 47.4405 17.4553C47.4405 20.7908 49.4848 23.287 52.7128 23.287ZM70.7086 24.6214V17.3264C70.7086 15.0669 69.5681 13.9694 67.4162 13.9694C65.8453 13.9694 64.425 14.8516 63.6934 15.7339V14.2276H62.0794V24.6214H63.6934V17.0251C64.3174 16.1858 65.5009 15.4112 66.7706 15.4112C68.1693 15.4112 69.1162 15.9707 69.1162 17.8213V24.6214H70.7086ZM78.1817 24.8796C75.0829 24.8796 72.8664 22.6631 72.8664 19.4138C72.8664 16.4011 75.0183 13.9694 77.988 13.9694C81.1298 13.9694 82.9804 16.4226 82.9804 19.5428V19.9517H74.5879C74.7171 21.91 76.0728 23.5454 78.3108 23.5454C79.5159 23.5454 80.6994 23.072 81.5386 22.2112L82.3134 23.2657C81.2589 24.2986 79.8601 24.8796 78.1817 24.8796ZM81.3881 18.7465C81.3665 17.2187 80.3336 15.3034 77.9665 15.3034C75.75 15.3034 74.6525 17.1756 74.5664 18.7465H81.3881Z" fill="black"/>
<path fill-rule="evenodd" clip-rule="evenodd" d="M21.9711 28.2905C26.0367 26.8628 28.9618 23.0333 28.9618 18.528C28.9618 12.8075 24.258 8.15399 18.4756 8.15399C12.6933 8.15399 7.98948 12.8075 7.98948 18.528C7.98948 23.3959 11.401 27.4773 15.9789 28.5889V29.6064C10.8387 28.4782 6.99079 23.9532 6.99079 18.528C6.99079 12.2532 12.133 7.16599 18.4756 7.16599C24.8183 7.16599 29.9605 12.2532 29.9605 18.528C29.9605 23.5955 26.6029 27.8804 21.9711 29.3437V28.2905ZM18.4757 13.0941C15.4466 13.0941 12.9829 15.5315 12.9829 18.528C12.9829 20.6325 14.2063 22.4475 15.979 23.3485V24.4472C13.6351 23.4799 11.9842 21.1977 11.9842 18.528C11.9842 14.9811 14.8904 12.1061 18.4757 12.1061C22.0609 12.1061 24.9671 14.9811 24.9671 18.528C24.9671 20.7985 23.7687 22.7844 21.9711 23.9255V22.6965C23.1855 21.6995 23.9684 20.2076 23.9684 18.528C23.9684 15.5315 21.5047 13.0941 18.4757 13.0941ZM0 18.528C0 24.9461 3.34958 30.5807 8.40792 33.8421C8.71353 33.6445 9.02711 33.4587 9.34371 33.2789C9.57038 33.1514 9.79906 33.0299 10.0318 32.9114C10.3094 32.7701 10.5911 32.6357 10.8767 32.5083C11.1613 32.3808 11.4489 32.2622 11.7415 32.1486C11.9792 32.0567 12.2189 31.9708 12.4616 31.8878C12.8001 31.7722 13.1436 31.6665 13.4922 31.5696C13.7538 31.4975 14.0175 31.4293 14.2842 31.3681C14.5538 31.3059 14.8244 31.2476 15.0991 31.1972C15.3907 31.1438 15.6833 31.0935 15.9789 31.0529C16.3105 31.0193 16.6411 30.9799 16.9776 30.9532V29.7824V28.7835V24.7712V23.7516V20.01H15.9789V18.0341H16.9776H19.9737H20.9724V23.3624V24.456V28.5928V29.6124V31.0519C23.7367 31.4343 26.3063 32.3995 28.5413 33.8411C33.6017 30.5807 36.9513 24.9461 36.9513 18.528C36.9513 8.43361 28.6791 0.25 18.4756 0.25C8.27209 0.25 0 8.43361 0 18.528Z" fill="black"/>
</svg>
