<svg width="145" height="38" viewBox="0 0 145 38" fill="none" xmlns="http://www.w3.org/2000/svg">
<path d="M2.62403 4.62519L2.62381 4.62512C2.43418 4.57104 2.23455 4.56162 2.04065 4.59761C1.84674 4.6336 1.66392 4.714 1.50655 4.83242C1.34918 4.95084 1.22158 5.10403 1.13371 5.27988C1.04587 5.45569 1.00011 5.64928 1 5.84566V36.0712C1.00041 36.4072 1.13417 36.7297 1.37231 36.9679C1.61029 37.2059 1.93316 37.3404 2.27044 37.3418C2.37081 37.3418 2.47086 37.3301 2.56854 37.3069L2.62403 4.62519ZM2.62403 4.62519L19.0519 9.30204C19.0522 9.30213 19.0525 9.30221 19.0527 9.30229C19.3186 9.37921 19.5522 9.53989 19.7187 9.76012C19.8852 9.98033 19.9757 10.2483 19.9769 10.5239L19.9769 32.1581L19.9769 32.1593C19.9776 32.4446 19.8815 32.7218 19.7041 32.9459C19.5268 33.17 19.2785 33.3277 18.9996 33.3932L18.9981 33.3936L2.56891 37.3068L2.62403 4.62519Z" stroke="black"/>
<path d="M108.058 23.5287L108.015 23.5957C107.369 24.6023 106.491 25.4394 105.453 26.0369C104.398 26.6843 103.186 27.034 101.947 27.0488C99.9029 27.0488 98.118 26.2344 96.6412 24.6263C95.2053 23.0509 94.4429 20.9779 94.5166 18.8494C94.5255 16.8126 95.3089 14.8551 96.7084 13.3726C98.1329 11.8502 99.8469 11.0787 101.805 11.0787C104.486 11.0545 106.51 12.1595 107.989 14.4572L108.032 14.5243H108.073L109.817 13.449C109.093 12.2319 108.11 11.1885 106.938 10.3929C105.46 9.40991 103.723 8.88596 101.947 8.88723C100.698 8.85763 99.4574 9.09526 98.308 9.58415C97.1587 10.073 96.1276 10.8018 95.2839 11.7216C93.4281 13.6279 92.4834 16.0598 92.4834 18.9482C92.4834 21.7434 93.4169 24.1809 95.254 26.1972C97.0856 28.1799 99.3036 29.1788 101.85 29.1788H101.945C105.291 29.1079 108.05 27.4904 109.807 24.5946L108.058 23.5287Z" fill="black"/>
<path d="M121.078 9.14844H118.711L109.908 28.8138H112.718L115.438 22.2767H115.442L116.403 20.2343H116.4L119.943 11.9344L123.416 20.2343H118.431L117.522 22.2767H124.224L126.971 28.8138H129.446L121.078 9.14844Z" fill="black"/>
<path d="M142.324 10.9459C141.017 9.76819 139.37 9.17188 137.434 9.17188H131.059V28.813H133.381V21.1206V19.0521V11.2907H137.528C138.63 11.2679 139.705 11.64 140.556 12.3398C140.968 12.6423 141.306 13.0343 141.545 13.4862C141.783 13.9382 141.916 14.4382 141.932 14.9487C142.005 16.1842 141.602 17.1625 140.698 17.9433C139.864 18.6924 138.774 19.0927 137.653 19.0614H135.256V21.1299H138.039C139.647 21.1575 141.203 20.5632 142.382 19.4714C142.968 18.9641 143.438 18.3369 143.76 17.6325C144.082 16.9281 144.249 16.1628 144.249 15.3885C144.264 13.5809 143.62 12.0901 142.324 10.9459Z" fill="black"/>
<path d="M8.04898 0.549334L8.04916 0.549385L28.9579 6.52883C28.9582 6.52891 28.9584 6.52898 28.9587 6.52906C29.2238 6.60608 29.4568 6.76647 29.6231 6.98616C29.7893 7.20589 29.8799 7.47322 29.8816 7.74832C29.8816 7.74853 29.8816 7.74873 29.8816 7.74894L29.9077 19.6718L29.9077 19.6726C29.9088 19.9578 29.8132 20.2351 29.6364 20.4593C29.4595 20.6837 29.2117 20.8418 28.9331 20.9079L28.9317 20.9083L7.99512 25.9397L7.99417 25.9399C7.89592 25.9637 7.79521 25.9759 7.6941 25.9761C7.35688 25.9748 7.03407 25.8403 6.79614 25.6023C6.558 25.3641 6.42424 25.0416 6.42383 24.7055V1.7701C6.42383 1.77008 6.42383 1.77005 6.42383 1.77002C6.42387 1.57348 6.46964 1.37961 6.55757 1.20365C6.64551 1.02767 6.77325 0.87439 6.93078 0.755944C7.08832 0.637496 7.27133 0.557136 7.46541 0.521265C7.65949 0.485394 7.85927 0.495006 8.04898 0.549334Z" stroke="black"/>
<path d="M58.1331 9.53516H55.8105V11.8533H58.1331V9.53516Z" fill="black"/>
<path d="M58.1331 14.7275H55.8105V28.8416H58.1331V14.7275Z" fill="black"/>
<path d="M90.7934 27.4323V21.3704C90.8195 20.3535 90.6291 19.3427 90.2348 18.4047C89.8406 17.4668 89.2515 16.6229 88.5064 15.929C86.9717 14.3972 85.1271 13.6425 83.0267 13.6928C82.0485 13.7153 81.0847 13.9335 80.1925 14.3346C79.3003 14.7357 78.4979 15.3114 77.8327 16.0277C76.4545 17.4523 75.6985 19.3642 75.7305 21.3443C75.7208 22.3696 75.9183 23.3864 76.3113 24.3338C76.7042 25.2813 77.2845 26.1399 78.0175 26.8583C79.5448 28.3827 81.3781 29.1169 83.4729 29.0405C84.4384 29.0184 85.3897 28.8037 86.2708 28.4091C87.1519 28.0145 87.945 27.4479 88.6035 26.7428V27.7044L90.7934 27.4323ZM88.6035 27.7044C88.6047 28.3358 88.4702 28.9602 88.209 29.5353C87.9478 30.1105 87.566 30.6229 87.0893 31.0381C86.1414 31.9633 84.8678 32.4805 83.542 32.4786C82.4017 32.4835 81.2916 32.1135 80.383 31.4257C79.6548 30.9353 79.074 30.2563 78.7027 29.4616L76.9235 30.4865C77.3738 31.3564 78.0068 32.1192 78.7793 32.7227C80.0115 33.7011 81.5331 34.2377 83.303 34.3141C83.4138 34.3141 83.524 34.3141 83.6335 34.3141C85.4028 34.3185 87.1187 33.7092 88.4877 32.5904C90.013 31.3773 90.7878 29.8231 90.7878 27.969V27.4192L88.6035 27.7044ZM88.5474 21.5045C88.5332 22.9162 87.9703 24.2672 86.9773 25.2725C86.5169 25.7766 85.9539 26.1766 85.326 26.4459C84.6982 26.7153 84.0199 26.8476 83.3366 26.8341C82.6343 26.8468 81.9369 26.7145 81.2882 26.4455C80.6396 26.1764 80.0536 25.7764 79.5672 25.2706C79.0558 24.7801 78.649 24.1915 78.3711 23.5402C78.0933 22.8889 77.9502 22.1882 77.9503 21.4803C77.9291 20.7748 78.0481 20.0722 78.3006 19.4129C78.5532 18.7537 78.9341 18.151 79.4215 17.6397C79.876 17.1125 80.4342 16.6841 81.0614 16.3812C81.6887 16.0783 82.3716 15.9072 83.0678 15.8787C83.163 15.8787 83.2545 15.8787 83.3478 15.8787C84.7686 15.8787 85.9616 16.4098 86.9792 17.498C87.5075 18.0213 87.9199 18.6495 88.1897 19.3419C88.4595 20.0343 88.5808 20.7755 88.5456 21.5176L88.5474 21.5045Z" fill="black"/>
<path d="M51.6748 10.9459C50.3679 9.76819 48.7212 9.17188 46.7851 9.17188H40.4111V28.813H42.7337V21.1206V19.0521V11.2907H46.8878C47.9904 11.2679 49.0647 11.64 49.916 12.3398C50.3283 12.6423 50.6664 13.0343 50.9047 13.4862C51.1431 13.9382 51.2755 14.4382 51.292 14.9487C51.3648 16.1842 50.9616 17.1625 50.0579 17.9433C49.2243 18.6924 48.134 19.0927 47.0128 19.0614H44.6082V21.1299H47.3919C48.9958 21.1581 50.5488 20.5673 51.727 19.4807C52.3131 18.9734 52.7831 18.3463 53.1053 17.6418C53.4274 16.9374 53.5941 16.1721 53.594 15.3978C53.6164 13.5809 52.9723 12.0901 51.6748 10.9459Z" fill="black"/>
<path d="M67.2516 13.864C65.4014 13.864 63.835 14.5032 62.5972 15.7648C61.3594 17.0264 60.7451 18.6122 60.7451 20.4757V28.7757H62.9855V20.2893C62.977 19.7296 63.0846 19.1741 63.3014 18.6578C63.5183 18.1414 63.8398 17.6755 64.2457 17.2891C64.6347 16.8864 65.1019 16.5672 65.6188 16.3509C66.1356 16.1347 66.6912 16.0259 67.2516 16.0313C67.8045 16.0264 68.3524 16.1356 68.861 16.352C69.3696 16.5685 69.8279 16.8875 70.2071 17.2891C70.6171 17.6737 70.9431 18.1387 71.1644 18.655C71.3858 19.1713 71.4978 19.7278 71.4934 20.2893V28.7887H73.7338V20.4757C73.7338 18.5954 73.1103 17.0077 71.8818 15.7555C71.2823 15.1388 70.5615 14.6524 69.7647 14.3269C68.9679 14.0014 68.1123 13.8438 67.2516 13.864Z" fill="black"/>
</svg>
