<svg width="148" height="23" viewBox="0 0 148 23" fill="none" xmlns="http://www.w3.org/2000/svg">
<path d="M24.9941 14.817L27.3887 12.9213C28.0871 14.1519 29.2179 14.817 30.4817 14.817C31.8786 14.817 32.6103 13.9191 32.6103 12.9213C32.6103 11.724 31.1802 11.3582 29.6835 10.8926C27.7878 10.2939 25.6926 9.56225 25.6926 6.86834C25.6926 4.60679 27.6548 2.84411 30.3487 2.84411C32.6103 2.84411 33.9406 3.70882 35.0714 4.87285L32.9096 6.5025C32.3109 5.60453 31.4795 5.13892 30.3487 5.13892C29.0849 5.13892 28.3865 5.83734 28.3865 6.73531C28.3865 7.86609 29.7501 8.23193 31.2467 8.7308C33.1424 9.3627 35.3042 10.1942 35.3042 12.8881C35.3042 15.1164 33.5415 17.2781 30.4485 17.2781C27.9541 17.3447 26.2912 16.2471 24.9941 14.817ZM36.7675 5.8706H39.3617V7.16767C40.0601 6.23644 41.1909 5.63779 42.5877 5.63779C44.3504 5.63779 45.5809 6.36947 46.2461 7.60002C47.011 6.43599 48.3414 5.63779 49.9377 5.63779C52.9642 5.63779 54.5274 7.46699 54.5274 10.3604V17.1451H51.8667V10.56C51.8667 8.93035 51.002 7.86609 49.4056 7.86609C48.0088 7.86609 46.9113 8.86383 46.9113 10.8261V17.1451H44.2839V10.4935C44.2839 8.89709 43.4857 7.89935 41.9225 7.89935C40.4592 7.89935 39.3617 8.89709 39.3617 10.8926V17.1451H36.7675V5.8706ZM55.8244 11.5245C55.8244 7.79957 58.5516 5.63779 61.4118 5.63779C62.9084 5.63779 64.2388 6.2697 65.037 7.23418V5.8706H67.6311V17.1451H65.037V15.6818C64.2055 16.7128 62.8419 17.3779 61.3786 17.3779C58.6514 17.3779 55.8244 15.1829 55.8244 11.5245ZM65.17 11.458C65.17 9.56225 63.7399 7.99912 61.8109 7.99912C59.8819 7.99912 58.3853 9.529 58.3853 11.458C58.3853 13.4202 59.8819 14.9833 61.8109 14.9833C63.7399 14.9833 65.17 13.4202 65.17 11.458ZM69.427 5.8706H72.0212V7.53351C72.5533 6.40273 73.4845 5.8706 74.9146 5.8706C75.7128 5.8706 76.4112 6.07015 76.9101 6.33621L75.9124 8.79732C75.5133 8.53125 75.0809 8.36496 74.3492 8.36496C72.8526 8.36496 72.0212 9.16316 72.0212 11.1254V17.1451H69.427V5.8706ZM77.5088 5.8706H79.4377V4.14118L82.0651 2.34524V5.8706H84.3599V8.19867H82.0651V12.4225C82.0651 14.3847 82.3312 14.684 84.3599 14.684V17.1451H83.9941C80.502 17.1451 79.4377 16.0143 79.4377 12.4557V8.19867H77.5088V5.8706ZM89.3154 5.57128H85.5572V3.07691H95.7342V5.57128H91.9428V17.1451H89.3154V5.57128ZM97.1643 2.87737H99.7585V7.20093C100.523 6.23644 101.721 5.60453 103.118 5.60453C105.878 5.60453 107.607 7.43373 107.607 10.427V17.1119H104.947V10.7263C104.947 8.96361 104.082 7.86609 102.386 7.86609C100.922 7.86609 99.7585 8.96361 99.7585 10.9258V17.1119H97.1311V2.87737H97.1643ZM110.601 1.44727C111.632 1.44727 112.23 2.11243 112.23 3.07691C112.23 4.0414 111.598 4.70656 110.601 4.70656C109.57 4.70656 108.971 4.0414 108.971 3.07691C108.971 2.11243 109.603 1.44727 110.601 1.44727ZM109.304 5.8706H111.931V17.1451H109.304V5.8706ZM113.627 5.8706H116.221V7.26744C116.986 6.2697 118.15 5.63779 119.58 5.63779C122.341 5.63779 124.07 7.46699 124.07 10.4602V17.1451H121.443V10.7263C121.443 8.99686 120.578 7.89935 118.882 7.89935C117.385 7.89935 116.255 8.99686 116.255 10.9591V17.1451H113.66V5.8706H113.627ZM134.613 15.6485C133.782 16.7128 132.418 17.3779 130.921 17.3779C128.194 17.3779 125.367 15.1829 125.367 11.5245C125.367 7.79957 128.094 5.63779 130.955 5.63779C132.451 5.63779 133.782 6.30296 134.58 7.3007V5.8706H137.174V16.8458C137.174 20.0053 135.178 22.5994 131.354 22.5994C128.427 22.5994 126.598 21.2359 125.567 19.3734L127.895 17.9766C128.693 19.4732 129.624 20.2381 131.42 20.2381C133.382 20.2381 134.613 18.7082 134.613 16.9788V15.6485ZM134.713 11.458C134.713 9.56225 133.283 7.99912 131.354 7.99912C129.425 7.99912 127.928 9.529 127.928 11.458C127.928 13.4202 129.425 14.9833 131.354 14.9833C133.283 14.9833 134.713 13.4202 134.713 11.458ZM138.138 14.6175L140.533 13.4535C141.065 14.4845 142.03 15.0831 143.26 15.0831C144.524 15.0831 145.189 14.4512 145.189 13.7195C145.189 12.9213 143.925 12.7218 142.562 12.4225C140.599 12.0234 138.604 11.3915 138.604 9.03012C138.604 7.20093 140.333 5.57128 143.027 5.57128C145.256 5.57128 146.752 6.46925 147.65 7.89935L145.422 9.03012C144.956 8.23193 144.125 7.73306 143.027 7.73306C141.797 7.73306 141.198 8.29844 141.198 8.96361C141.198 9.72854 142.096 9.89484 143.792 10.2607C145.655 10.6598 147.75 11.2917 147.75 13.653C147.75 15.2494 146.353 17.3447 143.127 17.3447C140.699 17.3779 139.036 16.4134 138.138 14.6175Z" fill="black"/>
<path fill-rule="evenodd" clip-rule="evenodd" d="M10.56 0.25C13.0876 0.25 15.7816 0.649098 17.8436 2.4783C19.6062 4.40727 20.0386 7.16769 20.0386 9.79509V10.4935C20.0386 13.0211 19.6395 15.7483 17.8103 17.8103C15.8813 19.6062 13.1209 20.0386 10.4935 20.0386H9.79509C7.26747 20.0386 4.5403 19.6395 2.4783 17.8103C0.682356 15.8813 0.25 13.1209 0.25 10.5268V9.76183C0.25 7.23421 0.682356 4.5403 2.4783 2.4783C4.40727 0.682356 7.13444 0.25 9.76183 0.25H10.56ZM7.9316 12.8877L8.53025 13.3201L8.19767 13.7192C8.79632 14.3511 8.86283 15.3155 8.3307 16.014C7.99812 16.5128 7.43273 16.7789 6.83408 16.7789C6.43499 16.7789 6.06915 16.6791 5.73657 16.4463C4.90511 15.8809 4.73882 14.7169 5.33747 13.9187C5.67005 13.4198 6.23544 13.1538 6.83408 13.1538C7.10015 13.1538 7.36622 13.2203 7.59902 13.3201L7.9316 12.8877ZM6.83408 16.0805C7.19992 16.0805 7.53251 15.8809 7.73206 15.6149C8.09789 15.116 7.96486 14.4508 7.49925 14.085C7.2997 13.952 7.06689 13.8854 6.83408 13.8854C6.46825 13.8854 6.13566 14.085 5.93612 14.3511C5.57028 14.8499 5.67005 15.5151 6.16892 15.8809C6.36847 16.014 6.60128 16.0805 6.83408 16.0805ZM12.7208 13.3201C12.9536 13.2203 13.2196 13.1538 13.4857 13.1538C14.0844 13.1538 14.6165 13.4198 14.9823 13.952C15.6142 14.7502 15.4147 15.8809 14.5832 16.4796C14.2507 16.6791 13.8848 16.8122 13.4857 16.8122C12.8871 16.8122 12.3217 16.5128 11.9891 16.0472C11.457 15.3488 11.5235 14.3843 12.1221 13.7524L11.7895 13.3201L12.3882 12.8877L12.7208 13.3201ZM13.4525 16.0472C13.6853 16.0472 13.9181 15.9807 14.1176 15.8477C14.6165 15.5151 14.7495 14.8167 14.3504 14.3178C14.1509 14.0185 13.8183 13.8522 13.4525 13.8522C13.2196 13.8522 12.9868 13.9187 12.7873 14.0517C12.2884 14.4176 12.1886 15.0827 12.5545 15.5816C12.754 15.8809 13.0866 16.0472 13.4525 16.0472ZM15.5477 6.96775C16.3459 6.96775 17.0443 7.46663 17.3104 8.23156C17.4434 8.69718 17.4102 9.16279 17.2439 9.6284C17.0111 10.0608 16.612 10.3601 16.1464 10.5264C15.9801 10.5929 15.7805 10.6261 15.581 10.6261C14.8826 10.6261 14.2839 10.2603 13.9513 9.69492L13.4192 9.86121L13.1864 9.16279L13.7185 8.9965C13.6187 8.16505 14.1176 7.33359 14.9823 7.06753C15.1486 7.00101 15.3482 6.96775 15.5477 6.96775ZM15.847 9.82795C16.1464 9.76144 16.3792 9.56189 16.5122 9.29582C16.6452 9.02976 16.6785 8.73044 16.5787 8.46437C16.4124 7.99876 16.0133 7.69943 15.5145 7.69943C15.4147 7.69943 15.2817 7.73269 15.1819 7.76595C14.5832 7.93224 14.2507 8.56414 14.4502 9.12953C14.6165 9.59515 15.0156 9.89447 15.5145 9.89447C15.6142 9.89447 15.7473 9.86121 15.847 9.82795ZM10.5923 8.06527C11.8228 8.26482 12.6875 9.26256 12.6875 10.4931C12.6875 11.8567 11.5567 12.9542 10.1599 12.9542C8.76306 12.9542 7.63228 11.8567 7.63228 10.4931C7.63228 10.3601 7.63228 10.2271 7.66554 10.094L6.40173 9.69492C6.06915 10.2603 5.43724 10.6261 4.77208 10.6261C4.57253 10.6261 4.40624 10.5929 4.20669 10.5264C3.24221 10.2271 2.67682 9.19605 3.0094 8.23156C3.24221 7.46663 3.97389 6.96775 4.77208 6.96775C4.97163 6.96775 5.13792 7.00101 5.33747 7.06753C5.83634 7.20056 6.20218 7.53314 6.43499 7.9655C6.60128 8.29808 6.66779 8.63066 6.63454 8.9965L7.89835 9.3956C8.26419 8.66392 9.02912 8.1983 9.86058 8.06527V6.7682C9.02912 6.60191 8.29744 5.83698 8.29744 4.97226C8.29744 3.97452 9.1289 3.14307 10.1599 3.14307C11.1909 3.14307 12.0224 3.97452 12.0224 4.97226C12.0224 5.83698 11.457 6.60191 10.5923 6.7682V8.06527ZM4.77208 9.89447C5.27095 9.89447 5.67005 9.59515 5.83634 9.12953C5.93612 8.83021 5.90286 8.56414 5.76983 8.29808C5.60353 8.06527 5.40399 7.86572 5.10466 7.76595C5.00489 7.73269 4.90511 7.69943 4.77208 7.69943C4.27321 7.69943 3.87411 7.99876 3.70782 8.46437C3.54153 9.02976 3.84085 9.6284 4.4395 9.82795C4.53927 9.86121 4.63905 9.89447 4.77208 9.89447ZM10.1599 3.87475C9.52799 3.87475 9.02912 4.37362 9.02912 4.97226C9.02912 5.57091 9.52799 6.06978 10.1599 6.06978C10.7918 6.06978 11.2907 5.57091 11.2907 4.97226C11.2907 4.37362 10.7918 3.87475 10.1599 3.87475ZM8.53025 10.4931C8.53025 11.3578 9.26193 12.0895 10.1599 12.0895C11.0579 12.0895 11.7895 11.3911 11.7895 10.4931C11.7895 9.6284 11.0579 8.89673 10.1599 8.89673C9.26193 8.89673 8.53025 9.59515 8.53025 10.4931Z" fill="black"/>
</svg>
