<svg version="1" xmlns="http://www.w3.org/2000/svg" width="160" height="160" viewBox="0 0 120.000000 120.000000"><path d="M29.3 7.8c-.8.5 1.9 5.9 8.7 17.7 5.5 9.4 9.9 17.4 9.9 18 0 .5-1.1 1.8-2.4 2.8-2.5 1.8-2.6 1.7-8.9-1.8-5.3-2.9-6.5-3.3-7.5-2.1-1.3 1.6-.9 1.9 6.4 6.1 2.8 1.5 5.2 2.9 5.3 3.1.2.1.1 1.6-.3 3.3l-.7 3.1H19.9C.7 58 0 58.1 0 60s.7 2 19.9 2c17.2 0 20 .2 20.5 1.6 1.3 3.5.5 5-4.7 7.8-7.4 4.1-7.9 4.6-6.6 6.2.9 1.1 2.3.7 7.8-2.3l6.8-3.6 2 2 2.1 2.1-9.9 16.8c-5.4 9.3-9.9 17.4-9.9 18 0 .7.7 1.4 1.4 1.7 1.1.4 4.3-4.3 11.6-16.8l10.1-17.3 3.2.9c1.8.5 3.3.9 3.4.9.2 0 .3 3.4.3 7.5 0 6.8.2 7.5 2 7.5s2-.7 2-7.3v-7.3l3.2-1.2c4-1.5 3.5-2.2 15.3 18.3 7.8 13.6 9.1 15.3 10.7 14.4 1-.6 1.7-1.3 1.4-1.7C83.8 95.5 73 76.6 73 76.1s.9-1.6 1.9-2.5c1.9-1.7 2.2-1.6 8.4 1.8 5.3 3 6.6 3.4 7.6 2.2 1.3-1.6.9-1.9-6.4-6.1-2.7-1.5-5.2-2.9-5.3-3.1-.2-.1-.1-1.6.3-3.3l.7-3.1h19.9c19.2 0 19.9-.1 19.9-2s-.7-2-19.8-2H80.4l-1.1-3c-1.1-3-1.1-3 5.3-6.6 6-3.3 7.7-5.5 5.5-6.9-.5-.3-3.6 1.1-6.8 3-3.2 1.9-6.1 3.5-6.5 3.5-1 0-4.8-3.8-4.8-4.8 0-.4 4.3-8.1 9.5-17.1 8.7-15.1 10.6-20 7.2-18.9C87.5 7.7 69 38.4 69 40.1c0 1-1.6 1.1-4.7.3-2.1-.6-2.3-1.2-2.3-8 0-6.7-.2-7.4-2-7.4s-2 .7-2 7.4v7.4l-3.1.7c-1.7.4-3.2.5-3.3.3-.3-.4-4.2-7.2-6.9-11.8C37.9 16.9 31.8 7 31.2 7c-.4 0-1.2.4-1.9.8zm38.3 38.8c2.8 1.4 4.5 3.2 6 6.4 6.7 13.8-6.9 27.5-20.5 20.8-11.8-5.8-11.3-23 .9-28.2 4.2-1.7 8.6-1.4 13.6 1z"/><path d="M58.1 57.9c-2.1 1.4-.4 5.3 2.2 4.9 1.6-.2 2.2-1 2.2-2.8 0-2.6-2-3.6-4.4-2.1zM58.2 15.9c-2.3 1.4-1 4.6 1.8 4.6 2 0 2.5-.5 2.5-2.5 0-2.6-2-3.6-4.3-2.1zM21.7 36.6c-1.4 1.5-.6 4.3 1.4 4.9 2.3.8 4.1-.9 3.6-3.5-.2-1.6-3.8-2.6-5-1.4zM93.5 38.1c-.5 1.4-.2 2.5.6 3 2.4 1.5 4.4.5 4.4-2.1 0-3.4-4-4.1-5-.9zM22.2 78.9c-2 1.2-1 4.6 1.5 4.9 1.4.2 2.3-.3 2.8-1.7 1.1-3.5-1.2-5.2-4.3-3.2zM93.6 79.5c-.6 1.7.2 4.5 1.4 4.5 3.7 0 5.6-4.2 2.4-5.4-2.4-.9-3.1-.7-3.8.9zM57.4 100.5c-.9 2.3.3 4.5 2.5 4.5 2.5 0 3.4-1.4 2.6-4-.7-2.3-4.3-2.7-5.1-.5z"/></svg>