<svg width="45" height="45" viewBox="0 0 45 45" fill="none" xmlns="http://www.w3.org/2000/svg">
<path fill-rule="evenodd" clip-rule="evenodd" d="M36.3002 10.0998L37.1002 9.6998L38.1002 9.0998L36.9002 6.9998L35.9002 7.5998L34.3002 8.4998C32.5002 7.3998 30.5002 6.7998 28.3002 6.7998C21.8002 6.7998 16.5002 12.0998 16.5002 18.5998C16.5002 18.6998 16.5002 18.7998 16.5002 18.7998L10.2002 22.3998L9.2002 22.9998L10.4002 25.0998L11.4002 24.4998L16.8002 21.3998C17.0002 22.0998 17.2002 22.6998 17.5002 23.3998L10.3002 27.5998L9.3002 28.1998L10.5002 30.2998L11.5002 29.6998L18.7002 25.4998C19.1002 26.0998 19.6002 26.5998 20.1002 27.1998L19.5002 27.5998L18.5002 28.1998L17.5002 28.7998L10.3002 32.9998L9.3002 33.5998L10.5002 35.6998L11.5002 35.0998L18.7002 30.8998L19.7002 30.2998L20.7002 29.6998L22.2002 28.8998C24.0002 29.9998 26.1002 30.5998 28.3002 30.5998C34.8002 30.5998 40.1002 25.2998 40.1002 18.7998C40.0002 15.1998 38.6002 12.1998 36.3002 10.0998ZM28.3002 27.8998C27.0002 27.8998 25.8002 27.5998 24.7002 27.1998L27.9002 25.2998L28.9002 24.6998L27.7002 22.5998L26.7002 23.1998L22.3002 25.6998C21.7002 25.1998 21.2002 24.6998 20.8002 24.0998L26.6002 20.7998C26.0002 20.2998 25.5002 19.5998 25.5002 18.6998L19.7002 22.0998C19.2002 20.9998 19.0002 19.7998 19.0002 18.5998C19.0002 13.4998 23.1002 9.2998 28.3002 9.2998C29.5002 9.2998 30.7002 9.4998 31.8002 9.9998L28.8002 11.7998L27.8002 12.3998L29.0002 14.4998L30.0002 13.8998L34.2002 11.4998C34.7002 11.8998 35.2002 12.3998 35.7002 12.9998L29.9002 16.3998C30.6002 16.7998 31.1002 17.4998 31.2002 18.3998L37.0002 15.0998C37.5002 16.1998 37.8002 17.4998 37.8002 18.7998C37.5002 23.6998 33.4002 27.8998 28.3002 27.8998Z" fill="#F5A623"/>
<path d="M6.8 27.8998C7.79411 27.8998 8.6 27.0939 8.6 26.0998C8.6 25.1057 7.79411 24.2998 6.8 24.2998C5.80589 24.2998 5 25.1057 5 26.0998C5 27.0939 5.80589 27.8998 6.8 27.8998Z" fill="#F5A623"/>
<path fill-rule="evenodd" clip-rule="evenodd" d="M6.8 34.5996C5.8 34.5996 5 35.3996 5 36.3996C5 37.3996 5.8 38.1996 6.8 38.1996C7.8 38.1996 8.6 37.3996 8.6 36.3996C8.5 35.3996 7.7 34.5996 6.8 34.5996Z" fill="#F5A623"/>
<path d="M28.3 20.3998C29.2941 20.3998 30.1 19.5939 30.1 18.5998C30.1 17.6057 29.2941 16.7998 28.3 16.7998C27.3059 16.7998 26.5 17.6057 26.5 18.5998C26.5 19.5939 27.3059 20.3998 28.3 20.3998Z" fill="#F5A623"/>
</svg>
